<svg width="172" height="155" viewBox="0 0 172 155" fill="none" xmlns="http://www.w3.org/2000/svg">
<path d="M151.613 101.009C150.284 94.8414 144.848 81.459 133.731 77.271C119.835 72.0359 110.964 79.6503 98.0238 74.7753C85.0837 69.9003 80.6655 60.6796 71.4016 57.1895C53.5355 50.4587 38.5455 65.1727 25.3114 60.1869C0.828253 50.9632 3.27484 25.816 -9.42993 21.0296C-17.3705 18.0382 -22.5176 20.6734 -25.586 24.8067" stroke="#5225EE" stroke-width="7" stroke-linecap="round"/>
<path d="M160.021 68.6624C158.693 62.4947 153.256 49.1123 142.14 44.9243C128.244 39.6892 119.372 47.3036 106.432 42.4286C93.4919 37.5536 89.0737 28.3329 79.8098 24.8428C61.9437 18.1121 46.9537 32.826 33.7196 27.8402C9.23646 18.6166 11.683 -6.53069 -1.02172 -11.317C-8.96228 -14.3085 -14.1094 -11.6732 -17.1778 -7.53995" stroke="#FDBA17" stroke-width="7" stroke-linecap="round"/>
</svg>
