<svg width="155" height="103" viewBox="0 0 155 103" fill="none" xmlns="http://www.w3.org/2000/svg">
<path d="M41.1911 68.6482L42.6522 66.0281L41.1911 68.6482ZM78.4913 69.1875L81.3165 68.1784L78.4913 69.1875ZM1.46505 84.712C0.345468 83.4906 0.42797 81.5929 1.64932 80.4734C2.87068 79.3538 4.76838 79.4363 5.88796 80.6576L1.46505 84.712ZM30.0274 97.405L29.3027 100.316L29.1055 100.267L28.9167 100.192L30.0274 97.405ZM159.252 3.13767C146.739 33.6717 132.469 59.3189 113.432 73.0247C103.821 79.9438 92.995 83.8224 80.6694 83.7523C68.3919 83.6824 54.8448 79.697 39.7299 71.2684L42.6522 66.0281C57.1642 74.1206 69.7161 77.6898 80.7035 77.7524C91.6427 77.8146 101.247 74.4036 109.926 68.1553C127.468 55.5264 141.215 31.3283 153.701 0.86233L159.252 3.13767ZM39.7299 71.2684C31.2901 66.5619 27.6384 59.7773 28.1667 53.0139C28.6792 46.4538 33.0883 40.6652 39.1674 37.7146C45.3488 34.7144 53.2956 34.5976 61.0287 39.2629C68.6928 43.8868 75.9116 53.046 81.3165 68.1784L75.6661 70.1965C70.5416 55.8491 64.0109 48.0695 57.9292 44.4004C51.9164 40.7728 46.1209 41.009 41.7873 43.1124C37.3513 45.2655 34.4727 49.3313 34.1485 53.4812C33.8402 57.4278 35.8028 62.2086 42.6522 66.0281L39.7299 71.2684ZM81.3165 68.1784C83.3681 73.9226 83.14 79.4825 80.9818 84.4037C78.8435 89.2795 74.907 93.3182 69.8737 96.3002C59.8346 102.248 45.0703 104.241 29.3027 100.316L30.7521 94.4938C45.3145 98.1188 58.3975 96.1254 66.8154 91.1381C71.0108 88.6525 73.9553 85.4865 75.487 81.9939C76.9988 78.5467 77.2298 74.5746 75.6661 70.1965L81.3165 68.1784ZM28.9167 100.192C14.3948 94.4042 6.07821 89.7445 1.46505 84.712L5.88796 80.6576C9.48568 84.5824 16.6189 88.8316 31.1381 94.6182L28.9167 100.192Z" fill="#5225EE"/>
</svg>
