<svg width="184" height="191" viewBox="0 0 184 191" fill="none" xmlns="http://www.w3.org/2000/svg">
<path d="M163.22 137.009C161.892 130.841 156.455 117.459 145.339 113.271C131.443 108.036 122.571 115.65 109.631 110.775C96.6911 105.9 92.2729 96.6796 83.009 93.1895C65.143 86.4587 50.1529 101.173 36.9188 96.1869C12.4357 86.9632 14.8823 61.816 2.1775 57.0296C-5.76306 54.0382 -10.9102 56.6734 -13.9786 60.8067" stroke="#00CE94" stroke-width="7" stroke-linecap="round"/>
<path d="M171.629 104.662C170.3 98.4947 164.864 85.1123 153.747 80.9243C139.851 75.6892 130.98 83.3036 118.039 78.4286C105.099 73.5536 100.681 64.3329 91.4172 60.8428C73.5512 54.1121 58.5611 68.826 45.327 63.8402C20.8439 54.6166 23.2905 29.4693 10.5857 24.683C2.64515 21.6915 -2.50196 24.3268 -5.57042 28.4601" stroke="#FDBA17" stroke-width="7" stroke-linecap="round"/>
</svg>
