<svg width="965" height="1077" viewBox="0 0 965 1077" fill="none" xmlns="http://www.w3.org/2000/svg">
<path d="M-336.605 737.325C-205.023 878.086 -87.723 840.979 71.94 929.146C162.925 979.371 221.427 1075.04 354.379 1076.96C454.373 1078.39 549.001 1028.53 598.248 968.055C621.248 939.803 621.622 894.846 646.333 868.927C697.352 815.456 775.792 806.929 852.56 775.635C941.034 739.532 963.275 683.612 964.144 594.799C964.977 511.867 927.115 222.458 803.869 148.179C715.657 95.014 610.747 115.634 516.77 91.8451C276.541 31.0794 150.778 -77.9158 -45.2691 90.7701C-127.279 161.341 -168.804 254.924 -255.988 317.963C-410.951 430.103 -511.17 550.58 -336.605 737.325Z" fill="#5225EE"/>
</svg>
