<svg width="623" height="185" viewBox="0 0 623 185" fill="none" xmlns="http://www.w3.org/2000/svg">
<rect width="623" height="185" rx="92.5" fill="white"/>
<path d="M200.898 110.71C199.065 110.71 197.646 110.207 196.64 109.202C195.694 108.137 195.221 106.688 195.221 104.855V56.9533H177.923C176.386 56.9533 175.173 56.5393 174.286 55.7114C173.458 54.8243 173.044 53.6415 173.044 52.1631C173.044 50.6255 173.458 49.4723 174.286 48.7035C175.173 47.8756 176.386 47.4616 177.923 47.4616H223.873C225.411 47.4616 226.594 47.8756 227.422 48.7035C228.309 49.4723 228.752 50.6255 228.752 52.1631C228.752 53.6415 228.309 54.8243 227.422 55.7114C226.594 56.5393 225.411 56.9533 223.873 56.9533H206.576V104.855C206.576 106.688 206.103 108.137 205.156 109.202C204.21 110.207 202.791 110.71 200.898 110.71ZM246.846 110.887C241.937 110.887 237.709 109.97 234.161 108.137C230.612 106.304 227.863 103.702 225.911 100.331C224.019 96.9601 223.072 92.9683 223.072 88.3555C223.072 83.861 223.989 79.9284 225.822 76.5575C227.715 73.1866 230.287 70.555 233.54 68.6626C236.852 66.711 240.607 65.7352 244.806 65.7352C247.881 65.7352 250.631 66.2379 253.055 67.2433C255.539 68.2486 257.638 69.6975 259.353 71.5899C261.128 73.4823 262.458 75.7887 263.345 78.509C264.292 81.1702 264.765 84.1863 264.765 87.5571C264.765 88.6216 264.38 89.4496 263.611 90.0409C262.902 90.5732 261.867 90.8393 260.507 90.8393H232.032V84.4524H256.958L255.539 85.783C255.539 83.0627 255.125 80.7859 254.297 78.9526C253.528 77.1193 252.375 75.7296 250.838 74.7833C249.359 73.778 247.496 73.2753 245.249 73.2753C242.765 73.2753 240.636 73.8667 238.862 75.0495C237.147 76.1731 235.817 77.7994 234.87 79.9284C233.983 81.9982 233.54 84.482 233.54 87.3797V88.0007C233.54 92.85 234.663 96.487 236.911 98.9116C239.217 101.277 242.588 102.46 247.023 102.46C248.561 102.46 250.276 102.282 252.168 101.928C254.12 101.514 255.953 100.834 257.668 99.8874C258.91 99.1778 260.004 98.8821 260.95 99.0003C261.896 99.0595 262.636 99.3847 263.168 99.9761C263.759 100.567 264.114 101.307 264.232 102.194C264.351 103.022 264.173 103.879 263.7 104.766C263.286 105.653 262.547 106.422 261.482 107.073C259.413 108.374 257.018 109.349 254.297 110C251.636 110.591 249.152 110.887 246.846 110.887ZM286.054 110.887C282.919 110.887 280.11 110.296 277.626 109.113C275.202 107.871 273.28 106.215 271.86 104.145C270.5 102.076 269.82 99.7396 269.82 97.1375C269.82 93.944 270.648 91.4307 272.304 89.5974C273.96 87.705 276.651 86.3448 280.376 85.5169C284.102 84.689 289.099 84.275 295.368 84.275H299.803V90.6619H295.457C291.79 90.6619 288.863 90.8393 286.675 91.1941C284.486 91.549 282.919 92.1699 281.973 93.057C281.086 93.8849 280.642 95.0677 280.642 96.6053C280.642 98.5568 281.323 100.154 282.683 101.395C284.043 102.637 285.935 103.258 288.36 103.258C290.312 103.258 292.027 102.815 293.505 101.928C295.043 100.981 296.255 99.71 297.142 98.1133C298.029 96.5165 298.473 94.6833 298.473 92.6134V82.4121C298.473 79.4552 297.822 77.3263 296.521 76.0252C295.22 74.7242 293.032 74.0737 289.957 74.0737C288.242 74.0737 286.379 74.2807 284.368 74.6946C282.417 75.1086 280.347 75.8183 278.159 76.8236C277.035 77.3559 276.03 77.5037 275.143 77.2671C274.315 77.0306 273.664 76.5575 273.191 75.8478C272.718 75.079 272.481 74.2511 272.481 73.364C272.481 72.477 272.718 71.6195 273.191 70.7915C273.664 69.9045 274.463 69.254 275.586 68.84C278.307 67.7164 280.909 66.918 283.392 66.4449C285.935 65.9718 288.242 65.7352 290.312 65.7352C294.569 65.7352 298.059 66.3858 300.779 67.6868C303.558 68.9878 305.628 70.969 306.988 73.6302C308.349 76.2322 309.029 79.6031 309.029 83.7428V105.032C309.029 106.866 308.585 108.285 307.698 109.29C306.811 110.237 305.54 110.71 303.884 110.71C302.228 110.71 300.927 110.237 299.981 109.29C299.094 108.285 298.65 106.866 298.65 105.032V100.774H299.36C298.946 102.844 298.118 104.648 296.876 106.186C295.693 107.664 294.185 108.817 292.352 109.645C290.519 110.473 288.419 110.887 286.054 110.887ZM338.557 110.887C334.003 110.887 330.041 109.97 326.67 108.137C323.299 106.245 320.697 103.584 318.864 100.154C317.031 96.7235 316.114 92.7021 316.114 88.0894C316.114 84.6002 316.617 81.4955 317.622 78.7752C318.687 75.9957 320.195 73.6597 322.146 71.7673C324.098 69.8158 326.463 68.3373 329.243 67.332C332.022 66.2675 335.127 65.7352 338.557 65.7352C340.509 65.7352 342.608 66.0014 344.855 66.5336C347.162 67.0658 349.32 67.9529 351.331 69.1948C352.277 69.7862 352.898 70.4958 353.194 71.3238C353.489 72.1517 353.548 73.0092 353.371 73.8963C353.194 74.7242 352.809 75.4634 352.218 76.114C351.686 76.7053 351.006 77.0897 350.178 77.2671C349.35 77.3854 348.433 77.1784 347.428 76.6462C346.127 75.8774 344.796 75.3156 343.436 74.9608C342.076 74.5468 340.775 74.3398 339.533 74.3398C337.581 74.3398 335.866 74.6651 334.388 75.3156C332.909 75.907 331.638 76.794 330.573 77.9768C329.568 79.1004 328.799 80.5197 328.267 82.2347C327.735 83.9497 327.469 85.9309 327.469 88.1781C327.469 92.5543 328.504 96.0139 330.573 98.5568C332.702 101.041 335.689 102.282 339.533 102.282C340.775 102.282 342.046 102.105 343.347 101.75C344.707 101.395 346.068 100.834 347.428 100.065C348.433 99.5326 349.32 99.3552 350.089 99.5326C350.917 99.71 351.597 100.124 352.129 100.774C352.661 101.366 352.987 102.105 353.105 102.992C353.223 103.82 353.105 104.648 352.75 105.476C352.454 106.304 351.863 106.984 350.976 107.516C349.024 108.699 346.955 109.556 344.766 110.089C342.578 110.621 340.509 110.887 338.557 110.887ZM364.076 110.71C362.302 110.71 360.942 110.237 359.996 109.29C359.049 108.285 358.576 106.866 358.576 105.032V52.3405C358.576 50.5072 359.049 49.1175 359.996 48.1713C360.942 47.2251 362.302 46.752 364.076 46.752C365.85 46.752 367.21 47.2251 368.157 48.1713C369.162 49.1175 369.665 50.5072 369.665 52.3405V75.3156H368.423C369.724 72.1813 371.735 69.8158 374.455 68.219C377.234 66.5632 380.369 65.7352 383.858 65.7352C387.347 65.7352 390.215 66.3858 392.462 67.6868C394.71 68.9878 396.395 70.969 397.519 73.6302C398.642 76.2322 399.204 79.544 399.204 83.5653V105.032C399.204 106.866 398.731 108.285 397.785 109.29C396.839 110.237 395.478 110.71 393.704 110.71C391.93 110.71 390.54 110.237 389.535 109.29C388.589 108.285 388.116 106.866 388.116 105.032V84.0976C388.116 80.7267 387.465 78.2725 386.164 76.7349C384.922 75.1973 382.971 74.4285 380.31 74.4285C377.057 74.4285 374.455 75.4634 372.503 77.5333C370.611 79.544 369.665 82.2347 369.665 85.6056V105.032C369.665 108.817 367.802 110.71 364.076 110.71ZM437.388 110.71C435.732 110.71 434.46 110.237 433.573 109.29C432.686 108.344 432.243 107.043 432.243 105.387V52.0744C432.243 50.3594 432.716 49.0583 433.662 48.1713C434.608 47.2251 435.909 46.752 437.565 46.752C439.043 46.752 440.197 47.0476 441.025 47.639C441.912 48.1713 442.71 49.1175 443.42 50.4777L465.33 91.0167H462.492L484.402 50.4777C485.112 49.1175 485.881 48.1713 486.709 47.639C487.537 47.0476 488.69 46.752 490.168 46.752C491.824 46.752 493.096 47.2251 493.983 48.1713C494.87 49.0583 495.313 50.3594 495.313 52.0744V105.387C495.313 107.043 494.87 108.344 493.983 109.29C493.155 110.237 491.883 110.71 490.168 110.71C488.512 110.71 487.241 110.237 486.354 109.29C485.467 108.344 485.023 107.043 485.023 105.387V64.3159H486.975L468.346 98.2907C467.755 99.296 467.134 100.035 466.483 100.508C465.833 100.981 464.946 101.218 463.822 101.218C462.699 101.218 461.782 100.981 461.072 100.508C460.363 99.9761 459.742 99.2369 459.21 98.2907L440.404 64.2272H442.533V105.387C442.533 107.043 442.089 108.344 441.202 109.29C440.374 110.237 439.103 110.71 437.388 110.71Z" fill="#5225EE"/>
<path d="M511.664 104.905V70.6895" stroke="#5225EE" stroke-width="11.4052" stroke-linecap="round"/>
<circle cx="511.664" cy="52.9495" r="6.33621" fill="#00CE94"/>
<path d="M299.53 151.253C298.876 151.253 298.358 151.074 297.978 150.715C297.619 150.335 297.439 149.796 297.439 149.099V130.819C297.439 130.122 297.619 129.594 297.978 129.235C298.358 128.855 298.897 128.665 299.594 128.665H310.65C311.2 128.665 311.611 128.802 311.886 129.077C312.161 129.351 312.298 129.742 312.298 130.249C312.298 130.777 312.161 131.189 311.886 131.484C311.611 131.759 311.2 131.896 310.65 131.896H301.495V138.201H309.985C310.513 138.201 310.914 138.338 311.189 138.613C311.485 138.887 311.633 139.278 311.633 139.785C311.633 140.313 311.485 140.725 311.189 141.02C310.914 141.295 310.513 141.432 309.985 141.432H301.495V149.099C301.495 150.535 300.84 151.253 299.53 151.253ZM314.986 151.253C314.479 151.253 314.067 151.137 313.75 150.905C313.454 150.673 313.275 150.366 313.211 149.986C313.148 149.585 313.222 149.141 313.433 148.656L321.797 130.122C322.072 129.51 322.399 129.077 322.779 128.823C323.18 128.549 323.634 128.411 324.141 128.411C324.627 128.411 325.06 128.549 325.44 128.823C325.842 129.077 326.18 129.51 326.454 130.122L334.85 148.656C335.082 149.141 335.166 149.585 335.103 149.986C335.04 150.387 334.86 150.704 334.564 150.937C334.269 151.148 333.878 151.253 333.392 151.253C332.801 151.253 332.336 151.116 331.998 150.842C331.681 150.546 331.396 150.102 331.143 149.511L329.084 144.727L330.794 145.836H317.425L319.136 144.727L317.108 149.511C316.834 150.123 316.548 150.567 316.253 150.842C315.957 151.116 315.535 151.253 314.986 151.253ZM324.078 133.069L319.643 143.618L318.819 142.605H329.4L328.608 143.618L324.141 133.069H324.078ZM357.707 154.58C358.003 155.045 358.119 155.467 358.056 155.847C357.992 156.227 357.823 156.544 357.549 156.798C357.274 157.072 356.936 157.241 356.535 157.305C356.134 157.389 355.732 157.347 355.331 157.178C354.93 157.03 354.592 156.734 354.317 156.291L352.131 152.774C351.836 152.288 351.434 151.919 350.927 151.665C350.442 151.433 349.84 151.317 349.122 151.317L352.258 150.081C353.251 150.081 354.043 150.261 354.634 150.62C355.226 150.958 355.796 151.56 356.345 152.426L357.707 154.58ZM349.153 151.317C346.999 151.317 345.109 150.842 343.482 149.891C341.877 148.941 340.631 147.61 339.744 145.899C338.857 144.167 338.413 142.14 338.413 139.817C338.413 138.064 338.667 136.49 339.174 135.096C339.681 133.681 340.399 132.477 341.328 131.484C342.279 130.471 343.408 129.7 344.718 129.172C346.049 128.623 347.527 128.348 349.153 128.348C351.329 128.348 353.219 128.823 354.824 129.774C356.429 130.703 357.676 132.023 358.563 133.734C359.45 135.445 359.893 137.462 359.893 139.785C359.893 141.538 359.64 143.122 359.133 144.537C358.626 145.952 357.897 147.167 356.947 148.18C356.018 149.194 354.888 149.976 353.557 150.525C352.247 151.053 350.78 151.317 349.153 151.317ZM349.153 147.832C350.526 147.832 351.688 147.515 352.638 146.881C353.61 146.248 354.349 145.329 354.856 144.125C355.384 142.921 355.648 141.485 355.648 139.817C355.648 137.282 355.078 135.318 353.937 133.924C352.818 132.53 351.223 131.833 349.153 131.833C347.802 131.833 346.64 132.15 345.668 132.783C344.697 133.396 343.947 134.304 343.419 135.508C342.912 136.691 342.659 138.127 342.659 139.817C342.659 142.33 343.229 144.294 344.369 145.709C345.51 147.124 347.105 147.832 349.153 147.832ZM370.575 151.317C369.666 151.317 368.705 151.222 367.692 151.032C366.678 150.842 365.77 150.514 364.967 150.05C364.629 149.838 364.386 149.595 364.238 149.321C364.112 149.025 364.059 148.74 364.08 148.466C364.122 148.17 364.228 147.916 364.397 147.705C364.587 147.494 364.819 147.357 365.094 147.293C365.39 147.23 365.706 147.283 366.044 147.452C366.889 147.853 367.681 148.138 368.42 148.307C369.16 148.455 369.888 148.529 370.606 148.529C371.62 148.529 372.37 148.36 372.856 148.022C373.363 147.663 373.616 147.198 373.616 146.628C373.616 146.142 373.447 145.773 373.109 145.519C372.792 145.245 372.307 145.044 371.652 144.917L368.484 144.315C367.174 144.062 366.171 143.587 365.474 142.89C364.798 142.172 364.46 141.253 364.46 140.133C364.46 139.12 364.735 138.243 365.284 137.504C365.854 136.765 366.636 136.194 367.628 135.793C368.621 135.392 369.761 135.191 371.05 135.191C371.979 135.191 372.845 135.297 373.648 135.508C374.471 135.698 375.263 136.004 376.024 136.427C376.341 136.596 376.552 136.817 376.657 137.092C376.784 137.367 376.816 137.652 376.752 137.947C376.689 138.222 376.562 138.475 376.372 138.708C376.182 138.919 375.939 139.056 375.644 139.12C375.369 139.162 375.052 139.098 374.693 138.93C374.038 138.592 373.405 138.349 372.792 138.201C372.201 138.053 371.631 137.979 371.082 137.979C370.047 137.979 369.276 138.159 368.769 138.518C368.283 138.877 368.04 139.352 368.04 139.943C368.04 140.387 368.188 140.756 368.484 141.052C368.779 141.348 369.233 141.548 369.846 141.654L373.014 142.256C374.387 142.509 375.422 142.974 376.119 143.65C376.837 144.326 377.196 145.234 377.196 146.375C377.196 147.916 376.594 149.131 375.39 150.018C374.186 150.884 372.581 151.317 370.575 151.317Z" fill="#00CE94"/>
<path fill-rule="evenodd" clip-rule="evenodd" d="M86.0762 66.2539C90.0387 66.2539 93.251 69.5399 93.251 73.5933V121.119C93.251 132.011 101.509 139.648 113.751 139.648C125.992 139.648 134.25 132.011 134.25 121.119V73.5933C134.25 69.5399 137.462 66.2539 141.425 66.2539C145.387 66.2539 148.6 69.5399 148.6 73.5933V121.119C148.6 141.88 132.077 154.327 113.751 154.327C95.4239 154.327 78.9014 141.88 78.9014 121.119V73.5933C78.9014 69.5399 82.1136 66.2539 86.0762 66.2539Z" fill="#5225EE"/>
<circle cx="86.5043" cy="50.4145" r="9.50431" fill="#00CE94"/>
<circle cx="141.629" cy="50.4145" r="9.50431" fill="#00CE94"/>
</svg>

