<svg width="364" height="264" viewBox="0 0 364 264" fill="none" xmlns="http://www.w3.org/2000/svg">
<path d="M-96.2495 159.841C-90.8613 242.428 -49.3706 258.258 -24.1866 329.098C-9.83143 369.46 -14.9004 417.937 22.203 451.512C50.1121 476.759 88.0788 482.448 115.629 473.136C128.497 468.785 138.747 452.897 151.572 449.798C178.042 443.414 202.112 459.789 230.848 467.658C263.974 476.714 295.759 477.404 316.045 446.051C335.837 415.475 326.192 369.693 337.299 333.746C348.929 296.117 374.906 283.785 358.683 232.584C345.774 191.863 311.501 173.237 290.336 141.531C236.223 60.4998 225.31 -9.35611 131.896 2.10093C92.8179 6.89602 59.9777 29.8865 21.1383 30.7242C-47.9169 32.2464 -103.397 50.2755 -96.2495 159.841Z" fill="#00CE94"/>
</svg>
