<svg width="130" height="139" viewBox="0 0 130 139" fill="none" xmlns="http://www.w3.org/2000/svg">
    <path d="M25.4 2.23498C18.2044 6.14505 8.62381 11.5933 2.23214 16.459M2.23214 16.459C1.49551 17.0194 7.07838 20.2911 7.35155 20.4208C13.3404 23.2721 19.6212 25.2831 26.0822 27.2025M2.23214 16.459C44.7537 3.22419 85.3142 16.4866 97.1502 42.011C98.3233 44.5408 99.5971 47.2956 100.587 50.1637M100.587 50.1637C102.164 54.7312 103.021 59.5862 101.607 64.2775C100.301 68.607 96.6504 73.897 91.7609 75.3667C82.6269 78.1117 75.7684 69.138 79.3708 61.2646C82.5363 54.3458 93.0323 48.717 100.587 50.1637ZM100.587 50.1637C100.747 50.1942 100.905 50.2279 101.061 50.2647C138.87 59.1634 157.847 112.2 136.5 136.5" stroke="white" stroke-width="4" stroke-miterlimit="1.5" stroke-linecap="round" stroke-linejoin="round"/>
</svg>
