<svg width="726" height="230" viewBox="0 0 726 230" fill="none" xmlns="http://www.w3.org/2000/svg">
    <path d="M195.54 143.12C192.647 143.12 190.407 142.327 188.82 140.74C187.327 139.06 186.58 136.773 186.58 133.88V58.28H159.28C156.853 58.28 154.94 57.6267 153.54 56.32C152.233 54.92 151.58 53.0533 151.58 50.72C151.58 48.2933 152.233 46.4733 153.54 45.26C154.94 43.9533 156.853 43.3 159.28 43.3H231.8C234.227 43.3 236.093 43.9533 237.4 45.26C238.8 46.4733 239.5 48.2933 239.5 50.72C239.5 53.0533 238.8 54.92 237.4 56.32C236.093 57.6267 234.227 58.28 231.8 58.28H204.5V133.88C204.5 136.773 203.753 139.06 202.26 140.74C200.767 142.327 198.527 143.12 195.54 143.12ZM268.056 143.4C260.309 143.4 253.636 141.953 248.036 139.06C242.436 136.167 238.096 132.06 235.016 126.74C232.029 121.42 230.536 115.12 230.536 107.84C230.536 100.747 231.982 94.54 234.876 89.22C237.862 83.9 241.922 79.7467 247.056 76.76C252.282 73.68 258.209 72.14 264.836 72.14C269.689 72.14 274.029 72.9333 277.856 74.52C281.776 76.1067 285.089 78.3933 287.796 81.38C290.596 84.3667 292.696 88.0067 294.096 92.3C295.589 96.5 296.336 101.26 296.336 106.58C296.336 108.26 295.729 109.567 294.516 110.5C293.396 111.34 291.762 111.76 289.616 111.76H244.676V101.68H284.016L281.776 103.78C281.776 99.4867 281.122 95.8933 279.816 93C278.602 90.1067 276.782 87.9133 274.356 86.42C272.022 84.8333 269.082 84.04 265.536 84.04C261.616 84.04 258.256 84.9733 255.456 86.84C252.749 88.6133 250.649 91.18 249.156 94.54C247.756 97.8067 247.056 101.727 247.056 106.3V107.28C247.056 114.933 248.829 120.673 252.376 124.5C256.016 128.233 261.336 130.1 268.336 130.1C270.762 130.1 273.469 129.82 276.456 129.26C279.536 128.607 282.429 127.533 285.136 126.04C287.096 124.92 288.822 124.453 290.316 124.64C291.809 124.733 292.976 125.247 293.816 126.18C294.749 127.113 295.309 128.28 295.496 129.68C295.682 130.987 295.402 132.34 294.656 133.74C294.002 135.14 292.836 136.353 291.156 137.38C287.889 139.433 284.109 140.973 279.816 142C275.616 142.933 271.696 143.4 268.056 143.4ZM329.935 143.4C324.988 143.4 320.555 142.467 316.635 140.6C312.808 138.64 309.775 136.027 307.535 132.76C305.388 129.493 304.315 125.807 304.315 121.7C304.315 116.66 305.621 112.693 308.235 109.8C310.848 106.813 315.095 104.667 320.975 103.36C326.855 102.053 334.741 101.4 344.635 101.4H351.635V111.48H344.775C338.988 111.48 334.368 111.76 330.915 112.32C327.461 112.88 324.988 113.86 323.495 115.26C322.095 116.567 321.395 118.433 321.395 120.86C321.395 123.94 322.468 126.46 324.615 128.42C326.761 130.38 329.748 131.36 333.575 131.36C336.655 131.36 339.361 130.66 341.695 129.26C344.121 127.767 346.035 125.76 347.435 123.24C348.835 120.72 349.535 117.827 349.535 114.56V98.46C349.535 93.7933 348.508 90.4333 346.455 88.38C344.401 86.3267 340.948 85.3 336.095 85.3C333.388 85.3 330.448 85.6267 327.275 86.28C324.195 86.9333 320.928 88.0533 317.475 89.64C315.701 90.48 314.115 90.7133 312.715 90.34C311.408 89.9667 310.381 89.22 309.635 88.1C308.888 86.8867 308.515 85.58 308.515 84.18C308.515 82.78 308.888 81.4267 309.635 80.12C310.381 78.72 311.641 77.6933 313.415 77.04C317.708 75.2667 321.815 74.0067 325.735 73.26C329.748 72.5133 333.388 72.14 336.655 72.14C343.375 72.14 348.881 73.1667 353.175 75.22C357.561 77.2733 360.828 80.4 362.975 84.6C365.121 88.7067 366.195 94.0267 366.195 100.56V134.16C366.195 137.053 365.495 139.293 364.095 140.88C362.695 142.373 360.688 143.12 358.075 143.12C355.461 143.12 353.408 142.373 351.915 140.88C350.515 139.293 349.815 137.053 349.815 134.16V127.44H350.935C350.281 130.707 348.975 133.553 347.015 135.98C345.148 138.313 342.768 140.133 339.875 141.44C336.981 142.747 333.668 143.4 329.935 143.4ZM412.797 143.4C405.61 143.4 399.357 141.953 394.037 139.06C388.717 136.073 384.61 131.873 381.717 126.46C378.824 121.047 377.377 114.7 377.377 107.42C377.377 101.913 378.17 97.0133 379.757 92.72C381.437 88.3333 383.817 84.6467 386.897 81.66C389.977 78.58 393.71 76.2467 398.097 74.66C402.484 72.98 407.384 72.14 412.797 72.14C415.877 72.14 419.19 72.56 422.737 73.4C426.377 74.24 429.784 75.64 432.957 77.6C434.45 78.5333 435.43 79.6533 435.897 80.96C436.364 82.2667 436.457 83.62 436.177 85.02C435.897 86.3267 435.29 87.4933 434.357 88.52C433.517 89.4533 432.444 90.06 431.137 90.34C429.83 90.5267 428.384 90.2 426.797 89.36C424.744 88.1467 422.644 87.26 420.497 86.7C418.35 86.0467 416.297 85.72 414.337 85.72C411.257 85.72 408.55 86.2333 406.217 87.26C403.884 88.1933 401.877 89.5933 400.197 91.46C398.61 93.2333 397.397 95.4733 396.557 98.18C395.717 100.887 395.297 104.013 395.297 107.56C395.297 114.467 396.93 119.927 400.197 123.94C403.557 127.86 408.27 129.82 414.337 129.82C416.297 129.82 418.304 129.54 420.357 128.98C422.504 128.42 424.65 127.533 426.797 126.32C428.384 125.48 429.784 125.2 430.997 125.48C432.304 125.76 433.377 126.413 434.217 127.44C435.057 128.373 435.57 129.54 435.757 130.94C435.944 132.247 435.757 133.553 435.197 134.86C434.73 136.167 433.797 137.24 432.397 138.08C429.317 139.947 426.05 141.3 422.597 142.14C419.144 142.98 415.877 143.4 412.797 143.4ZM453.072 143.12C450.272 143.12 448.126 142.373 446.632 140.88C445.139 139.293 444.392 137.053 444.392 134.16V51C444.392 48.1067 445.139 45.9133 446.632 44.42C448.126 42.9267 450.272 42.18 453.072 42.18C455.872 42.18 458.019 42.9267 459.512 44.42C461.099 45.9133 461.892 48.1067 461.892 51V87.26H459.932C461.986 82.3133 465.159 78.58 469.452 76.06C473.839 73.4467 478.786 72.14 484.292 72.14C489.799 72.14 494.326 73.1667 497.872 75.22C501.419 77.2733 504.079 80.4 505.852 84.6C507.626 88.7067 508.512 93.9333 508.512 100.28V134.16C508.512 137.053 507.766 139.293 506.272 140.88C504.779 142.373 502.632 143.12 499.832 143.12C497.032 143.12 494.839 142.373 493.252 140.88C491.759 139.293 491.012 137.053 491.012 134.16V101.12C491.012 95.8 489.986 91.9267 487.932 89.5C485.972 87.0733 482.892 85.86 478.692 85.86C473.559 85.86 469.452 87.4933 466.372 90.76C463.386 93.9333 461.892 98.18 461.892 103.5V134.16C461.892 140.133 458.952 143.12 453.072 143.12ZM568.775 143.12C566.161 143.12 564.155 142.373 562.755 140.88C561.355 139.387 560.655 137.333 560.655 134.72V50.58C560.655 47.8733 561.401 45.82 562.895 44.42C564.388 42.9267 566.441 42.18 569.055 42.18C571.388 42.18 573.208 42.6467 574.515 43.58C575.915 44.42 577.175 45.9133 578.295 48.06L612.875 112.04H608.395L642.975 48.06C644.095 45.9133 645.308 44.42 646.615 43.58C647.921 42.6467 649.741 42.18 652.075 42.18C654.688 42.18 656.695 42.9267 658.095 44.42C659.495 45.82 660.195 47.8733 660.195 50.58V134.72C660.195 137.333 659.495 139.387 658.095 140.88C656.788 142.373 654.781 143.12 652.075 143.12C649.461 143.12 647.455 142.373 646.055 140.88C644.655 139.387 643.955 137.333 643.955 134.72V69.9H647.035L617.635 123.52C616.701 125.107 615.721 126.273 614.695 127.02C613.668 127.767 612.268 128.14 610.495 128.14C608.721 128.14 607.275 127.767 606.155 127.02C605.035 126.18 604.055 125.013 603.215 123.52L573.535 69.76H576.895V134.72C576.895 137.333 576.195 139.387 574.795 140.88C573.488 142.373 571.481 143.12 568.775 143.12Z" fill="#FDBA17"/>
    <path d="M686 134V80" stroke="#FDBA17" stroke-width="18" stroke-linecap="round"/>
    <circle cx="686" cy="52" r="10" fill="#00CE94"/>
    <path d="M167.55 212.4C166.517 212.4 165.717 212.117 165.15 211.55C164.617 210.95 164.35 210.133 164.35 209.1V182.1H154.6C153.733 182.1 153.05 181.867 152.55 181.4C152.083 180.9 151.85 180.233 151.85 179.4C151.85 178.533 152.083 177.883 152.55 177.45C153.05 176.983 153.733 176.75 154.6 176.75H180.5C181.367 176.75 182.033 176.983 182.5 177.45C183 177.883 183.25 178.533 183.25 179.4C183.25 180.233 183 180.9 182.5 181.4C182.033 181.867 181.367 182.1 180.5 182.1H170.75V209.1C170.75 210.133 170.483 210.95 169.95 211.55C169.417 212.117 168.617 212.4 167.55 212.4ZM194.139 212.4C193.139 212.4 192.372 212.133 191.839 211.6C191.306 211.033 191.039 210.233 191.039 209.2V179.5C191.039 178.467 191.306 177.683 191.839 177.15C192.372 176.617 193.139 176.35 194.139 176.35C195.139 176.35 195.906 176.617 196.439 177.15C197.006 177.683 197.289 178.467 197.289 179.5V192.45H196.589C197.322 190.683 198.456 189.35 199.989 188.45C201.556 187.517 203.322 187.05 205.289 187.05C207.256 187.05 208.872 187.417 210.139 188.15C211.406 188.883 212.356 190 212.989 191.5C213.622 192.967 213.939 194.833 213.939 197.1V209.2C213.939 210.233 213.672 211.033 213.139 211.6C212.606 212.133 211.839 212.4 210.839 212.4C209.839 212.4 209.056 212.133 208.489 211.6C207.956 211.033 207.689 210.233 207.689 209.2V197.4C207.689 195.5 207.322 194.117 206.589 193.25C205.889 192.383 204.789 191.95 203.289 191.95C201.456 191.95 199.989 192.533 198.889 193.7C197.822 194.833 197.289 196.35 197.289 198.25V209.2C197.289 211.333 196.239 212.4 194.139 212.4ZM234.337 212.5C231.57 212.5 229.187 211.983 227.187 210.95C225.187 209.917 223.637 208.45 222.537 206.55C221.47 204.65 220.937 202.4 220.937 199.8C220.937 197.267 221.454 195.05 222.487 193.15C223.554 191.25 225.004 189.767 226.837 188.7C228.704 187.6 230.82 187.05 233.187 187.05C234.92 187.05 236.47 187.333 237.837 187.9C239.237 188.467 240.42 189.283 241.387 190.35C242.387 191.417 243.137 192.717 243.637 194.25C244.17 195.75 244.437 197.45 244.437 199.35C244.437 199.95 244.22 200.417 243.787 200.75C243.387 201.05 242.804 201.2 242.037 201.2H225.987V197.6H240.037L239.237 198.35C239.237 196.817 239.004 195.533 238.537 194.5C238.104 193.467 237.454 192.683 236.587 192.15C235.754 191.583 234.704 191.3 233.437 191.3C232.037 191.3 230.837 191.633 229.837 192.3C228.87 192.933 228.12 193.85 227.587 195.05C227.087 196.217 226.837 197.617 226.837 199.25V199.6C226.837 202.333 227.47 204.383 228.737 205.75C230.037 207.083 231.937 207.75 234.437 207.75C235.304 207.75 236.27 207.65 237.337 207.45C238.437 207.217 239.47 206.833 240.437 206.3C241.137 205.9 241.754 205.733 242.287 205.8C242.82 205.833 243.237 206.017 243.537 206.35C243.87 206.683 244.07 207.1 244.137 207.6C244.204 208.067 244.104 208.55 243.837 209.05C243.604 209.55 243.187 209.983 242.587 210.35C241.42 211.083 240.07 211.633 238.537 212C237.037 212.333 235.637 212.5 234.337 212.5ZM270.861 212.4C269.828 212.4 269.011 212.117 268.411 211.55C267.844 210.95 267.561 210.1 267.561 209V180.15C267.561 179.05 267.844 178.217 268.411 177.65C269.011 177.05 269.861 176.75 270.961 176.75H288.411C289.278 176.75 289.928 176.967 290.361 177.4C290.794 177.833 291.011 178.45 291.011 179.25C291.011 180.083 290.794 180.733 290.361 181.2C289.928 181.633 289.278 181.85 288.411 181.85H273.961V191.8H287.361C288.194 191.8 288.828 192.017 289.261 192.45C289.728 192.883 289.961 193.5 289.961 194.3C289.961 195.133 289.728 195.783 289.261 196.25C288.828 196.683 288.194 196.9 287.361 196.9H273.961V209C273.961 211.267 272.928 212.4 270.861 212.4ZM305.252 212.5C303.219 212.5 301.536 212.133 300.202 211.4C298.869 210.633 297.869 209.5 297.202 208C296.569 206.5 296.252 204.633 296.252 202.4V190.3C296.252 189.233 296.519 188.45 297.052 187.95C297.586 187.417 298.352 187.15 299.352 187.15C300.352 187.15 301.119 187.417 301.652 187.95C302.219 188.45 302.502 189.233 302.502 190.3V202.5C302.502 204.233 302.852 205.517 303.552 206.35C304.252 207.183 305.369 207.6 306.902 207.6C308.569 207.6 309.936 207.033 311.002 205.9C312.069 204.733 312.602 203.2 312.602 201.3V190.3C312.602 189.233 312.869 188.45 313.402 187.95C313.936 187.417 314.702 187.15 315.702 187.15C316.702 187.15 317.469 187.417 318.002 187.95C318.569 188.45 318.852 189.233 318.852 190.3V209.2C318.852 211.333 317.836 212.4 315.802 212.4C314.836 212.4 314.086 212.133 313.552 211.6C313.019 211.033 312.752 210.233 312.752 209.2V205.4L313.452 206.9C312.752 208.7 311.686 210.083 310.252 211.05C308.852 212.017 307.186 212.5 305.252 212.5ZM338.557 212.5C336.391 212.5 334.574 212.133 333.107 211.4C331.674 210.667 330.607 209.6 329.907 208.2C329.207 206.767 328.857 205 328.857 202.9V192.25H326.257C325.457 192.25 324.841 192.05 324.407 191.65C323.974 191.217 323.757 190.633 323.757 189.9C323.757 189.133 323.974 188.55 324.407 188.15C324.841 187.75 325.457 187.55 326.257 187.55H328.857V183C328.857 181.967 329.124 181.183 329.657 180.65C330.224 180.117 331.007 179.85 332.007 179.85C333.007 179.85 333.774 180.117 334.307 180.65C334.841 181.183 335.107 181.967 335.107 183V187.55H340.407C341.207 187.55 341.824 187.75 342.257 188.15C342.691 188.55 342.907 189.133 342.907 189.9C342.907 190.633 342.691 191.217 342.257 191.65C341.824 192.05 341.207 192.25 340.407 192.25H335.107V202.55C335.107 204.15 335.457 205.35 336.157 206.15C336.857 206.95 337.991 207.35 339.557 207.35C340.124 207.35 340.624 207.3 341.057 207.2C341.491 207.1 341.874 207.033 342.207 207C342.607 206.967 342.941 207.1 343.207 207.4C343.474 207.667 343.607 208.233 343.607 209.1C343.607 209.767 343.491 210.367 343.257 210.9C343.057 211.4 342.674 211.75 342.107 211.95C341.674 212.083 341.107 212.2 340.407 212.3C339.707 212.433 339.091 212.5 338.557 212.5ZM357.397 212.5C355.364 212.5 353.68 212.133 352.347 211.4C351.014 210.633 350.014 209.5 349.347 208C348.714 206.5 348.397 204.633 348.397 202.4V190.3C348.397 189.233 348.664 188.45 349.197 187.95C349.73 187.417 350.497 187.15 351.497 187.15C352.497 187.15 353.264 187.417 353.797 187.95C354.364 188.45 354.647 189.233 354.647 190.3V202.5C354.647 204.233 354.997 205.517 355.697 206.35C356.397 207.183 357.514 207.6 359.047 207.6C360.714 207.6 362.08 207.033 363.147 205.9C364.214 204.733 364.747 203.2 364.747 201.3V190.3C364.747 189.233 365.014 188.45 365.547 187.95C366.08 187.417 366.847 187.15 367.847 187.15C368.847 187.15 369.614 187.417 370.147 187.95C370.714 188.45 370.997 189.233 370.997 190.3V209.2C370.997 211.333 369.98 212.4 367.947 212.4C366.98 212.4 366.23 212.133 365.697 211.6C365.164 211.033 364.897 210.233 364.897 209.2V205.4L365.597 206.9C364.897 208.7 363.83 210.083 362.397 211.05C360.997 212.017 359.33 212.5 357.397 212.5ZM382.702 212.4C381.669 212.4 380.869 212.133 380.302 211.6C379.769 211.033 379.502 210.233 379.502 209.2V190.3C379.502 189.267 379.769 188.483 380.302 187.95C380.835 187.417 381.585 187.15 382.552 187.15C383.519 187.15 384.269 187.417 384.802 187.95C385.335 188.483 385.602 189.267 385.602 190.3V193.45H385.102C385.569 191.45 386.485 189.933 387.852 188.9C389.219 187.867 391.035 187.25 393.302 187.05C394.002 186.983 394.552 187.167 394.952 187.6C395.385 188 395.635 188.633 395.702 189.5C395.769 190.333 395.569 191.017 395.102 191.55C394.669 192.05 394.002 192.35 393.102 192.45L392.002 192.55C389.969 192.75 388.435 193.383 387.402 194.45C386.369 195.483 385.852 196.95 385.852 198.85V209.2C385.852 210.233 385.585 211.033 385.052 211.6C384.519 212.133 383.735 212.4 382.702 212.4ZM412.741 212.5C409.975 212.5 407.591 211.983 405.591 210.95C403.591 209.917 402.041 208.45 400.941 206.55C399.875 204.65 399.341 202.4 399.341 199.8C399.341 197.267 399.858 195.05 400.891 193.15C401.958 191.25 403.408 189.767 405.241 188.7C407.108 187.6 409.225 187.05 411.591 187.05C413.325 187.05 414.875 187.333 416.241 187.9C417.641 188.467 418.825 189.283 419.791 190.35C420.791 191.417 421.541 192.717 422.041 194.25C422.575 195.75 422.841 197.45 422.841 199.35C422.841 199.95 422.625 200.417 422.191 200.75C421.791 201.05 421.208 201.2 420.441 201.2H404.391V197.6H418.441L417.641 198.35C417.641 196.817 417.408 195.533 416.941 194.5C416.508 193.467 415.858 192.683 414.991 192.15C414.158 191.583 413.108 191.3 411.841 191.3C410.441 191.3 409.241 191.633 408.241 192.3C407.275 192.933 406.525 193.85 405.991 195.05C405.491 196.217 405.241 197.617 405.241 199.25V199.6C405.241 202.333 405.875 204.383 407.141 205.75C408.441 207.083 410.341 207.75 412.841 207.75C413.708 207.75 414.675 207.65 415.741 207.45C416.841 207.217 417.875 206.833 418.841 206.3C419.541 205.9 420.158 205.733 420.691 205.8C421.225 205.833 421.641 206.017 421.941 206.35C422.275 206.683 422.475 207.1 422.541 207.6C422.608 208.067 422.508 208.55 422.241 209.05C422.008 209.55 421.591 209.983 420.991 210.35C419.825 211.083 418.475 211.633 416.941 212C415.441 212.333 414.041 212.5 412.741 212.5ZM456.515 212.5C453.982 212.5 451.782 211.983 449.915 210.95C448.049 209.917 446.599 208.45 445.565 206.55C444.532 204.617 444.015 202.35 444.015 199.75C444.015 197.783 444.299 196.033 444.865 194.5C445.465 192.933 446.315 191.6 447.415 190.5C448.515 189.367 449.832 188.517 451.365 187.95C452.899 187.35 454.615 187.05 456.515 187.05C459.049 187.05 461.249 187.567 463.115 188.6C464.982 189.633 466.432 191.1 467.465 193C468.499 194.9 469.015 197.15 469.015 199.75C469.015 201.717 468.715 203.483 468.115 205.05C467.549 206.617 466.715 207.967 465.615 209.1C464.515 210.2 463.199 211.05 461.665 211.65C460.132 212.217 458.415 212.5 456.515 212.5ZM456.515 207.75C457.749 207.75 458.832 207.45 459.765 206.85C460.699 206.25 461.415 205.367 461.915 204.2C462.449 203 462.715 201.517 462.715 199.75C462.715 197.083 462.149 195.1 461.015 193.8C459.882 192.467 458.382 191.8 456.515 191.8C455.282 191.8 454.199 192.1 453.265 192.7C452.332 193.267 451.599 194.15 451.065 195.35C450.565 196.517 450.315 197.983 450.315 199.75C450.315 202.383 450.882 204.383 452.015 205.75C453.149 207.083 454.649 207.75 456.515 207.75ZM480.73 212.4C479.73 212.4 478.946 212.133 478.38 211.6C477.846 211.033 477.58 210.233 477.58 209.2V192.25H475.28C474.48 192.25 473.863 192.05 473.43 191.65C472.996 191.217 472.78 190.633 472.78 189.9C472.78 189.133 472.996 188.55 473.43 188.15C473.863 187.75 474.48 187.55 475.28 187.55H479.38L477.58 189.2V187.5C477.58 184.067 478.446 181.5 480.18 179.8C481.913 178.067 484.413 177.05 487.68 176.75L489.38 176.6C490.046 176.533 490.58 176.65 490.98 176.95C491.38 177.217 491.646 177.583 491.78 178.05C491.913 178.483 491.93 178.933 491.83 179.4C491.73 179.867 491.513 180.283 491.18 180.65C490.88 180.983 490.48 181.167 489.98 181.2L489.28 181.25C487.38 181.383 485.996 181.867 485.13 182.7C484.263 183.533 483.83 184.8 483.83 186.5V188.35L483.03 187.55H488.08C488.88 187.55 489.496 187.75 489.93 188.15C490.363 188.55 490.58 189.133 490.58 189.9C490.58 190.633 490.363 191.217 489.93 191.65C489.496 192.05 488.88 192.25 488.08 192.25H483.83V209.2C483.83 211.333 482.796 212.4 480.73 212.4ZM515.567 212C514.533 212 513.733 211.717 513.167 211.15C512.6 210.55 512.317 209.733 512.317 208.7V179.85C512.317 178.783 512.583 177.983 513.117 177.45C513.683 176.883 514.483 176.6 515.517 176.6C516.55 176.6 517.333 176.883 517.867 177.45C518.433 177.983 518.717 178.783 518.717 179.85V206.55H533.217C534.117 206.55 534.8 206.783 535.267 207.25C535.767 207.717 536.017 208.383 536.017 209.25C536.017 210.117 535.767 210.8 535.267 211.3C534.8 211.767 534.117 212 533.217 212H515.567ZM553.599 212.5C550.832 212.5 548.449 211.983 546.449 210.95C544.449 209.917 542.899 208.45 541.799 206.55C540.732 204.65 540.199 202.4 540.199 199.8C540.199 197.267 540.715 195.05 541.749 193.15C542.815 191.25 544.265 189.767 546.099 188.7C547.965 187.6 550.082 187.05 552.449 187.05C554.182 187.05 555.732 187.333 557.099 187.9C558.499 188.467 559.682 189.283 560.649 190.35C561.649 191.417 562.399 192.717 562.899 194.25C563.432 195.75 563.699 197.45 563.699 199.35C563.699 199.95 563.482 200.417 563.049 200.75C562.649 201.05 562.065 201.2 561.299 201.2H545.249V197.6H559.299L558.499 198.35C558.499 196.817 558.265 195.533 557.799 194.5C557.365 193.467 556.715 192.683 555.849 192.15C555.015 191.583 553.965 191.3 552.699 191.3C551.299 191.3 550.099 191.633 549.099 192.3C548.132 192.933 547.382 193.85 546.849 195.05C546.349 196.217 546.099 197.617 546.099 199.25V199.6C546.099 202.333 546.732 204.383 547.999 205.75C549.299 207.083 551.199 207.75 553.699 207.75C554.565 207.75 555.532 207.65 556.599 207.45C557.699 207.217 558.732 206.833 559.699 206.3C560.399 205.9 561.015 205.733 561.549 205.8C562.082 205.833 562.499 206.017 562.799 206.35C563.132 206.683 563.332 207.1 563.399 207.6C563.465 208.067 563.365 208.55 563.099 209.05C562.865 209.55 562.449 209.983 561.849 210.35C560.682 211.083 559.332 211.633 557.799 212C556.299 212.333 554.899 212.5 553.599 212.5ZM578.698 212.5C576.932 212.5 575.348 212.167 573.948 211.5C572.582 210.8 571.498 209.867 570.698 208.7C569.932 207.533 569.548 206.217 569.548 204.75C569.548 202.95 570.015 201.533 570.948 200.5C571.882 199.433 573.398 198.667 575.498 198.2C577.598 197.733 580.415 197.5 583.948 197.5H586.448V201.1H583.998C581.932 201.1 580.282 201.2 579.048 201.4C577.815 201.6 576.932 201.95 576.398 202.45C575.898 202.917 575.648 203.583 575.648 204.45C575.648 205.55 576.032 206.45 576.798 207.15C577.565 207.85 578.632 208.2 579.998 208.2C581.098 208.2 582.065 207.95 582.898 207.45C583.765 206.917 584.448 206.2 584.948 205.3C585.448 204.4 585.698 203.367 585.698 202.2V196.45C585.698 194.783 585.332 193.583 584.598 192.85C583.865 192.117 582.632 191.75 580.898 191.75C579.932 191.75 578.882 191.867 577.748 192.1C576.648 192.333 575.482 192.733 574.248 193.3C573.615 193.6 573.048 193.683 572.548 193.55C572.082 193.417 571.715 193.15 571.448 192.75C571.182 192.317 571.048 191.85 571.048 191.35C571.048 190.85 571.182 190.367 571.448 189.9C571.715 189.4 572.165 189.033 572.798 188.8C574.332 188.167 575.798 187.717 577.198 187.45C578.632 187.183 579.932 187.05 581.098 187.05C583.498 187.05 585.465 187.417 586.998 188.15C588.565 188.883 589.732 190 590.498 191.5C591.265 192.967 591.648 194.867 591.648 197.2V209.2C591.648 210.233 591.398 211.033 590.898 211.6C590.398 212.133 589.682 212.4 588.748 212.4C587.815 212.4 587.082 212.133 586.548 211.6C586.048 211.033 585.798 210.233 585.798 209.2V206.8H586.198C585.965 207.967 585.498 208.983 584.798 209.85C584.132 210.683 583.282 211.333 582.248 211.8C581.215 212.267 580.032 212.5 578.698 212.5ZM603.192 212.4C602.159 212.4 601.359 212.133 600.792 211.6C600.259 211.033 599.992 210.233 599.992 209.2V190.3C599.992 189.267 600.259 188.483 600.792 187.95C601.326 187.417 602.076 187.15 603.042 187.15C604.009 187.15 604.759 187.417 605.292 187.95C605.826 188.483 606.092 189.267 606.092 190.3V193.45H605.592C606.059 191.45 606.976 189.933 608.342 188.9C609.709 187.867 611.526 187.25 613.792 187.05C614.492 186.983 615.042 187.167 615.442 187.6C615.876 188 616.126 188.633 616.192 189.5C616.259 190.333 616.059 191.017 615.592 191.55C615.159 192.05 614.492 192.35 613.592 192.45L612.492 192.55C610.459 192.75 608.926 193.383 607.892 194.45C606.859 195.483 606.342 196.95 606.342 198.85V209.2C606.342 210.233 606.076 211.033 605.542 211.6C605.009 212.133 604.226 212.4 603.192 212.4ZM624.672 212.4C623.672 212.4 622.906 212.133 622.372 211.6C621.839 211.033 621.572 210.233 621.572 209.2V190.3C621.572 189.267 621.839 188.483 622.372 187.95C622.906 187.417 623.656 187.15 624.622 187.15C625.589 187.15 626.339 187.417 626.872 187.95C627.406 188.483 627.672 189.267 627.672 190.3V193.7L627.122 192.45C627.856 190.683 628.989 189.35 630.522 188.45C632.089 187.517 633.856 187.05 635.822 187.05C637.789 187.05 639.406 187.417 640.672 188.15C641.939 188.883 642.889 190 643.522 191.5C644.156 192.967 644.472 194.833 644.472 197.1V209.2C644.472 210.233 644.206 211.033 643.672 211.6C643.139 212.133 642.372 212.4 641.372 212.4C640.372 212.4 639.589 212.133 639.022 211.6C638.489 211.033 638.222 210.233 638.222 209.2V197.4C638.222 195.5 637.856 194.117 637.122 193.25C636.422 192.383 635.322 191.95 633.822 191.95C631.989 191.95 630.522 192.533 629.422 193.7C628.356 194.833 627.822 196.35 627.822 198.25V209.2C627.822 211.333 626.772 212.4 624.672 212.4ZM655.92 212.35C654.92 212.35 654.154 212.05 653.62 211.45C653.087 210.85 652.82 210.017 652.82 208.95V190.6C652.82 189.5 653.087 188.667 653.62 188.1C654.154 187.5 654.92 187.2 655.92 187.2C656.92 187.2 657.687 187.5 658.22 188.1C658.787 188.667 659.07 189.5 659.07 190.6V208.95C659.07 210.017 658.804 210.85 658.27 211.45C657.737 212.05 656.954 212.35 655.92 212.35ZM655.92 182.55C654.754 182.55 653.837 182.267 653.17 181.7C652.537 181.1 652.22 180.283 652.22 179.25C652.22 178.183 652.537 177.367 653.17 176.8C653.837 176.233 654.754 175.95 655.92 175.95C657.12 175.95 658.037 176.233 658.67 176.8C659.304 177.367 659.62 178.183 659.62 179.25C659.62 180.283 659.304 181.1 658.67 181.7C658.037 182.267 657.12 182.55 655.92 182.55ZM670.664 212.4C669.664 212.4 668.898 212.133 668.364 211.6C667.831 211.033 667.564 210.233 667.564 209.2V190.3C667.564 189.267 667.831 188.483 668.364 187.95C668.898 187.417 669.648 187.15 670.614 187.15C671.581 187.15 672.331 187.417 672.864 187.95C673.398 188.483 673.664 189.267 673.664 190.3V193.7L673.114 192.45C673.848 190.683 674.981 189.35 676.514 188.45C678.081 187.517 679.848 187.05 681.814 187.05C683.781 187.05 685.398 187.417 686.664 188.15C687.931 188.883 688.881 190 689.514 191.5C690.148 192.967 690.464 194.833 690.464 197.1V209.2C690.464 210.233 690.198 211.033 689.664 211.6C689.131 212.133 688.364 212.4 687.364 212.4C686.364 212.4 685.581 212.133 685.014 211.6C684.481 211.033 684.214 210.233 684.214 209.2V197.4C684.214 195.5 683.848 194.117 683.114 193.25C682.414 192.383 681.314 191.95 679.814 191.95C677.981 191.95 676.514 192.533 675.414 193.7C674.348 194.833 673.814 196.35 673.814 198.25V209.2C673.814 211.333 672.764 212.4 670.664 212.4ZM710.213 221.5C708.413 221.5 706.663 221.333 704.963 221C703.296 220.667 701.779 220.15 700.413 219.45C699.779 219.117 699.346 218.717 699.113 218.25C698.913 217.783 698.846 217.3 698.913 216.8C699.013 216.333 699.213 215.917 699.513 215.55C699.846 215.183 700.246 214.933 700.713 214.8C701.179 214.667 701.663 214.733 702.162 215C703.629 215.733 705.013 216.2 706.313 216.4C707.646 216.633 708.779 216.75 709.713 216.75C711.946 216.75 713.613 216.2 714.713 215.1C715.846 214.033 716.413 212.433 716.413 210.3V205.8H716.863C716.363 207.5 715.313 208.867 713.713 209.9C712.146 210.9 710.363 211.4 708.363 211.4C706.163 211.4 704.246 210.9 702.613 209.9C700.979 208.867 699.713 207.433 698.813 205.6C697.913 203.767 697.463 201.633 697.463 199.2C697.463 197.367 697.713 195.717 698.213 194.25C698.746 192.75 699.479 191.467 700.413 190.4C701.379 189.333 702.529 188.517 703.863 187.95C705.229 187.35 706.729 187.05 708.363 187.05C710.429 187.05 712.229 187.567 713.763 188.6C715.329 189.6 716.346 190.933 716.813 192.6L716.313 193.85V190.3C716.313 189.267 716.579 188.483 717.113 187.95C717.679 187.417 718.446 187.15 719.413 187.15C720.413 187.15 721.179 187.417 721.713 187.95C722.246 188.483 722.513 189.267 722.513 190.3V209.55C722.513 213.517 721.463 216.5 719.363 218.5C717.263 220.5 714.213 221.5 710.213 221.5ZM710.063 206.65C711.363 206.65 712.479 206.35 713.413 205.75C714.346 205.15 715.063 204.3 715.563 203.2C716.096 202.067 716.363 200.733 716.363 199.2C716.363 196.9 715.796 195.1 714.663 193.8C713.529 192.467 711.996 191.8 710.063 191.8C708.763 191.8 707.646 192.1 706.713 192.7C705.779 193.3 705.046 194.15 704.513 195.25C704.013 196.35 703.763 197.667 703.763 199.2C703.763 201.5 704.329 203.317 705.463 204.65C706.596 205.983 708.129 206.65 710.063 206.65Z" fill="#00CE94"/>
    <path fill-rule="evenodd" clip-rule="evenodd" d="M14.3235 73C20.5773 73 25.6471 78.186 25.6471 84.5833V159.59C25.6471 176.78 38.68 188.833 58 188.833C77.32 188.833 90.3529 176.78 90.3529 159.59V84.5833C90.3529 78.186 95.4227 73 101.676 73C107.93 73 113 78.186 113 84.5833V159.59C113 192.355 86.9237 212 58 212C29.0763 212 3 192.355 3 159.59V84.5833C3 78.186 8.06972 73 14.3235 73Z" fill="#FDBA17"/>
    <circle cx="15" cy="48" r="15" fill="#00CE94"/>
    <circle cx="102" cy="48" r="15" fill="#00CE94"/>
</svg>
