<svg width="167" height="107" viewBox="0 0 167 107" fill="none" xmlns="http://www.w3.org/2000/svg">
    <path d="M43.814 72.1877L42.3963 74.8488L43.814 72.1877ZM83.5299 72.2389L86.3482 71.1975L83.5299 72.2389ZM1.49853 89.2304C0.364844 88.0328 0.42156 86.1299 1.62522 84.9801C2.82889 83.8303 4.7237 83.8691 5.8574 85.0667L1.49853 89.2304ZM31.5468 101.95L30.8554 104.882L30.6623 104.837L30.477 104.768L31.5468 101.95ZM170.207 3.17936C156.474 34.8025 140.952 61.3622 120.556 75.6922C110.273 82.9162 98.7579 87.0301 85.7083 87.1239C72.7001 87.2173 58.3672 83.316 42.3963 74.8488L45.2316 69.5265C60.5946 77.6713 73.9566 81.1965 85.7227 81.1119C97.4473 81.0277 107.786 77.359 117.154 70.7771C136.059 57.495 151.03 32.3489 164.722 0.820641L170.207 3.17936ZM42.3963 74.8488C33.5227 70.1444 29.6959 63.217 30.3507 56.2122C30.9834 49.4439 35.7444 43.485 42.1571 40.4125C48.6719 37.2911 57.0288 37.0459 65.149 41.7146C73.2169 46.3532 80.7862 55.6735 86.3482 71.1975L80.7116 73.2803C75.4484 58.5903 68.5979 50.654 62.1363 46.9389C55.7268 43.2538 49.4442 43.5578 44.6938 45.8339C39.8413 48.1589 36.7116 52.4459 36.3123 56.7173C35.9352 60.7522 37.9352 65.6582 45.2316 69.5265L42.3963 74.8488ZM86.3482 71.1975C88.4632 77.1006 88.1405 82.8354 85.784 87.9175C83.4536 92.9437 79.2362 97.123 73.8828 100.235C63.1992 106.445 47.5404 108.698 30.8554 104.882L32.2382 99.019C47.7539 102.568 61.8036 100.338 70.9198 95.0391C75.4664 92.3962 78.6718 89.0636 80.3599 85.423C82.022 81.8383 82.3136 77.7514 80.7116 73.2803L86.3482 71.1975ZM30.477 104.768C15.0971 99.0079 6.32904 94.3332 1.49853 89.2304L5.8574 85.0667C9.65324 89.0765 17.2214 93.3667 32.6166 99.1325L30.477 104.768Z" fill="white"/>
</svg>
