<svg width="624" height="185" viewBox="0 0 624 185" fill="none" xmlns="http://www.w3.org/2000/svg">
<rect x="0.5" width="623" height="185" rx="92.5" fill="white"/>
<path d="M201.398 110.71C199.565 110.71 198.146 110.207 197.14 109.202C196.194 108.137 195.721 106.688 195.721 104.855V56.9533H178.423C176.886 56.9533 175.673 56.5393 174.786 55.7114C173.958 54.8243 173.544 53.6415 173.544 52.1631C173.544 50.6255 173.958 49.4723 174.786 48.7035C175.673 47.8756 176.886 47.4616 178.423 47.4616H224.373C225.911 47.4616 227.094 47.8756 227.922 48.7035C228.809 49.4723 229.252 50.6255 229.252 52.1631C229.252 53.6415 228.809 54.8243 227.922 55.7114C227.094 56.5393 225.911 56.9533 224.373 56.9533H207.076V104.855C207.076 106.688 206.603 108.137 205.656 109.202C204.71 110.207 203.291 110.71 201.398 110.71ZM247.346 110.887C242.437 110.887 238.209 109.97 234.661 108.137C231.112 106.304 228.363 103.702 226.411 100.331C224.519 96.9601 223.572 92.9683 223.572 88.3555C223.572 83.861 224.489 79.9284 226.322 76.5575C228.215 73.1866 230.787 70.555 234.04 68.6626C237.352 66.711 241.107 65.7352 245.306 65.7352C248.381 65.7352 251.131 66.2379 253.555 67.2433C256.039 68.2486 258.138 69.6975 259.853 71.5899C261.628 73.4823 262.958 75.7887 263.845 78.509C264.792 81.1702 265.265 84.1863 265.265 87.5571C265.265 88.6216 264.88 89.4496 264.111 90.0409C263.402 90.5732 262.367 90.8393 261.007 90.8393H232.532V84.4524H257.458L256.039 85.783C256.039 83.0627 255.625 80.7859 254.797 78.9526C254.028 77.1193 252.875 75.7296 251.338 74.7833C249.859 73.778 247.996 73.2753 245.749 73.2753C243.265 73.2753 241.136 73.8667 239.362 75.0495C237.647 76.1731 236.317 77.7994 235.37 79.9284C234.483 81.9982 234.04 84.482 234.04 87.3797V88.0007C234.04 92.85 235.163 96.487 237.411 98.9116C239.717 101.277 243.088 102.46 247.523 102.46C249.061 102.46 250.776 102.282 252.668 101.928C254.62 101.514 256.453 100.834 258.168 99.8874C259.41 99.1778 260.504 98.8821 261.45 99.0003C262.396 99.0595 263.136 99.3847 263.668 99.9761C264.259 100.567 264.614 101.307 264.732 102.194C264.851 103.022 264.673 103.879 264.2 104.766C263.786 105.653 263.047 106.422 261.982 107.073C259.913 108.374 257.518 109.349 254.797 110C252.136 110.591 249.652 110.887 247.346 110.887ZM286.554 110.887C283.419 110.887 280.61 110.296 278.126 109.113C275.702 107.871 273.78 106.215 272.36 104.145C271 102.076 270.32 99.7396 270.32 97.1375C270.32 93.944 271.148 91.4307 272.804 89.5974C274.46 87.705 277.151 86.3448 280.876 85.5169C284.602 84.689 289.599 84.275 295.868 84.275H300.303V90.6619H295.957C292.29 90.6619 289.363 90.8393 287.175 91.1941C284.986 91.549 283.419 92.1699 282.473 93.057C281.586 93.8849 281.142 95.0677 281.142 96.6053C281.142 98.5568 281.823 100.154 283.183 101.395C284.543 102.637 286.435 103.258 288.86 103.258C290.812 103.258 292.527 102.815 294.005 101.928C295.543 100.981 296.755 99.71 297.642 98.1133C298.529 96.5165 298.973 94.6833 298.973 92.6134V82.4121C298.973 79.4552 298.322 77.3263 297.021 76.0252C295.72 74.7242 293.532 74.0737 290.457 74.0737C288.742 74.0737 286.879 74.2807 284.868 74.6946C282.917 75.1086 280.847 75.8183 278.659 76.8236C277.535 77.3559 276.53 77.5037 275.643 77.2671C274.815 77.0306 274.164 76.5575 273.691 75.8478C273.218 75.079 272.981 74.2511 272.981 73.364C272.981 72.477 273.218 71.6195 273.691 70.7915C274.164 69.9045 274.963 69.254 276.086 68.84C278.807 67.7164 281.409 66.918 283.892 66.4449C286.435 65.9718 288.742 65.7352 290.812 65.7352C295.069 65.7352 298.559 66.3858 301.279 67.6868C304.058 68.9878 306.128 70.969 307.488 73.6302C308.849 76.2322 309.529 79.6031 309.529 83.7428V105.032C309.529 106.866 309.085 108.285 308.198 109.29C307.311 110.237 306.04 110.71 304.384 110.71C302.728 110.71 301.427 110.237 300.481 109.29C299.594 108.285 299.15 106.866 299.15 105.032V100.774H299.86C299.446 102.844 298.618 104.648 297.376 106.186C296.193 107.664 294.685 108.817 292.852 109.645C291.019 110.473 288.919 110.887 286.554 110.887ZM339.057 110.887C334.503 110.887 330.541 109.97 327.17 108.137C323.799 106.245 321.197 103.584 319.364 100.154C317.531 96.7235 316.614 92.7021 316.614 88.0894C316.614 84.6002 317.117 81.4955 318.122 78.7752C319.187 75.9957 320.695 73.6597 322.646 71.7673C324.598 69.8158 326.963 68.3373 329.743 67.332C332.522 66.2675 335.627 65.7352 339.057 65.7352C341.009 65.7352 343.108 66.0014 345.355 66.5336C347.662 67.0658 349.82 67.9529 351.831 69.1948C352.777 69.7862 353.398 70.4958 353.694 71.3238C353.989 72.1517 354.048 73.0092 353.871 73.8963C353.694 74.7242 353.309 75.4634 352.718 76.114C352.186 76.7053 351.506 77.0897 350.678 77.2671C349.85 77.3854 348.933 77.1784 347.928 76.6462C346.627 75.8774 345.296 75.3156 343.936 74.9608C342.576 74.5468 341.275 74.3398 340.033 74.3398C338.081 74.3398 336.366 74.6651 334.888 75.3156C333.409 75.907 332.138 76.794 331.073 77.9768C330.068 79.1004 329.299 80.5197 328.767 82.2347C328.235 83.9497 327.969 85.9309 327.969 88.1781C327.969 92.5543 329.004 96.0139 331.073 98.5568C333.202 101.041 336.189 102.282 340.033 102.282C341.275 102.282 342.546 102.105 343.847 101.75C345.207 101.395 346.568 100.834 347.928 100.065C348.933 99.5326 349.82 99.3552 350.589 99.5326C351.417 99.71 352.097 100.124 352.629 100.774C353.161 101.366 353.487 102.105 353.605 102.992C353.723 103.82 353.605 104.648 353.25 105.476C352.954 106.304 352.363 106.984 351.476 107.516C349.524 108.699 347.455 109.556 345.266 110.089C343.078 110.621 341.009 110.887 339.057 110.887ZM364.576 110.71C362.802 110.71 361.442 110.237 360.496 109.29C359.549 108.285 359.076 106.866 359.076 105.032V52.3405C359.076 50.5072 359.549 49.1175 360.496 48.1713C361.442 47.2251 362.802 46.752 364.576 46.752C366.35 46.752 367.71 47.2251 368.657 48.1713C369.662 49.1175 370.165 50.5072 370.165 52.3405V75.3156H368.923C370.224 72.1813 372.235 69.8158 374.955 68.219C377.734 66.5632 380.869 65.7352 384.358 65.7352C387.847 65.7352 390.715 66.3858 392.962 67.6868C395.21 68.9878 396.895 70.969 398.019 73.6302C399.142 76.2322 399.704 79.544 399.704 83.5653V105.032C399.704 106.866 399.231 108.285 398.285 109.29C397.339 110.237 395.978 110.71 394.204 110.71C392.43 110.71 391.04 110.237 390.035 109.29C389.089 108.285 388.616 106.866 388.616 105.032V84.0976C388.616 80.7267 387.965 78.2725 386.664 76.7349C385.422 75.1973 383.471 74.4285 380.81 74.4285C377.557 74.4285 374.955 75.4634 373.003 77.5333C371.111 79.544 370.165 82.2347 370.165 85.6056V105.032C370.165 108.817 368.302 110.71 364.576 110.71ZM437.888 110.71C436.232 110.71 434.96 110.237 434.073 109.29C433.186 108.344 432.743 107.043 432.743 105.387V52.0744C432.743 50.3594 433.216 49.0583 434.162 48.1713C435.108 47.2251 436.409 46.752 438.065 46.752C439.543 46.752 440.697 47.0476 441.525 47.639C442.412 48.1713 443.21 49.1175 443.92 50.4777L465.83 91.0167H462.992L484.902 50.4777C485.612 49.1175 486.381 48.1713 487.209 47.639C488.037 47.0476 489.19 46.752 490.668 46.752C492.324 46.752 493.596 47.2251 494.483 48.1713C495.37 49.0583 495.813 50.3594 495.813 52.0744V105.387C495.813 107.043 495.37 108.344 494.483 109.29C493.655 110.237 492.383 110.71 490.668 110.71C489.012 110.71 487.741 110.237 486.854 109.29C485.967 108.344 485.523 107.043 485.523 105.387V64.3159H487.475L468.846 98.2907C468.255 99.296 467.634 100.035 466.983 100.508C466.333 100.981 465.446 101.218 464.322 101.218C463.199 101.218 462.282 100.981 461.572 100.508C460.863 99.9761 460.242 99.2369 459.71 98.2907L440.904 64.2272H443.033V105.387C443.033 107.043 442.589 108.344 441.702 109.29C440.874 110.237 439.603 110.71 437.888 110.71Z" fill="#5225EE"/>
<path d="M512.164 104.905V70.6895" stroke="#5225EE" stroke-width="11.4052" stroke-linecap="round"/>
<circle cx="512.164" cy="52.9495" r="6.33621" fill="#00CE94"/>
<path d="M217.407 154.9C216.9 154.9 216.489 154.784 216.172 154.551C215.876 154.319 215.697 154.013 215.633 153.633C215.57 153.231 215.644 152.788 215.855 152.302L224.219 133.769C224.493 133.156 224.821 132.723 225.201 132.47C225.602 132.195 226.056 132.058 226.563 132.058C227.049 132.058 227.482 132.195 227.862 132.47C228.263 132.723 228.601 133.156 228.876 133.769L237.271 152.302C237.504 152.788 237.588 153.231 237.525 153.633C237.461 154.034 237.282 154.351 236.986 154.583C236.691 154.794 236.3 154.9 235.814 154.9C235.223 154.9 234.758 154.763 234.42 154.488C234.103 154.192 233.818 153.749 233.565 153.157L231.505 148.374L233.216 149.482H219.847L221.558 148.374L219.53 153.157C219.255 153.77 218.97 154.214 218.675 154.488C218.379 154.763 217.956 154.9 217.407 154.9ZM226.5 136.715L222.064 147.265L221.241 146.251H231.822L231.03 147.265L226.563 136.715H226.5ZM244.38 154.9C243.746 154.9 243.25 154.731 242.891 154.393C242.553 154.034 242.384 153.527 242.384 152.872V142.132H240.927C240.42 142.132 240.029 142.006 239.754 141.752C239.48 141.478 239.342 141.108 239.342 140.643C239.342 140.158 239.48 139.788 239.754 139.535C240.029 139.281 240.42 139.154 240.927 139.154H243.524L242.384 140.2V139.123C242.384 136.947 242.933 135.321 244.031 134.244C245.13 133.146 246.714 132.501 248.783 132.311L249.861 132.216C250.283 132.174 250.621 132.248 250.874 132.438C251.128 132.607 251.297 132.839 251.381 133.135C251.466 133.41 251.476 133.695 251.413 133.99C251.35 134.286 251.212 134.55 251.001 134.782C250.811 134.994 250.558 135.11 250.241 135.131L249.797 135.163C248.593 135.247 247.717 135.553 247.168 136.081C246.619 136.609 246.344 137.412 246.344 138.489V139.661L245.837 139.154H249.037C249.544 139.154 249.934 139.281 250.209 139.535C250.484 139.788 250.621 140.158 250.621 140.643C250.621 141.108 250.484 141.478 250.209 141.752C249.934 142.006 249.544 142.132 249.037 142.132H246.344V152.872C246.344 154.224 245.689 154.9 244.38 154.9ZM260.376 154.963C259.003 154.963 257.852 154.731 256.923 154.266C256.015 153.802 255.339 153.126 254.895 152.239C254.452 151.331 254.23 150.211 254.23 148.881V142.132H252.582C252.076 142.132 251.685 142.006 251.41 141.752C251.136 141.478 250.998 141.108 250.998 140.643C250.998 140.158 251.136 139.788 251.41 139.535C251.685 139.281 252.076 139.154 252.582 139.154H254.23V136.271C254.23 135.617 254.399 135.12 254.737 134.782C255.096 134.445 255.592 134.276 256.226 134.276C256.859 134.276 257.345 134.445 257.683 134.782C258.021 135.12 258.19 135.617 258.19 136.271V139.154H261.548C262.055 139.154 262.446 139.281 262.72 139.535C262.995 139.788 263.132 140.158 263.132 140.643C263.132 141.108 262.995 141.478 262.72 141.752C262.446 142.006 262.055 142.132 261.548 142.132H258.19V148.659C258.19 149.673 258.412 150.433 258.855 150.94C259.299 151.447 260.017 151.7 261.01 151.7C261.369 151.7 261.685 151.668 261.96 151.605C262.235 151.542 262.477 151.5 262.689 151.478C262.942 151.457 263.153 151.542 263.322 151.732C263.491 151.901 263.576 152.26 263.576 152.809C263.576 153.231 263.502 153.612 263.354 153.95C263.227 154.266 262.984 154.488 262.625 154.615C262.351 154.699 261.992 154.773 261.548 154.837C261.105 154.921 260.714 154.963 260.376 154.963ZM274.186 154.963C272.433 154.963 270.923 154.636 269.656 153.981C268.388 153.326 267.406 152.397 266.709 151.193C266.033 149.989 265.695 148.564 265.695 146.916C265.695 145.311 266.023 143.907 266.678 142.703C267.353 141.499 268.272 140.559 269.434 139.883C270.617 139.186 271.958 138.838 273.457 138.838C274.556 138.838 275.538 139.017 276.404 139.376C277.291 139.735 278.04 140.253 278.653 140.929C279.287 141.604 279.762 142.428 280.079 143.4C280.417 144.35 280.586 145.427 280.586 146.631C280.586 147.011 280.448 147.307 280.174 147.518C279.92 147.708 279.551 147.803 279.065 147.803H268.895V145.522H277.798L277.291 145.998C277.291 145.026 277.143 144.213 276.847 143.558C276.573 142.903 276.161 142.407 275.612 142.069C275.084 141.71 274.418 141.531 273.616 141.531C272.729 141.531 271.968 141.742 271.335 142.164C270.722 142.565 270.247 143.146 269.909 143.907C269.592 144.646 269.434 145.533 269.434 146.568V146.79C269.434 148.521 269.835 149.82 270.638 150.686C271.461 151.531 272.665 151.954 274.249 151.954C274.798 151.954 275.411 151.89 276.087 151.764C276.784 151.616 277.439 151.373 278.051 151.035C278.495 150.781 278.885 150.676 279.223 150.718C279.561 150.739 279.825 150.855 280.015 151.067C280.226 151.278 280.353 151.542 280.395 151.859C280.438 152.154 280.374 152.46 280.205 152.777C280.057 153.094 279.793 153.369 279.413 153.601C278.674 154.066 277.819 154.414 276.847 154.646C275.897 154.858 275.01 154.963 274.186 154.963ZM287.017 154.9C286.362 154.9 285.855 154.731 285.496 154.393C285.158 154.034 284.989 153.527 284.989 152.872V140.897C284.989 140.242 285.158 139.746 285.496 139.408C285.834 139.07 286.309 138.901 286.921 138.901C287.534 138.901 288.009 139.07 288.347 139.408C288.685 139.746 288.854 140.242 288.854 140.897V142.893H288.537C288.833 141.626 289.414 140.665 290.28 140.01C291.146 139.355 292.297 138.964 293.733 138.838C294.176 138.795 294.525 138.912 294.778 139.186C295.053 139.44 295.211 139.841 295.254 140.39C295.296 140.918 295.169 141.351 294.873 141.689C294.599 142.006 294.176 142.196 293.606 142.259L292.909 142.323C291.621 142.449 290.649 142.851 289.995 143.526C289.34 144.181 289.012 145.11 289.012 146.314V152.872C289.012 153.527 288.843 154.034 288.506 154.393C288.168 154.731 287.671 154.9 287.017 154.9ZM314.202 154.963C313.293 154.963 312.332 154.868 311.319 154.678C310.305 154.488 309.397 154.161 308.594 153.696C308.256 153.485 308.013 153.242 307.865 152.967C307.739 152.672 307.686 152.387 307.707 152.112C307.749 151.816 307.855 151.563 308.024 151.352C308.214 151.14 308.446 151.003 308.721 150.94C309.016 150.876 309.333 150.929 309.671 151.098C310.516 151.5 311.308 151.785 312.047 151.954C312.786 152.101 313.515 152.175 314.233 152.175C315.247 152.175 315.997 152.006 316.483 151.668C316.989 151.309 317.243 150.845 317.243 150.274C317.243 149.789 317.074 149.419 316.736 149.166C316.419 148.891 315.933 148.69 315.279 148.564L312.111 147.962C310.801 147.708 309.798 147.233 309.101 146.536C308.425 145.818 308.087 144.899 308.087 143.78C308.087 142.766 308.362 141.89 308.911 141.15C309.481 140.411 310.263 139.841 311.255 139.44C312.248 139.038 313.388 138.838 314.677 138.838C315.606 138.838 316.472 138.943 317.275 139.154C318.098 139.345 318.89 139.651 319.651 140.073C319.968 140.242 320.179 140.464 320.284 140.739C320.411 141.013 320.443 141.298 320.379 141.594C320.316 141.868 320.189 142.122 319.999 142.354C319.809 142.565 319.566 142.703 319.271 142.766C318.996 142.808 318.679 142.745 318.32 142.576C317.665 142.238 317.032 141.995 316.419 141.847C315.828 141.699 315.258 141.626 314.708 141.626C313.674 141.626 312.903 141.805 312.396 142.164C311.91 142.523 311.667 142.998 311.667 143.59C311.667 144.033 311.815 144.403 312.111 144.699C312.406 144.994 312.86 145.195 313.473 145.301L316.641 145.903C318.014 146.156 319.049 146.621 319.746 147.296C320.464 147.972 320.823 148.881 320.823 150.021C320.823 151.563 320.221 152.777 319.017 153.664C317.813 154.53 316.208 154.963 314.202 154.963ZM332.427 154.963C330.801 154.963 329.386 154.636 328.182 153.981C326.978 153.305 326.049 152.355 325.394 151.13C324.739 149.905 324.412 148.469 324.412 146.821C324.412 145.575 324.591 144.466 324.95 143.495C325.331 142.502 325.869 141.668 326.566 140.992C327.263 140.295 328.108 139.767 329.101 139.408C330.093 139.028 331.202 138.838 332.427 138.838C333.124 138.838 333.874 138.933 334.676 139.123C335.5 139.313 336.271 139.63 336.989 140.073C337.327 140.284 337.549 140.538 337.654 140.834C337.76 141.129 337.781 141.435 337.718 141.752C337.654 142.048 337.517 142.312 337.306 142.544C337.116 142.756 336.873 142.893 336.577 142.956C336.282 142.998 335.954 142.924 335.595 142.734C335.131 142.46 334.655 142.259 334.17 142.132C333.684 141.985 333.219 141.911 332.776 141.911C332.079 141.911 331.466 142.027 330.938 142.259C330.41 142.47 329.956 142.787 329.576 143.21C329.217 143.611 328.942 144.118 328.752 144.73C328.562 145.343 328.467 146.05 328.467 146.853C328.467 148.416 328.837 149.651 329.576 150.56C330.336 151.447 331.403 151.89 332.776 151.89C333.219 151.89 333.673 151.827 334.138 151.7C334.624 151.573 335.109 151.373 335.595 151.098C335.954 150.908 336.271 150.845 336.546 150.908C336.841 150.971 337.084 151.119 337.274 151.352C337.464 151.563 337.581 151.827 337.623 152.144C337.665 152.439 337.623 152.735 337.496 153.031C337.39 153.326 337.179 153.569 336.862 153.759C336.165 154.182 335.426 154.488 334.645 154.678C333.863 154.868 333.124 154.963 332.427 154.963ZM343.442 154.9C342.808 154.9 342.323 154.731 341.985 154.393C341.647 154.034 341.478 153.527 341.478 152.872V134.054C341.478 133.399 341.647 132.903 341.985 132.565C342.323 132.227 342.808 132.058 343.442 132.058C344.076 132.058 344.561 132.227 344.899 132.565C345.258 132.903 345.438 133.399 345.438 134.054V142.259H344.994C345.459 141.14 346.177 140.295 347.149 139.725C348.141 139.133 349.261 138.838 350.507 138.838C351.753 138.838 352.777 139.07 353.58 139.535C354.382 139.999 354.984 140.707 355.386 141.657C355.787 142.587 355.988 143.769 355.988 145.206V152.872C355.988 153.527 355.819 154.034 355.481 154.393C355.143 154.731 354.657 154.9 354.023 154.9C353.39 154.9 352.893 154.731 352.534 154.393C352.196 154.034 352.027 153.527 352.027 152.872V145.396C352.027 144.192 351.795 143.315 351.331 142.766C350.887 142.217 350.19 141.942 349.24 141.942C348.078 141.942 347.149 142.312 346.452 143.051C345.776 143.769 345.438 144.73 345.438 145.934V152.872C345.438 154.224 344.773 154.9 343.442 154.9ZM368.342 154.963C366.737 154.963 365.343 154.636 364.16 153.981C362.977 153.326 362.059 152.397 361.404 151.193C360.749 149.968 360.422 148.532 360.422 146.885C360.422 145.639 360.601 144.53 360.96 143.558C361.34 142.565 361.879 141.721 362.576 141.024C363.273 140.306 364.107 139.767 365.079 139.408C366.05 139.028 367.138 138.838 368.342 138.838C369.947 138.838 371.341 139.165 372.524 139.82C373.707 140.474 374.625 141.404 375.28 142.608C375.935 143.812 376.262 145.237 376.262 146.885C376.262 148.131 376.072 149.25 375.692 150.243C375.333 151.235 374.805 152.091 374.108 152.809C373.411 153.506 372.577 154.045 371.605 154.425C370.634 154.784 369.546 154.963 368.342 154.963ZM368.342 151.954C369.123 151.954 369.81 151.764 370.401 151.383C370.993 151.003 371.447 150.443 371.764 149.704C372.101 148.944 372.27 148.004 372.27 146.885C372.27 145.195 371.911 143.938 371.193 143.115C370.475 142.27 369.525 141.847 368.342 141.847C367.561 141.847 366.874 142.037 366.283 142.418C365.691 142.777 365.227 143.336 364.889 144.097C364.572 144.836 364.414 145.765 364.414 146.885C364.414 148.553 364.773 149.82 365.491 150.686C366.209 151.531 367.159 151.954 368.342 151.954ZM387.863 154.963C386.258 154.963 384.864 154.636 383.681 153.981C382.498 153.326 381.58 152.397 380.925 151.193C380.27 149.968 379.943 148.532 379.943 146.885C379.943 145.639 380.122 144.53 380.481 143.558C380.861 142.565 381.4 141.721 382.097 141.024C382.794 140.306 383.628 139.767 384.6 139.408C385.571 139.028 386.659 138.838 387.863 138.838C389.468 138.838 390.862 139.165 392.045 139.82C393.228 140.474 394.146 141.404 394.801 142.608C395.456 143.812 395.783 145.237 395.783 146.885C395.783 148.131 395.593 149.25 395.213 150.243C394.854 151.235 394.326 152.091 393.629 152.809C392.932 153.506 392.098 154.045 391.126 154.425C390.155 154.784 389.067 154.963 387.863 154.963ZM387.863 151.954C388.644 151.954 389.331 151.764 389.922 151.383C390.514 151.003 390.968 150.443 391.285 149.704C391.622 148.944 391.791 148.004 391.791 146.885C391.791 145.195 391.432 143.938 390.714 143.115C389.996 142.27 389.046 141.847 387.863 141.847C387.082 141.847 386.395 142.037 385.804 142.418C385.212 142.777 384.748 143.336 384.41 144.097C384.093 144.836 383.935 145.765 383.935 146.885C383.935 148.553 384.294 149.82 385.012 150.686C385.73 151.531 386.68 151.954 387.863 151.954ZM405.61 154.963C403.857 154.963 402.537 154.467 401.65 153.474C400.763 152.46 400.319 150.982 400.319 149.039V134.054C400.319 133.399 400.488 132.903 400.826 132.565C401.164 132.227 401.65 132.058 402.283 132.058C402.917 132.058 403.403 132.227 403.741 132.565C404.1 132.903 404.279 133.399 404.279 134.054V148.849C404.279 149.82 404.48 150.539 404.881 151.003C405.304 151.468 405.895 151.7 406.655 151.7C406.824 151.7 406.983 151.7 407.13 151.7C407.278 151.679 407.426 151.658 407.574 151.637C407.87 151.595 408.07 151.679 408.176 151.89C408.282 152.08 408.334 152.482 408.334 153.094C408.334 153.622 408.229 154.034 408.018 154.33C407.806 154.625 407.458 154.805 406.972 154.868C406.761 154.889 406.539 154.91 406.307 154.932C406.074 154.953 405.842 154.963 405.61 154.963ZM428.731 154.963C427.105 154.963 425.69 154.636 424.486 153.981C423.282 153.305 422.353 152.355 421.698 151.13C421.043 149.905 420.716 148.469 420.716 146.821C420.716 145.575 420.895 144.466 421.255 143.495C421.635 142.502 422.173 141.668 422.87 140.992C423.567 140.295 424.412 139.767 425.405 139.408C426.397 139.028 427.506 138.838 428.731 138.838C429.428 138.838 430.178 138.933 430.981 139.123C431.804 139.313 432.575 139.63 433.293 140.073C433.631 140.284 433.853 140.538 433.959 140.834C434.064 141.129 434.085 141.435 434.022 141.752C433.959 142.048 433.821 142.312 433.61 142.544C433.42 142.756 433.177 142.893 432.881 142.956C432.586 142.998 432.258 142.924 431.899 142.734C431.435 142.46 430.96 142.259 430.474 142.132C429.988 141.985 429.523 141.911 429.08 141.911C428.383 141.911 427.77 142.027 427.242 142.259C426.714 142.47 426.26 142.787 425.88 143.21C425.521 143.611 425.246 144.118 425.056 144.73C424.866 145.343 424.771 146.05 424.771 146.853C424.771 148.416 425.141 149.651 425.88 150.56C426.64 151.447 427.707 151.89 429.08 151.89C429.523 151.89 429.977 151.827 430.442 151.7C430.928 151.573 431.414 151.373 431.899 151.098C432.258 150.908 432.575 150.845 432.85 150.908C433.145 150.971 433.388 151.119 433.578 151.352C433.769 151.563 433.885 151.827 433.927 152.144C433.969 152.439 433.927 152.735 433.8 153.031C433.695 153.326 433.483 153.569 433.167 153.759C432.47 154.182 431.73 154.488 430.949 154.678C430.167 154.868 429.428 154.963 428.731 154.963ZM443.073 154.963C441.32 154.963 440 154.467 439.113 153.474C438.225 152.46 437.782 150.982 437.782 149.039V134.054C437.782 133.399 437.951 132.903 438.289 132.565C438.627 132.227 439.113 132.058 439.746 132.058C440.38 132.058 440.866 132.227 441.203 132.565C441.563 132.903 441.742 133.399 441.742 134.054V148.849C441.742 149.82 441.943 150.539 442.344 151.003C442.766 151.468 443.358 151.7 444.118 151.7C444.287 151.7 444.445 151.7 444.593 151.7C444.741 151.679 444.889 151.658 445.037 151.637C445.333 151.595 445.533 151.679 445.639 151.89C445.744 152.08 445.797 152.482 445.797 153.094C445.797 153.622 445.692 154.034 445.48 154.33C445.269 154.625 444.921 154.805 444.435 154.868C444.224 154.889 444.002 154.91 443.77 154.932C443.537 154.953 443.305 154.963 443.073 154.963ZM454.774 154.963C453.485 154.963 452.419 154.731 451.574 154.266C450.729 153.781 450.095 153.062 449.673 152.112C449.272 151.162 449.071 149.979 449.071 148.564V140.897C449.071 140.221 449.24 139.725 449.578 139.408C449.916 139.07 450.402 138.901 451.035 138.901C451.669 138.901 452.155 139.07 452.493 139.408C452.852 139.725 453.031 140.221 453.031 140.897V148.627C453.031 149.725 453.253 150.539 453.696 151.067C454.14 151.595 454.848 151.859 455.819 151.859C456.875 151.859 457.741 151.5 458.417 150.781C459.093 150.042 459.431 149.071 459.431 147.867V140.897C459.431 140.221 459.6 139.725 459.938 139.408C460.276 139.07 460.761 138.901 461.395 138.901C462.029 138.901 462.514 139.07 462.852 139.408C463.211 139.725 463.391 140.221 463.391 140.897V152.872C463.391 154.224 462.747 154.9 461.458 154.9C460.846 154.9 460.371 154.731 460.033 154.393C459.695 154.034 459.526 153.527 459.526 152.872V150.465L459.969 151.415C459.526 152.556 458.85 153.432 457.942 154.045C457.055 154.657 455.999 154.963 454.774 154.963ZM477.714 154.963C476.404 154.963 475.253 154.636 474.261 153.981C473.289 153.326 472.645 152.45 472.328 151.352L472.677 150.56V152.872C472.677 153.527 472.508 154.034 472.17 154.393C471.832 154.731 471.357 154.9 470.744 154.9C470.11 154.9 469.625 154.731 469.287 154.393C468.949 154.034 468.78 153.527 468.78 152.872V134.054C468.78 133.399 468.949 132.903 469.287 132.565C469.625 132.227 470.11 132.058 470.744 132.058C471.378 132.058 471.863 132.227 472.201 132.565C472.56 132.903 472.74 133.399 472.74 134.054V142.291H472.36C472.698 141.256 473.352 140.422 474.324 139.788C475.296 139.154 476.426 138.838 477.714 138.838C479.087 138.838 480.28 139.165 481.294 139.82C482.308 140.474 483.1 141.404 483.67 142.608C484.24 143.79 484.525 145.216 484.525 146.885C484.525 148.532 484.24 149.968 483.67 151.193C483.1 152.397 482.297 153.326 481.262 153.981C480.248 154.636 479.066 154.963 477.714 154.963ZM476.605 151.954C477.387 151.954 478.073 151.764 478.664 151.383C479.256 151.003 479.71 150.443 480.027 149.704C480.365 148.944 480.534 148.004 480.534 146.885C480.534 145.195 480.174 143.938 479.456 143.115C478.738 142.27 477.788 141.847 476.605 141.847C475.824 141.847 475.137 142.037 474.546 142.418C473.954 142.777 473.49 143.336 473.152 144.097C472.835 144.836 472.677 145.765 472.677 146.885C472.677 148.553 473.036 149.82 473.754 150.686C474.472 151.531 475.422 151.954 476.605 151.954Z" fill="#00CE94"/>
<path fill-rule="evenodd" clip-rule="evenodd" d="M86.5762 66.2539C90.5387 66.2539 93.751 69.5399 93.751 73.5933V121.119C93.751 132.011 102.009 139.648 114.251 139.648C126.492 139.648 134.75 132.011 134.75 121.119V73.5933C134.75 69.5399 137.962 66.2539 141.925 66.2539C145.887 66.2539 149.1 69.5399 149.1 73.5933V121.119C149.1 141.88 132.577 154.327 114.251 154.327C95.9239 154.327 79.4014 141.88 79.4014 121.119V73.5933C79.4014 69.5399 82.6136 66.2539 86.5762 66.2539Z" fill="#5225EE"/>
<circle cx="87.0043" cy="50.4145" r="9.50431" fill="#00CE94"/>
<circle cx="142.129" cy="50.4145" r="9.50431" fill="#00CE94"/>
</svg>
