<svg width="367" height="425" viewBox="0 0 367 425" fill="none" xmlns="http://www.w3.org/2000/svg">
<path d="M-96.4602 159.841C-91.0339 242.428 -49.2485 258.258 -23.8857 329.098C-9.42866 369.46 -14.5337 417.937 22.8332 451.512C50.9404 476.759 89.1767 482.448 116.922 473.136C129.882 468.785 140.205 452.897 153.121 449.798C179.779 443.414 204.02 459.789 232.959 467.658C266.32 476.714 298.332 477.404 318.761 446.051C338.694 415.475 328.98 369.693 340.166 333.746C351.879 296.117 378.04 283.785 361.702 232.584C348.701 191.863 314.185 173.237 292.87 141.531C238.372 60.4998 227.382 -9.35609 133.305 2.10094C93.9494 6.89602 60.876 29.8865 21.7609 30.7242C-47.7845 32.2464 -103.658 50.2755 -96.4602 159.841Z" fill="#5225EE"/>
</svg>
