<svg width="624" height="185" viewBox="0 0 624 185" fill="none" xmlns="http://www.w3.org/2000/svg">
<rect x="0.5" width="623" height="185" rx="92.5" fill="white"/>
<path d="M201.398 110.71C199.565 110.71 198.146 110.207 197.14 109.202C196.194 108.137 195.721 106.688 195.721 104.855V56.9533H178.423C176.886 56.9533 175.673 56.5393 174.786 55.7114C173.958 54.8243 173.544 53.6415 173.544 52.1631C173.544 50.6255 173.958 49.4723 174.786 48.7035C175.673 47.8756 176.886 47.4616 178.423 47.4616H224.373C225.911 47.4616 227.094 47.8756 227.922 48.7035C228.809 49.4723 229.252 50.6255 229.252 52.1631C229.252 53.6415 228.809 54.8243 227.922 55.7114C227.094 56.5393 225.911 56.9533 224.373 56.9533H207.076V104.855C207.076 106.688 206.603 108.137 205.656 109.202C204.71 110.207 203.291 110.71 201.398 110.71ZM247.346 110.887C242.437 110.887 238.209 109.97 234.661 108.137C231.112 106.304 228.363 103.702 226.411 100.331C224.519 96.9601 223.572 92.9683 223.572 88.3555C223.572 83.861 224.489 79.9284 226.322 76.5575C228.215 73.1866 230.787 70.555 234.04 68.6626C237.352 66.711 241.107 65.7352 245.306 65.7352C248.381 65.7352 251.131 66.2379 253.555 67.2433C256.039 68.2486 258.138 69.6975 259.853 71.5899C261.628 73.4823 262.958 75.7887 263.845 78.509C264.792 81.1702 265.265 84.1863 265.265 87.5571C265.265 88.6216 264.88 89.4496 264.111 90.0409C263.402 90.5732 262.367 90.8393 261.007 90.8393H232.532V84.4524H257.458L256.039 85.783C256.039 83.0627 255.625 80.7859 254.797 78.9526C254.028 77.1193 252.875 75.7296 251.338 74.7833C249.859 73.778 247.996 73.2753 245.749 73.2753C243.265 73.2753 241.136 73.8667 239.362 75.0495C237.647 76.1731 236.317 77.7994 235.37 79.9284C234.483 81.9982 234.04 84.482 234.04 87.3797V88.0007C234.04 92.85 235.163 96.487 237.411 98.9116C239.717 101.277 243.088 102.46 247.523 102.46C249.061 102.46 250.776 102.282 252.668 101.928C254.62 101.514 256.453 100.834 258.168 99.8874C259.41 99.1778 260.504 98.8821 261.45 99.0003C262.396 99.0595 263.136 99.3847 263.668 99.9761C264.259 100.567 264.614 101.307 264.732 102.194C264.851 103.022 264.673 103.879 264.2 104.766C263.786 105.653 263.047 106.422 261.982 107.073C259.913 108.374 257.518 109.349 254.797 110C252.136 110.591 249.652 110.887 247.346 110.887ZM286.554 110.887C283.419 110.887 280.61 110.296 278.126 109.113C275.702 107.871 273.78 106.215 272.36 104.145C271 102.076 270.32 99.7396 270.32 97.1375C270.32 93.944 271.148 91.4307 272.804 89.5974C274.46 87.705 277.151 86.3448 280.876 85.5169C284.602 84.689 289.599 84.275 295.868 84.275H300.303V90.6619H295.957C292.29 90.6619 289.363 90.8393 287.175 91.1941C284.986 91.549 283.419 92.1699 282.473 93.057C281.586 93.8849 281.142 95.0677 281.142 96.6053C281.142 98.5568 281.823 100.154 283.183 101.395C284.543 102.637 286.435 103.258 288.86 103.258C290.812 103.258 292.527 102.815 294.005 101.928C295.543 100.981 296.755 99.71 297.642 98.1133C298.529 96.5165 298.973 94.6833 298.973 92.6134V82.4121C298.973 79.4552 298.322 77.3263 297.021 76.0252C295.72 74.7242 293.532 74.0737 290.457 74.0737C288.742 74.0737 286.879 74.2807 284.868 74.6946C282.917 75.1086 280.847 75.8183 278.659 76.8236C277.535 77.3559 276.53 77.5037 275.643 77.2671C274.815 77.0306 274.164 76.5575 273.691 75.8478C273.218 75.079 272.981 74.2511 272.981 73.364C272.981 72.477 273.218 71.6195 273.691 70.7915C274.164 69.9045 274.963 69.254 276.086 68.84C278.807 67.7164 281.409 66.918 283.892 66.4449C286.435 65.9718 288.742 65.7352 290.812 65.7352C295.069 65.7352 298.559 66.3858 301.279 67.6868C304.058 68.9878 306.128 70.969 307.488 73.6302C308.849 76.2322 309.529 79.6031 309.529 83.7428V105.032C309.529 106.866 309.085 108.285 308.198 109.29C307.311 110.237 306.04 110.71 304.384 110.71C302.728 110.71 301.427 110.237 300.481 109.29C299.594 108.285 299.15 106.866 299.15 105.032V100.774H299.86C299.446 102.844 298.618 104.648 297.376 106.186C296.193 107.664 294.685 108.817 292.852 109.645C291.019 110.473 288.919 110.887 286.554 110.887ZM339.057 110.887C334.503 110.887 330.541 109.97 327.17 108.137C323.799 106.245 321.197 103.584 319.364 100.154C317.531 96.7235 316.614 92.7021 316.614 88.0894C316.614 84.6002 317.117 81.4955 318.122 78.7752C319.187 75.9957 320.695 73.6597 322.646 71.7673C324.598 69.8158 326.963 68.3373 329.743 67.332C332.522 66.2675 335.627 65.7352 339.057 65.7352C341.009 65.7352 343.108 66.0014 345.355 66.5336C347.662 67.0658 349.82 67.9529 351.831 69.1948C352.777 69.7862 353.398 70.4958 353.694 71.3238C353.989 72.1517 354.048 73.0092 353.871 73.8963C353.694 74.7242 353.309 75.4634 352.718 76.114C352.186 76.7053 351.506 77.0897 350.678 77.2671C349.85 77.3854 348.933 77.1784 347.928 76.6462C346.627 75.8774 345.296 75.3156 343.936 74.9608C342.576 74.5468 341.275 74.3398 340.033 74.3398C338.081 74.3398 336.366 74.6651 334.888 75.3156C333.409 75.907 332.138 76.794 331.073 77.9768C330.068 79.1004 329.299 80.5197 328.767 82.2347C328.235 83.9497 327.969 85.9309 327.969 88.1781C327.969 92.5543 329.004 96.0139 331.073 98.5568C333.202 101.041 336.189 102.282 340.033 102.282C341.275 102.282 342.546 102.105 343.847 101.75C345.207 101.395 346.568 100.834 347.928 100.065C348.933 99.5326 349.82 99.3552 350.589 99.5326C351.417 99.71 352.097 100.124 352.629 100.774C353.161 101.366 353.487 102.105 353.605 102.992C353.723 103.82 353.605 104.648 353.25 105.476C352.954 106.304 352.363 106.984 351.476 107.516C349.524 108.699 347.455 109.556 345.266 110.089C343.078 110.621 341.009 110.887 339.057 110.887ZM364.576 110.71C362.802 110.71 361.442 110.237 360.496 109.29C359.549 108.285 359.076 106.866 359.076 105.032V52.3405C359.076 50.5072 359.549 49.1175 360.496 48.1713C361.442 47.2251 362.802 46.752 364.576 46.752C366.35 46.752 367.71 47.2251 368.657 48.1713C369.662 49.1175 370.165 50.5072 370.165 52.3405V75.3156H368.923C370.224 72.1813 372.235 69.8158 374.955 68.219C377.734 66.5632 380.869 65.7352 384.358 65.7352C387.847 65.7352 390.715 66.3858 392.962 67.6868C395.21 68.9878 396.895 70.969 398.019 73.6302C399.142 76.2322 399.704 79.544 399.704 83.5653V105.032C399.704 106.866 399.231 108.285 398.285 109.29C397.339 110.237 395.978 110.71 394.204 110.71C392.43 110.71 391.04 110.237 390.035 109.29C389.089 108.285 388.616 106.866 388.616 105.032V84.0976C388.616 80.7267 387.965 78.2725 386.664 76.7349C385.422 75.1973 383.471 74.4285 380.81 74.4285C377.557 74.4285 374.955 75.4634 373.003 77.5333C371.111 79.544 370.165 82.2347 370.165 85.6056V105.032C370.165 108.817 368.302 110.71 364.576 110.71ZM437.888 110.71C436.232 110.71 434.96 110.237 434.073 109.29C433.186 108.344 432.743 107.043 432.743 105.387V52.0744C432.743 50.3594 433.216 49.0583 434.162 48.1713C435.108 47.2251 436.409 46.752 438.065 46.752C439.543 46.752 440.697 47.0476 441.525 47.639C442.412 48.1713 443.21 49.1175 443.92 50.4777L465.83 91.0167H462.992L484.902 50.4777C485.612 49.1175 486.381 48.1713 487.209 47.639C488.037 47.0476 489.19 46.752 490.668 46.752C492.324 46.752 493.596 47.2251 494.483 48.1713C495.37 49.0583 495.813 50.3594 495.813 52.0744V105.387C495.813 107.043 495.37 108.344 494.483 109.29C493.655 110.237 492.383 110.71 490.668 110.71C489.012 110.71 487.741 110.237 486.854 109.29C485.967 108.344 485.523 107.043 485.523 105.387V64.3159H487.475L468.846 98.2907C468.255 99.296 467.634 100.035 466.983 100.508C466.333 100.981 465.446 101.218 464.322 101.218C463.199 101.218 462.282 100.981 461.572 100.508C460.863 99.9761 460.242 99.2369 459.71 98.2907L440.904 64.2272H443.033V105.387C443.033 107.043 442.589 108.344 441.702 109.29C440.874 110.237 439.603 110.71 437.888 110.71Z" fill="#5225EE"/>
<path d="M512.164 104.905V70.6895" stroke="#5225EE" stroke-width="11.4052" stroke-linecap="round"/>
<circle cx="512.164" cy="52.9495" r="6.33621" fill="#00CE94"/>
<path d="M219.34 154.646C218.643 154.646 218.104 154.467 217.724 154.108C217.365 153.728 217.186 153.189 217.186 152.492V134.466C217.186 133.769 217.365 133.241 217.724 132.882C218.104 132.501 218.643 132.311 219.34 132.311H226.943C228.506 132.311 229.837 132.544 230.935 133.008C232.033 133.473 232.868 134.138 233.438 135.004C234.029 135.87 234.325 136.905 234.325 138.109C234.325 139.461 233.934 140.601 233.153 141.531C232.371 142.46 231.305 143.083 229.953 143.4V142.924C231.516 143.157 232.73 143.748 233.596 144.699C234.462 145.649 234.895 146.885 234.895 148.405C234.895 150.391 234.219 151.932 232.868 153.031C231.537 154.108 229.678 154.646 227.292 154.646H219.34ZM221.082 151.573H226.785C228.221 151.573 229.277 151.299 229.953 150.75C230.629 150.179 230.967 149.335 230.967 148.215C230.967 147.075 230.629 146.23 229.953 145.681C229.277 145.132 228.221 144.857 226.785 144.857H221.082V151.573ZM221.082 141.784H226.246C227.64 141.784 228.675 141.52 229.351 140.992C230.048 140.443 230.397 139.64 230.397 138.584C230.397 137.528 230.048 136.736 229.351 136.208C228.675 135.659 227.64 135.384 226.246 135.384H221.082V141.784ZM241.912 154.9C241.257 154.9 240.75 154.731 240.391 154.393C240.053 154.034 239.884 153.527 239.884 152.872V140.897C239.884 140.242 240.053 139.746 240.391 139.408C240.729 139.07 241.204 138.901 241.817 138.901C242.429 138.901 242.905 139.07 243.242 139.408C243.58 139.746 243.749 140.242 243.749 140.897V142.893H243.433C243.728 141.626 244.309 140.665 245.175 140.01C246.041 139.355 247.192 138.964 248.628 138.838C249.072 138.795 249.42 138.912 249.674 139.186C249.948 139.44 250.107 139.841 250.149 140.39C250.191 140.918 250.064 141.351 249.769 141.689C249.494 142.006 249.072 142.196 248.502 142.259L247.805 142.323C246.516 142.449 245.545 142.851 244.89 143.526C244.235 144.181 243.908 145.11 243.908 146.314V152.872C243.908 153.527 243.739 154.034 243.401 154.393C243.063 154.731 242.567 154.9 241.912 154.9ZM260.945 154.963C259.192 154.963 257.682 154.636 256.415 153.981C255.148 153.326 254.166 152.397 253.469 151.193C252.793 149.989 252.455 148.564 252.455 146.916C252.455 145.311 252.782 143.907 253.437 142.703C254.113 141.499 255.032 140.559 256.193 139.883C257.376 139.186 258.717 138.838 260.217 138.838C261.315 138.838 262.297 139.017 263.163 139.376C264.05 139.735 264.8 140.253 265.413 140.929C266.046 141.604 266.521 142.428 266.838 143.4C267.176 144.35 267.345 145.427 267.345 146.631C267.345 147.011 267.208 147.307 266.933 147.518C266.68 147.708 266.31 147.803 265.824 147.803H255.655V145.522H264.557L264.05 145.998C264.05 145.026 263.902 144.213 263.607 143.558C263.332 142.903 262.92 142.407 262.371 142.069C261.843 141.71 261.178 141.531 260.375 141.531C259.488 141.531 258.728 141.742 258.094 142.164C257.482 142.565 257.006 143.146 256.669 143.907C256.352 144.646 256.193 145.533 256.193 146.568V146.79C256.193 148.521 256.595 149.82 257.397 150.686C258.221 151.531 259.425 151.954 261.009 151.954C261.558 151.954 262.17 151.89 262.846 151.764C263.543 151.616 264.198 151.373 264.811 151.035C265.254 150.781 265.645 150.676 265.983 150.718C266.321 150.739 266.585 150.855 266.775 151.067C266.986 151.278 267.113 151.542 267.155 151.859C267.197 152.154 267.134 152.46 266.965 152.777C266.817 153.094 266.553 153.369 266.173 153.601C265.434 154.066 264.578 154.414 263.607 154.646C262.656 154.858 261.769 154.963 260.945 154.963ZM276.849 154.963C275.73 154.963 274.726 154.752 273.839 154.33C272.973 153.886 272.287 153.295 271.78 152.556C271.294 151.816 271.051 150.982 271.051 150.053C271.051 148.912 271.347 148.015 271.939 147.36C272.53 146.684 273.491 146.198 274.822 145.903C276.152 145.607 277.937 145.459 280.176 145.459H281.76V147.74H280.207C278.898 147.74 277.852 147.803 277.071 147.93C276.289 148.057 275.73 148.279 275.392 148.595C275.075 148.891 274.917 149.314 274.917 149.863C274.917 150.56 275.159 151.13 275.645 151.573C276.131 152.017 276.807 152.239 277.673 152.239C278.37 152.239 278.982 152.08 279.51 151.764C280.059 151.426 280.492 150.971 280.809 150.401C281.126 149.831 281.284 149.176 281.284 148.437V144.794C281.284 143.738 281.052 142.977 280.587 142.513C280.123 142.048 279.341 141.816 278.243 141.816C277.631 141.816 276.965 141.89 276.247 142.037C275.55 142.185 274.811 142.439 274.03 142.798C273.628 142.988 273.269 143.041 272.952 142.956C272.657 142.872 272.424 142.703 272.255 142.449C272.086 142.175 272.002 141.879 272.002 141.562C272.002 141.245 272.086 140.939 272.255 140.643C272.424 140.327 272.709 140.094 273.111 139.946C274.082 139.545 275.012 139.26 275.899 139.091C276.807 138.922 277.631 138.838 278.37 138.838C279.89 138.838 281.137 139.07 282.108 139.535C283.101 139.999 283.84 140.707 284.326 141.657C284.812 142.587 285.055 143.79 285.055 145.269V152.872C285.055 153.527 284.896 154.034 284.579 154.393C284.262 154.731 283.808 154.9 283.217 154.9C282.626 154.9 282.161 154.731 281.823 154.393C281.506 154.034 281.348 153.527 281.348 152.872V151.352H281.601C281.453 152.091 281.158 152.735 280.714 153.284C280.292 153.812 279.753 154.224 279.098 154.52C278.444 154.815 277.694 154.963 276.849 154.963ZM292.306 154.9C291.672 154.9 291.186 154.731 290.848 154.393C290.51 154.034 290.341 153.527 290.341 152.872V134.054C290.341 133.399 290.51 132.903 290.848 132.565C291.186 132.227 291.672 132.058 292.306 132.058C292.939 132.058 293.425 132.227 293.763 132.565C294.122 132.903 294.301 133.399 294.301 134.054V145.744H294.365L299.592 140.232C300.015 139.809 300.384 139.482 300.701 139.249C301.018 139.017 301.451 138.901 302 138.901C302.549 138.901 302.961 139.049 303.235 139.345C303.531 139.619 303.679 139.957 303.679 140.358C303.679 140.76 303.489 141.161 303.109 141.562L297.596 147.392V145.744L303.647 152.27C304.027 152.672 304.196 153.084 304.154 153.506C304.133 153.907 303.964 154.245 303.647 154.52C303.331 154.773 302.929 154.9 302.443 154.9C301.852 154.9 301.377 154.784 301.018 154.551C300.68 154.319 300.3 153.971 299.877 153.506L294.365 147.74H294.301V152.872C294.301 154.224 293.636 154.9 292.306 154.9ZM311.635 154.9C311.002 154.9 310.505 154.731 310.146 154.393C309.808 154.034 309.639 153.527 309.639 152.872V142.132H308.182C307.675 142.132 307.284 142.006 307.01 141.752C306.735 141.478 306.598 141.108 306.598 140.643C306.598 140.158 306.735 139.788 307.01 139.535C307.284 139.281 307.675 139.154 308.182 139.154H310.78L309.639 140.2V139.123C309.639 136.947 310.188 135.321 311.287 134.244C312.385 133.146 313.969 132.501 316.039 132.311L317.116 132.216C317.538 132.174 317.876 132.248 318.13 132.438C318.383 132.607 318.552 132.839 318.637 133.135C318.721 133.41 318.732 133.695 318.668 133.99C318.605 134.286 318.468 134.55 318.256 134.782C318.066 134.994 317.813 135.11 317.496 135.131L317.053 135.163C315.849 135.247 314.972 135.553 314.423 136.081C313.874 136.609 313.599 137.412 313.599 138.489V139.661L313.092 139.154H316.292C316.799 139.154 317.19 139.281 317.464 139.535C317.739 139.788 317.876 140.158 317.876 140.643C317.876 141.108 317.739 141.478 317.464 141.752C317.19 142.006 316.799 142.132 316.292 142.132H313.599V152.872C313.599 154.224 312.945 154.9 311.635 154.9ZM326.347 154.963C325.228 154.963 324.224 154.752 323.337 154.33C322.471 153.886 321.785 153.295 321.278 152.556C320.792 151.816 320.549 150.982 320.549 150.053C320.549 148.912 320.845 148.015 321.436 147.36C322.028 146.684 322.989 146.198 324.319 145.903C325.65 145.607 327.435 145.459 329.674 145.459H331.258V147.74H329.705C328.396 147.74 327.35 147.803 326.569 147.93C325.787 148.057 325.228 148.279 324.89 148.595C324.573 148.891 324.414 149.314 324.414 149.863C324.414 150.56 324.657 151.13 325.143 151.573C325.629 152.017 326.305 152.239 327.171 152.239C327.868 152.239 328.48 152.08 329.008 151.764C329.557 151.426 329.99 150.971 330.307 150.401C330.624 149.831 330.782 149.176 330.782 148.437V144.794C330.782 143.738 330.55 142.977 330.085 142.513C329.621 142.048 328.839 141.816 327.741 141.816C327.129 141.816 326.463 141.89 325.745 142.037C325.048 142.185 324.309 142.439 323.527 142.798C323.126 142.988 322.767 143.041 322.45 142.956C322.155 142.872 321.922 142.703 321.753 142.449C321.584 142.175 321.5 141.879 321.5 141.562C321.5 141.245 321.584 140.939 321.753 140.643C321.922 140.327 322.207 140.094 322.609 139.946C323.58 139.545 324.51 139.26 325.397 139.091C326.305 138.922 327.129 138.838 327.868 138.838C329.388 138.838 330.635 139.07 331.606 139.535C332.599 139.999 333.338 140.707 333.824 141.657C334.31 142.587 334.552 143.79 334.552 145.269V152.872C334.552 153.527 334.394 154.034 334.077 154.393C333.76 154.731 333.306 154.9 332.715 154.9C332.124 154.9 331.659 154.731 331.321 154.393C331.004 154.034 330.846 153.527 330.846 152.872V151.352H331.099C330.951 152.091 330.656 152.735 330.212 153.284C329.79 153.812 329.251 154.224 328.596 154.52C327.942 154.815 327.192 154.963 326.347 154.963ZM345.51 154.963C344.602 154.963 343.641 154.868 342.627 154.678C341.613 154.488 340.705 154.161 339.903 153.696C339.565 153.485 339.322 153.242 339.174 152.967C339.047 152.672 338.994 152.387 339.015 152.112C339.058 151.816 339.163 151.563 339.332 151.352C339.522 151.14 339.755 151.003 340.029 150.94C340.325 150.876 340.642 150.929 340.98 151.098C341.825 151.5 342.617 151.785 343.356 151.954C344.095 152.101 344.824 152.175 345.542 152.175C346.556 152.175 347.305 152.006 347.791 151.668C348.298 151.309 348.551 150.845 348.551 150.274C348.551 149.789 348.383 149.419 348.045 149.166C347.728 148.891 347.242 148.69 346.587 148.564L343.419 147.962C342.11 147.708 341.106 147.233 340.409 146.536C339.734 145.818 339.396 144.899 339.396 143.78C339.396 142.766 339.67 141.89 340.219 141.15C340.79 140.411 341.571 139.841 342.564 139.44C343.556 139.038 344.697 138.838 345.985 138.838C346.915 138.838 347.781 138.943 348.583 139.154C349.407 139.345 350.199 139.651 350.959 140.073C351.276 140.242 351.487 140.464 351.593 140.739C351.72 141.013 351.751 141.298 351.688 141.594C351.625 141.868 351.498 142.122 351.308 142.354C351.118 142.565 350.875 142.703 350.579 142.766C350.305 142.808 349.988 142.745 349.629 142.576C348.974 142.238 348.34 141.995 347.728 141.847C347.136 141.699 346.566 141.626 346.017 141.626C344.982 141.626 344.211 141.805 343.704 142.164C343.219 142.523 342.976 142.998 342.976 143.59C342.976 144.033 343.123 144.403 343.419 144.699C343.715 144.994 344.169 145.195 344.781 145.301L347.95 145.903C349.322 146.156 350.357 146.621 351.054 147.296C351.772 147.972 352.131 148.881 352.131 150.021C352.131 151.563 351.53 152.777 350.326 153.664C349.122 154.53 347.517 154.963 345.51 154.963ZM363.518 154.963C362.145 154.963 360.994 154.731 360.064 154.266C359.156 153.802 358.48 153.126 358.037 152.239C357.593 151.331 357.371 150.211 357.371 148.881V142.132H355.724C355.217 142.132 354.826 142.006 354.552 141.752C354.277 141.478 354.14 141.108 354.14 140.643C354.14 140.158 354.277 139.788 354.552 139.535C354.826 139.281 355.217 139.154 355.724 139.154H357.371V136.271C357.371 135.617 357.54 135.12 357.878 134.782C358.237 134.445 358.734 134.276 359.367 134.276C360.001 134.276 360.487 134.445 360.825 134.782C361.163 135.12 361.332 135.617 361.332 136.271V139.154H364.69C365.197 139.154 365.587 139.281 365.862 139.535C366.137 139.788 366.274 140.158 366.274 140.643C366.274 141.108 366.137 141.478 365.862 141.752C365.587 142.006 365.197 142.132 364.69 142.132H361.332V148.659C361.332 149.673 361.553 150.433 361.997 150.94C362.44 151.447 363.159 151.7 364.151 151.7C364.51 151.7 364.827 151.668 365.102 151.605C365.376 151.542 365.619 151.5 365.83 151.478C366.084 151.457 366.295 151.542 366.464 151.732C366.633 151.901 366.717 152.26 366.717 152.809C366.717 153.231 366.643 153.612 366.496 153.95C366.369 154.266 366.126 154.488 365.767 154.615C365.492 154.699 365.133 154.773 364.69 154.837C364.246 154.921 363.855 154.963 363.518 154.963ZM386.875 154.963C385.249 154.963 383.834 154.636 382.63 153.981C381.426 153.305 380.497 152.355 379.842 151.13C379.187 149.905 378.86 148.469 378.86 146.821C378.86 145.575 379.039 144.466 379.398 143.495C379.779 142.502 380.317 141.668 381.014 140.992C381.711 140.295 382.556 139.767 383.549 139.408C384.541 139.028 385.65 138.838 386.875 138.838C387.572 138.838 388.322 138.933 389.125 139.123C389.948 139.313 390.719 139.63 391.437 140.073C391.775 140.284 391.997 140.538 392.103 140.834C392.208 141.129 392.229 141.435 392.166 141.752C392.103 142.048 391.965 142.312 391.754 142.544C391.564 142.756 391.321 142.893 391.025 142.956C390.73 142.998 390.402 142.924 390.043 142.734C389.579 142.46 389.103 142.259 388.618 142.132C388.132 141.985 387.667 141.911 387.224 141.911C386.527 141.911 385.914 142.027 385.386 142.259C384.858 142.47 384.404 142.787 384.024 143.21C383.665 143.611 383.39 144.118 383.2 144.73C383.01 145.343 382.915 146.05 382.915 146.853C382.915 148.416 383.285 149.651 384.024 150.56C384.784 151.447 385.851 151.89 387.224 151.89C387.667 151.89 388.121 151.827 388.586 151.7C389.072 151.573 389.557 151.373 390.043 151.098C390.402 150.908 390.719 150.845 390.994 150.908C391.289 150.971 391.532 151.119 391.722 151.352C391.912 151.563 392.029 151.827 392.071 152.144C392.113 152.439 392.071 152.735 391.944 153.031C391.839 153.326 391.627 153.569 391.311 153.759C390.614 154.182 389.874 154.488 389.093 154.678C388.311 154.868 387.572 154.963 386.875 154.963ZM401.217 154.963C399.464 154.963 398.143 154.467 397.256 153.474C396.369 152.46 395.926 150.982 395.926 149.039V134.054C395.926 133.399 396.095 132.903 396.433 132.565C396.771 132.227 397.256 132.058 397.89 132.058C398.524 132.058 399.009 132.227 399.347 132.565C399.706 132.903 399.886 133.399 399.886 134.054V148.849C399.886 149.82 400.087 150.539 400.488 151.003C400.91 151.468 401.502 151.7 402.262 151.7C402.431 151.7 402.589 151.7 402.737 151.7C402.885 151.679 403.033 151.658 403.181 151.637C403.476 151.595 403.677 151.679 403.783 151.89C403.888 152.08 403.941 152.482 403.941 153.094C403.941 153.622 403.836 154.034 403.624 154.33C403.413 154.625 403.065 154.805 402.579 154.868C402.368 154.889 402.146 154.91 401.914 154.932C401.681 154.953 401.449 154.963 401.217 154.963ZM412.917 154.963C411.629 154.963 410.563 154.731 409.718 154.266C408.873 153.781 408.239 153.062 407.817 152.112C407.416 151.162 407.215 149.979 407.215 148.564V140.897C407.215 140.221 407.384 139.725 407.722 139.408C408.06 139.07 408.546 138.901 409.179 138.901C409.813 138.901 410.299 139.07 410.636 139.408C410.996 139.725 411.175 140.221 411.175 140.897V148.627C411.175 149.725 411.397 150.539 411.84 151.067C412.284 151.595 412.991 151.859 413.963 151.859C415.019 151.859 415.885 151.5 416.561 150.781C417.237 150.042 417.575 149.071 417.575 147.867V140.897C417.575 140.221 417.744 139.725 418.081 139.408C418.419 139.07 418.905 138.901 419.539 138.901C420.172 138.901 420.658 139.07 420.996 139.408C421.355 139.725 421.535 140.221 421.535 140.897V152.872C421.535 154.224 420.891 154.9 419.602 154.9C418.99 154.9 418.514 154.731 418.177 154.393C417.839 154.034 417.67 153.527 417.67 152.872V150.465L418.113 151.415C417.67 152.556 416.994 153.432 416.086 154.045C415.199 154.657 414.142 154.963 412.917 154.963ZM435.858 154.963C434.548 154.963 433.397 154.636 432.405 153.981C431.433 153.326 430.789 152.45 430.472 151.352L430.82 150.56V152.872C430.82 153.527 430.652 154.034 430.314 154.393C429.976 154.731 429.5 154.9 428.888 154.9C428.254 154.9 427.769 154.731 427.431 154.393C427.093 154.034 426.924 153.527 426.924 152.872V134.054C426.924 133.399 427.093 132.903 427.431 132.565C427.769 132.227 428.254 132.058 428.888 132.058C429.522 132.058 430.007 132.227 430.345 132.565C430.704 132.903 430.884 133.399 430.884 134.054V142.291H430.504C430.842 141.256 431.496 140.422 432.468 139.788C433.439 139.154 434.569 138.838 435.858 138.838C437.231 138.838 438.424 139.165 439.438 139.82C440.452 140.474 441.244 141.404 441.814 142.608C442.384 143.79 442.669 145.216 442.669 146.885C442.669 148.532 442.384 149.968 441.814 151.193C441.244 152.397 440.441 153.326 439.406 153.981C438.392 154.636 437.21 154.963 435.858 154.963ZM434.749 151.954C435.53 151.954 436.217 151.764 436.808 151.383C437.4 151.003 437.854 150.443 438.17 149.704C438.508 148.944 438.677 148.004 438.677 146.885C438.677 145.195 438.318 143.938 437.6 143.115C436.882 142.27 435.932 141.847 434.749 141.847C433.967 141.847 433.281 142.037 432.69 142.418C432.098 142.777 431.634 143.336 431.296 144.097C430.979 144.836 430.82 145.765 430.82 146.885C430.82 148.553 431.18 149.82 431.898 150.686C432.616 151.531 433.566 151.954 434.749 151.954Z" fill="#00CE94"/>
<path fill-rule="evenodd" clip-rule="evenodd" d="M86.5762 66.2539C90.5387 66.2539 93.751 69.5399 93.751 73.5933V121.119C93.751 132.011 102.009 139.648 114.251 139.648C126.492 139.648 134.75 132.011 134.75 121.119V73.5933C134.75 69.5399 137.962 66.2539 141.925 66.2539C145.887 66.2539 149.1 69.5399 149.1 73.5933V121.119C149.1 141.88 132.577 154.327 114.251 154.327C95.9239 154.327 79.4014 141.88 79.4014 121.119V73.5933C79.4014 69.5399 82.6136 66.2539 86.5762 66.2539Z" fill="#5225EE"/>
<circle cx="87.0043" cy="50.4145" r="9.50431" fill="#00CE94"/>
<circle cx="142.129" cy="50.4145" r="9.50431" fill="#00CE94"/>
</svg>
