<svg width="588" height="365" viewBox="0 0 588 365" fill="none" xmlns="http://www.w3.org/2000/svg">
<path d="M108.642 339.779C209.617 345.534 295.818 355.359 361.342 349.618C426.866 343.877 554.512 328.064 605.33 298.938C645.611 275.851 626.515 259.974 612.089 251.987C625.081 245.537 637.005 236.88 647.284 226.274L716.625 154.717L611.614 247.187C593.881 244.605 601.796 246.287 612.089 251.987C595.811 260.068 577.856 264.685 559.363 265.332L25.4455 284.011C-22.341 243.846 7.6678 334.023 108.642 339.779Z" fill="#F47A62"/>
<path d="M366.697 123.355C302.164 92.9775 216.514 52.6608 114.069 129.975C11.3636 207.485 -28.2904 293.556 27.8474 294.331L541.064 313.196C582.754 314.728 622.602 295.954 647.968 262.83L833 21.202L667.659 16.9461C624.431 35.5801 588.418 21.5508 520.861 92.9361C464.505 152.485 431.778 153.989 367.189 123.586L366.697 123.355Z" fill="#F47A62"/>
</svg>
