<svg width="590" height="365" viewBox="0 0 590 365" fill="none" xmlns="http://www.w3.org/2000/svg">
<path d="M108.239 339.779C208.972 345.534 294.966 355.359 360.334 349.618C425.701 343.877 553.04 328.064 603.737 298.938C643.954 275.832 624.84 259.948 610.446 251.967C623.459 245.499 635.399 236.816 645.684 226.176L714.765 154.717L610.006 247.187C592.335 244.608 600.194 246.283 610.446 251.967C594.158 260.064 576.189 264.69 557.678 265.339L25.2413 284.011C-22.4308 243.846 7.50613 334.023 108.239 339.779Z" fill="#5225EE"/>
<path d="M365.675 123.354C301.297 92.9775 215.853 52.6609 113.653 129.975C11.1932 207.485 -28.3659 293.556 27.6375 294.331L539.371 313.186C581.114 314.724 621.006 295.905 646.364 262.711L830.862 21.202L665.917 16.9461C622.793 35.5801 586.866 21.5508 519.47 92.9361C463.249 152.485 430.601 153.989 366.166 123.586L365.675 123.354Z" fill="#5225EE"/>
</svg>
