<svg width="624" height="185" viewBox="0 0 624 185" fill="none" xmlns="http://www.w3.org/2000/svg">
<rect x="0.5" width="623" height="185" rx="92.5" fill="white"/>
<path d="M201.398 110.71C199.565 110.71 198.146 110.207 197.14 109.202C196.194 108.137 195.721 106.688 195.721 104.855V56.9533H178.423C176.886 56.9533 175.673 56.5393 174.786 55.7114C173.958 54.8243 173.544 53.6415 173.544 52.1631C173.544 50.6255 173.958 49.4723 174.786 48.7035C175.673 47.8756 176.886 47.4616 178.423 47.4616H224.373C225.911 47.4616 227.094 47.8756 227.922 48.7035C228.809 49.4723 229.252 50.6255 229.252 52.1631C229.252 53.6415 228.809 54.8243 227.922 55.7114C227.094 56.5393 225.911 56.9533 224.373 56.9533H207.076V104.855C207.076 106.688 206.603 108.137 205.656 109.202C204.71 110.207 203.291 110.71 201.398 110.71ZM247.346 110.887C242.437 110.887 238.209 109.97 234.661 108.137C231.112 106.304 228.363 103.702 226.411 100.331C224.519 96.9601 223.572 92.9683 223.572 88.3555C223.572 83.861 224.489 79.9284 226.322 76.5575C228.215 73.1866 230.787 70.555 234.04 68.6626C237.352 66.711 241.107 65.7352 245.306 65.7352C248.381 65.7352 251.131 66.2379 253.555 67.2433C256.039 68.2486 258.138 69.6975 259.853 71.5899C261.628 73.4823 262.958 75.7887 263.845 78.509C264.792 81.1702 265.265 84.1863 265.265 87.5571C265.265 88.6216 264.88 89.4496 264.111 90.0409C263.402 90.5732 262.367 90.8393 261.007 90.8393H232.532V84.4524H257.458L256.039 85.783C256.039 83.0627 255.625 80.7859 254.797 78.9526C254.028 77.1193 252.875 75.7296 251.338 74.7833C249.859 73.778 247.996 73.2753 245.749 73.2753C243.265 73.2753 241.136 73.8667 239.362 75.0495C237.647 76.1731 236.317 77.7994 235.37 79.9284C234.483 81.9982 234.04 84.482 234.04 87.3797V88.0007C234.04 92.85 235.163 96.487 237.411 98.9116C239.717 101.277 243.088 102.46 247.523 102.46C249.061 102.46 250.776 102.282 252.668 101.928C254.62 101.514 256.453 100.834 258.168 99.8874C259.41 99.1778 260.504 98.8821 261.45 99.0003C262.396 99.0595 263.136 99.3847 263.668 99.9761C264.259 100.567 264.614 101.307 264.732 102.194C264.851 103.022 264.673 103.879 264.2 104.766C263.786 105.653 263.047 106.422 261.982 107.073C259.913 108.374 257.518 109.349 254.797 110C252.136 110.591 249.652 110.887 247.346 110.887ZM286.554 110.887C283.419 110.887 280.61 110.296 278.126 109.113C275.702 107.871 273.78 106.215 272.36 104.145C271 102.076 270.32 99.7396 270.32 97.1375C270.32 93.944 271.148 91.4307 272.804 89.5974C274.46 87.705 277.151 86.3448 280.876 85.5169C284.602 84.689 289.599 84.275 295.868 84.275H300.303V90.6619H295.957C292.29 90.6619 289.363 90.8393 287.175 91.1941C284.986 91.549 283.419 92.1699 282.473 93.057C281.586 93.8849 281.142 95.0677 281.142 96.6053C281.142 98.5568 281.823 100.154 283.183 101.395C284.543 102.637 286.435 103.258 288.86 103.258C290.812 103.258 292.527 102.815 294.005 101.928C295.543 100.981 296.755 99.71 297.642 98.1133C298.529 96.5165 298.973 94.6833 298.973 92.6134V82.4121C298.973 79.4552 298.322 77.3263 297.021 76.0252C295.72 74.7242 293.532 74.0737 290.457 74.0737C288.742 74.0737 286.879 74.2807 284.868 74.6946C282.917 75.1086 280.847 75.8183 278.659 76.8236C277.535 77.3559 276.53 77.5037 275.643 77.2671C274.815 77.0306 274.164 76.5575 273.691 75.8478C273.218 75.079 272.981 74.2511 272.981 73.364C272.981 72.477 273.218 71.6195 273.691 70.7915C274.164 69.9045 274.963 69.254 276.086 68.84C278.807 67.7164 281.409 66.918 283.892 66.4449C286.435 65.9718 288.742 65.7352 290.812 65.7352C295.069 65.7352 298.559 66.3858 301.279 67.6868C304.058 68.9878 306.128 70.969 307.488 73.6302C308.849 76.2322 309.529 79.6031 309.529 83.7428V105.032C309.529 106.866 309.085 108.285 308.198 109.29C307.311 110.237 306.04 110.71 304.384 110.71C302.728 110.71 301.427 110.237 300.481 109.29C299.594 108.285 299.15 106.866 299.15 105.032V100.774H299.86C299.446 102.844 298.618 104.648 297.376 106.186C296.193 107.664 294.685 108.817 292.852 109.645C291.019 110.473 288.919 110.887 286.554 110.887ZM339.057 110.887C334.503 110.887 330.541 109.97 327.17 108.137C323.799 106.245 321.197 103.584 319.364 100.154C317.531 96.7235 316.614 92.7021 316.614 88.0894C316.614 84.6002 317.117 81.4955 318.122 78.7752C319.187 75.9957 320.695 73.6597 322.646 71.7673C324.598 69.8158 326.963 68.3373 329.743 67.332C332.522 66.2675 335.627 65.7352 339.057 65.7352C341.009 65.7352 343.108 66.0014 345.355 66.5336C347.662 67.0658 349.82 67.9529 351.831 69.1948C352.777 69.7862 353.398 70.4958 353.694 71.3238C353.989 72.1517 354.048 73.0092 353.871 73.8963C353.694 74.7242 353.309 75.4634 352.718 76.114C352.186 76.7053 351.506 77.0897 350.678 77.2671C349.85 77.3854 348.933 77.1784 347.928 76.6462C346.627 75.8774 345.296 75.3156 343.936 74.9608C342.576 74.5468 341.275 74.3398 340.033 74.3398C338.081 74.3398 336.366 74.6651 334.888 75.3156C333.409 75.907 332.138 76.794 331.073 77.9768C330.068 79.1004 329.299 80.5197 328.767 82.2347C328.235 83.9497 327.969 85.9309 327.969 88.1781C327.969 92.5543 329.004 96.0139 331.073 98.5568C333.202 101.041 336.189 102.282 340.033 102.282C341.275 102.282 342.546 102.105 343.847 101.75C345.207 101.395 346.568 100.834 347.928 100.065C348.933 99.5326 349.82 99.3552 350.589 99.5326C351.417 99.71 352.097 100.124 352.629 100.774C353.161 101.366 353.487 102.105 353.605 102.992C353.723 103.82 353.605 104.648 353.25 105.476C352.954 106.304 352.363 106.984 351.476 107.516C349.524 108.699 347.455 109.556 345.266 110.089C343.078 110.621 341.009 110.887 339.057 110.887ZM364.576 110.71C362.802 110.71 361.442 110.237 360.496 109.29C359.549 108.285 359.076 106.866 359.076 105.032V52.3405C359.076 50.5072 359.549 49.1175 360.496 48.1713C361.442 47.2251 362.802 46.752 364.576 46.752C366.35 46.752 367.71 47.2251 368.657 48.1713C369.662 49.1175 370.165 50.5072 370.165 52.3405V75.3156H368.923C370.224 72.1813 372.235 69.8158 374.955 68.219C377.734 66.5632 380.869 65.7352 384.358 65.7352C387.847 65.7352 390.715 66.3858 392.962 67.6868C395.21 68.9878 396.895 70.969 398.019 73.6302C399.142 76.2322 399.704 79.544 399.704 83.5653V105.032C399.704 106.866 399.231 108.285 398.285 109.29C397.339 110.237 395.978 110.71 394.204 110.71C392.43 110.71 391.04 110.237 390.035 109.29C389.089 108.285 388.616 106.866 388.616 105.032V84.0976C388.616 80.7267 387.965 78.2725 386.664 76.7349C385.422 75.1973 383.471 74.4285 380.81 74.4285C377.557 74.4285 374.955 75.4634 373.003 77.5333C371.111 79.544 370.165 82.2347 370.165 85.6056V105.032C370.165 108.817 368.302 110.71 364.576 110.71ZM437.888 110.71C436.232 110.71 434.96 110.237 434.073 109.29C433.186 108.344 432.743 107.043 432.743 105.387V52.0744C432.743 50.3594 433.216 49.0583 434.162 48.1713C435.108 47.2251 436.409 46.752 438.065 46.752C439.543 46.752 440.697 47.0476 441.525 47.639C442.412 48.1713 443.21 49.1175 443.92 50.4777L465.83 91.0167H462.992L484.902 50.4777C485.612 49.1175 486.381 48.1713 487.209 47.639C488.037 47.0476 489.19 46.752 490.668 46.752C492.324 46.752 493.596 47.2251 494.483 48.1713C495.37 49.0583 495.813 50.3594 495.813 52.0744V105.387C495.813 107.043 495.37 108.344 494.483 109.29C493.655 110.237 492.383 110.71 490.668 110.71C489.012 110.71 487.741 110.237 486.854 109.29C485.967 108.344 485.523 107.043 485.523 105.387V64.3159H487.475L468.846 98.2907C468.255 99.296 467.634 100.035 466.983 100.508C466.333 100.981 465.446 101.218 464.322 101.218C463.199 101.218 462.282 100.981 461.572 100.508C460.863 99.9761 460.242 99.2369 459.71 98.2907L440.904 64.2272H443.033V105.387C443.033 107.043 442.589 108.344 441.702 109.29C440.874 110.237 439.603 110.71 437.888 110.71Z" fill="#5225EE"/>
<path d="M512.164 104.905V70.6895" stroke="#5225EE" stroke-width="11.4052" stroke-linecap="round"/>
<circle cx="512.164" cy="52.9495" r="6.33621" fill="#00CE94"/>
<path d="M261.599 154.9C260.944 154.9 260.437 154.72 260.078 154.361C259.74 153.981 259.571 153.464 259.571 152.809V135.701H253.394C252.844 135.701 252.411 135.553 252.095 135.258C251.799 134.941 251.651 134.518 251.651 133.99C251.651 133.441 251.799 133.029 252.095 132.755C252.411 132.459 252.844 132.311 253.394 132.311H269.804C270.353 132.311 270.776 132.459 271.072 132.755C271.388 133.029 271.547 133.441 271.547 133.99C271.547 134.518 271.388 134.941 271.072 135.258C270.776 135.553 270.353 135.701 269.804 135.701H263.626V152.809C263.626 153.464 263.458 153.981 263.12 154.361C262.782 154.72 262.275 154.9 261.599 154.9ZM279.91 154.963C278.157 154.963 276.646 154.636 275.379 153.981C274.112 153.326 273.13 152.397 272.433 151.193C271.757 149.989 271.419 148.564 271.419 146.916C271.419 145.311 271.746 143.907 272.401 142.703C273.077 141.499 273.996 140.559 275.157 139.883C276.34 139.186 277.681 138.838 279.181 138.838C280.279 138.838 281.261 139.017 282.127 139.376C283.014 139.735 283.764 140.253 284.377 140.929C285.01 141.604 285.485 142.428 285.802 143.4C286.14 144.35 286.309 145.427 286.309 146.631C286.309 147.011 286.172 147.307 285.897 147.518C285.644 147.708 285.274 147.803 284.788 147.803H274.619V145.522H283.521L283.014 145.998C283.014 145.026 282.866 144.213 282.571 143.558C282.296 142.903 281.884 142.407 281.335 142.069C280.807 141.71 280.142 141.531 279.339 141.531C278.452 141.531 277.692 141.742 277.058 142.164C276.446 142.565 275.971 143.146 275.633 143.907C275.316 144.646 275.157 145.533 275.157 146.568V146.79C275.157 148.521 275.559 149.82 276.361 150.686C277.185 151.531 278.389 151.954 279.973 151.954C280.522 151.954 281.135 151.89 281.81 151.764C282.507 151.616 283.162 151.373 283.775 151.035C284.218 150.781 284.609 150.676 284.947 150.718C285.285 150.739 285.549 150.855 285.739 151.067C285.95 151.278 286.077 151.542 286.119 151.859C286.161 152.154 286.098 152.46 285.929 152.777C285.781 153.094 285.517 153.369 285.137 153.601C284.398 154.066 283.542 154.414 282.571 154.646C281.62 154.858 280.733 154.963 279.91 154.963ZM297.872 154.963C296.246 154.963 294.831 154.636 293.627 153.981C292.423 153.305 291.494 152.355 290.839 151.13C290.185 149.905 289.857 148.469 289.857 146.821C289.857 145.575 290.037 144.466 290.396 143.495C290.776 142.502 291.314 141.668 292.011 140.992C292.708 140.295 293.553 139.767 294.546 139.408C295.539 139.028 296.647 138.838 297.872 138.838C298.569 138.838 299.319 138.933 300.122 139.123C300.946 139.313 301.716 139.63 302.435 140.073C302.772 140.284 302.994 140.538 303.1 140.834C303.205 141.129 303.227 141.435 303.163 141.752C303.1 142.048 302.963 142.312 302.751 142.544C302.561 142.756 302.318 142.893 302.023 142.956C301.727 142.998 301.4 142.924 301.041 142.734C300.576 142.46 300.101 142.259 299.615 142.132C299.129 141.985 298.664 141.911 298.221 141.911C297.524 141.911 296.911 142.027 296.383 142.259C295.855 142.47 295.401 142.787 295.021 143.21C294.662 143.611 294.388 144.118 294.197 144.73C294.007 145.343 293.912 146.05 293.912 146.853C293.912 148.416 294.282 149.651 295.021 150.56C295.782 151.447 296.848 151.89 298.221 151.89C298.664 151.89 299.119 151.827 299.583 151.7C300.069 151.573 300.555 151.373 301.041 151.098C301.4 150.908 301.716 150.845 301.991 150.908C302.287 150.971 302.53 151.119 302.72 151.352C302.91 151.563 303.026 151.827 303.068 152.144C303.11 152.439 303.068 152.735 302.941 153.031C302.836 153.326 302.625 153.569 302.308 153.759C301.611 154.182 300.872 154.488 300.09 154.678C299.309 154.868 298.569 154.963 297.872 154.963ZM308.887 154.9C308.254 154.9 307.768 154.731 307.43 154.393C307.092 154.034 306.923 153.527 306.923 152.872V134.054C306.923 133.399 307.092 132.903 307.43 132.565C307.768 132.227 308.254 132.058 308.887 132.058C309.521 132.058 310.007 132.227 310.345 132.565C310.704 132.903 310.883 133.399 310.883 134.054V142.259H310.44C310.904 141.14 311.622 140.295 312.594 139.725C313.587 139.133 314.706 138.838 315.952 138.838C317.198 138.838 318.223 139.07 319.025 139.535C319.828 139.999 320.43 140.707 320.831 141.657C321.232 142.587 321.433 143.769 321.433 145.206V152.872C321.433 153.527 321.264 154.034 320.926 154.393C320.588 154.731 320.102 154.9 319.469 154.9C318.835 154.9 318.339 154.731 317.98 154.393C317.642 154.034 317.473 153.527 317.473 152.872V145.396C317.473 144.192 317.241 143.315 316.776 142.766C316.332 142.217 315.635 141.942 314.685 141.942C313.523 141.942 312.594 142.312 311.897 143.051C311.221 143.769 310.883 144.73 310.883 145.934V152.872C310.883 154.224 310.218 154.9 308.887 154.9ZM347.362 154.963C345.039 154.963 343.043 154.499 341.375 153.569C339.727 152.619 338.46 151.288 337.573 149.578C336.686 147.846 336.242 145.807 336.242 143.463C336.242 141.71 336.496 140.137 337.003 138.743C337.509 137.328 338.238 136.124 339.189 135.131C340.139 134.117 341.301 133.346 342.673 132.818C344.067 132.269 345.63 131.995 347.362 131.995C348.524 131.995 349.664 132.142 350.784 132.438C351.903 132.734 352.885 133.156 353.73 133.705C354.174 133.98 354.469 134.318 354.617 134.719C354.765 135.099 354.797 135.479 354.712 135.86C354.628 136.219 354.448 136.525 354.174 136.778C353.92 137.032 353.593 137.18 353.192 137.222C352.811 137.243 352.389 137.106 351.924 136.81C351.27 136.388 350.562 136.081 349.802 135.891C349.041 135.701 348.27 135.606 347.489 135.606C345.989 135.606 344.722 135.912 343.687 136.525C342.652 137.137 341.871 138.024 341.343 139.186C340.815 140.348 340.551 141.773 340.551 143.463C340.551 145.132 340.815 146.557 341.343 147.74C341.871 148.923 342.652 149.82 343.687 150.433C344.722 151.045 345.989 151.352 347.489 151.352C348.292 151.352 349.084 151.257 349.865 151.067C350.646 150.855 351.386 150.539 352.083 150.116C352.547 149.842 352.959 149.725 353.318 149.768C353.698 149.789 354.015 149.915 354.269 150.148C354.522 150.38 354.691 150.676 354.776 151.035C354.86 151.373 354.839 151.732 354.712 152.112C354.585 152.471 354.332 152.788 353.952 153.062C353.107 153.675 352.093 154.15 350.91 154.488C349.749 154.805 348.566 154.963 347.362 154.963ZM364.682 154.963C362.929 154.963 361.609 154.467 360.722 153.474C359.835 152.46 359.391 150.982 359.391 149.039V134.054C359.391 133.399 359.56 132.903 359.898 132.565C360.236 132.227 360.722 132.058 361.355 132.058C361.989 132.058 362.475 132.227 362.813 132.565C363.172 132.903 363.351 133.399 363.351 134.054V148.849C363.351 149.82 363.552 150.539 363.953 151.003C364.376 151.468 364.967 151.7 365.727 151.7C365.896 151.7 366.055 151.7 366.203 151.7C366.35 151.679 366.498 151.658 366.646 151.637C366.942 151.595 367.142 151.679 367.248 151.89C367.354 152.08 367.406 152.482 367.406 153.094C367.406 153.622 367.301 154.034 367.09 154.33C366.878 154.625 366.53 154.805 366.044 154.868C365.833 154.889 365.611 154.91 365.379 154.932C365.147 154.953 364.914 154.963 364.682 154.963ZM376.383 154.963C375.094 154.963 374.028 154.731 373.183 154.266C372.338 153.781 371.705 153.062 371.282 152.112C370.881 151.162 370.68 149.979 370.68 148.564V140.897C370.68 140.221 370.849 139.725 371.187 139.408C371.525 139.07 372.011 138.901 372.644 138.901C373.278 138.901 373.764 139.07 374.102 139.408C374.461 139.725 374.64 140.221 374.64 140.897V148.627C374.64 149.725 374.862 150.539 375.306 151.067C375.749 151.595 376.457 151.859 377.428 151.859C378.484 151.859 379.35 151.5 380.026 150.781C380.702 150.042 381.04 149.071 381.04 147.867V140.897C381.04 140.221 381.209 139.725 381.547 139.408C381.885 139.07 382.371 138.901 383.004 138.901C383.638 138.901 384.124 139.07 384.461 139.408C384.821 139.725 385 140.221 385 140.897V152.872C385 154.224 384.356 154.9 383.068 154.9C382.455 154.9 381.98 154.731 381.642 154.393C381.304 154.034 381.135 153.527 381.135 152.872V150.465L381.578 151.415C381.135 152.556 380.459 153.432 379.551 154.045C378.664 154.657 377.608 154.963 376.383 154.963ZM399.323 154.963C398.014 154.963 396.863 154.636 395.87 153.981C394.898 153.326 394.254 152.45 393.937 151.352L394.286 150.56V152.872C394.286 153.527 394.117 154.034 393.779 154.393C393.441 154.731 392.966 154.9 392.353 154.9C391.72 154.9 391.234 154.731 390.896 154.393C390.558 154.034 390.389 153.527 390.389 152.872V134.054C390.389 133.399 390.558 132.903 390.896 132.565C391.234 132.227 391.72 132.058 392.353 132.058C392.987 132.058 393.473 132.227 393.811 132.565C394.17 132.903 394.349 133.399 394.349 134.054V142.291H393.969C394.307 141.256 394.962 140.422 395.933 139.788C396.905 139.154 398.035 138.838 399.323 138.838C400.696 138.838 401.889 139.165 402.903 139.82C403.917 140.474 404.709 141.404 405.279 142.608C405.849 143.79 406.135 145.216 406.135 146.885C406.135 148.532 405.849 149.968 405.279 151.193C404.709 152.397 403.906 153.326 402.871 153.981C401.858 154.636 400.675 154.963 399.323 154.963ZM398.214 151.954C398.996 151.954 399.682 151.764 400.274 151.383C400.865 151.003 401.319 150.443 401.636 149.704C401.974 148.944 402.143 148.004 402.143 146.885C402.143 145.195 401.784 143.938 401.066 143.115C400.347 142.27 399.397 141.847 398.214 141.847C397.433 141.847 396.746 142.037 396.155 142.418C395.564 142.777 395.099 143.336 394.761 144.097C394.444 144.836 394.286 145.765 394.286 146.885C394.286 148.553 394.645 149.82 395.363 150.686C396.081 151.531 397.032 151.954 398.214 151.954Z" fill="#00CE94"/>
<path fill-rule="evenodd" clip-rule="evenodd" d="M86.5762 66.2539C90.5387 66.2539 93.751 69.5399 93.751 73.5933V121.119C93.751 132.011 102.009 139.648 114.251 139.648C126.492 139.648 134.75 132.011 134.75 121.119V73.5933C134.75 69.5399 137.962 66.2539 141.925 66.2539C145.887 66.2539 149.1 69.5399 149.1 73.5933V121.119C149.1 141.88 132.577 154.327 114.251 154.327C95.9239 154.327 79.4014 141.88 79.4014 121.119V73.5933C79.4014 69.5399 82.6136 66.2539 86.5762 66.2539Z" fill="#5225EE"/>
<circle cx="87.0043" cy="50.4145" r="9.50431" fill="#00CE94"/>
<circle cx="142.129" cy="50.4145" r="9.50431" fill="#00CE94"/>
</svg>
