<svg width="623" height="185" viewBox="0 0 623 185" fill="none" xmlns="http://www.w3.org/2000/svg">
<rect width="623" height="185" rx="92.5" fill="white"/>
<path d="M200.898 110.71C199.065 110.71 197.646 110.207 196.64 109.202C195.694 108.137 195.221 106.688 195.221 104.855V56.9533H177.923C176.386 56.9533 175.173 56.5393 174.286 55.7114C173.458 54.8243 173.044 53.6415 173.044 52.1631C173.044 50.6255 173.458 49.4723 174.286 48.7035C175.173 47.8756 176.386 47.4616 177.923 47.4616H223.873C225.411 47.4616 226.594 47.8756 227.422 48.7035C228.309 49.4723 228.752 50.6255 228.752 52.1631C228.752 53.6415 228.309 54.8243 227.422 55.7114C226.594 56.5393 225.411 56.9533 223.873 56.9533H206.576V104.855C206.576 106.688 206.103 108.137 205.156 109.202C204.21 110.207 202.791 110.71 200.898 110.71ZM246.846 110.887C241.937 110.887 237.709 109.97 234.161 108.137C230.612 106.304 227.863 103.702 225.911 100.331C224.019 96.9601 223.072 92.9683 223.072 88.3555C223.072 83.861 223.989 79.9284 225.822 76.5575C227.715 73.1866 230.287 70.555 233.54 68.6626C236.852 66.711 240.607 65.7352 244.806 65.7352C247.881 65.7352 250.631 66.2379 253.055 67.2433C255.539 68.2486 257.638 69.6975 259.353 71.5899C261.128 73.4823 262.458 75.7887 263.345 78.509C264.292 81.1702 264.765 84.1863 264.765 87.5571C264.765 88.6216 264.38 89.4496 263.611 90.0409C262.902 90.5732 261.867 90.8393 260.507 90.8393H232.032V84.4524H256.958L255.539 85.783C255.539 83.0627 255.125 80.7859 254.297 78.9526C253.528 77.1193 252.375 75.7296 250.838 74.7833C249.359 73.778 247.496 73.2753 245.249 73.2753C242.765 73.2753 240.636 73.8667 238.862 75.0495C237.147 76.1731 235.817 77.7994 234.87 79.9284C233.983 81.9982 233.54 84.482 233.54 87.3797V88.0007C233.54 92.85 234.663 96.487 236.911 98.9116C239.217 101.277 242.588 102.46 247.023 102.46C248.561 102.46 250.276 102.282 252.168 101.928C254.12 101.514 255.953 100.834 257.668 99.8874C258.91 99.1778 260.004 98.8821 260.95 99.0003C261.896 99.0595 262.636 99.3847 263.168 99.9761C263.759 100.567 264.114 101.307 264.232 102.194C264.351 103.022 264.173 103.879 263.7 104.766C263.286 105.653 262.547 106.422 261.482 107.073C259.413 108.374 257.018 109.349 254.297 110C251.636 110.591 249.152 110.887 246.846 110.887ZM286.054 110.887C282.919 110.887 280.11 110.296 277.626 109.113C275.202 107.871 273.28 106.215 271.86 104.145C270.5 102.076 269.82 99.7396 269.82 97.1375C269.82 93.944 270.648 91.4307 272.304 89.5974C273.96 87.705 276.651 86.3448 280.376 85.5169C284.102 84.689 289.099 84.275 295.368 84.275H299.803V90.6619H295.457C291.79 90.6619 288.863 90.8393 286.675 91.1941C284.486 91.549 282.919 92.1699 281.973 93.057C281.086 93.8849 280.642 95.0677 280.642 96.6053C280.642 98.5568 281.323 100.154 282.683 101.395C284.043 102.637 285.935 103.258 288.36 103.258C290.312 103.258 292.027 102.815 293.505 101.928C295.043 100.981 296.255 99.71 297.142 98.1133C298.029 96.5165 298.473 94.6833 298.473 92.6134V82.4121C298.473 79.4552 297.822 77.3263 296.521 76.0252C295.22 74.7242 293.032 74.0737 289.957 74.0737C288.242 74.0737 286.379 74.2807 284.368 74.6946C282.417 75.1086 280.347 75.8183 278.159 76.8236C277.035 77.3559 276.03 77.5037 275.143 77.2671C274.315 77.0306 273.664 76.5575 273.191 75.8478C272.718 75.079 272.481 74.2511 272.481 73.364C272.481 72.477 272.718 71.6195 273.191 70.7915C273.664 69.9045 274.463 69.254 275.586 68.84C278.307 67.7164 280.909 66.918 283.392 66.4449C285.935 65.9718 288.242 65.7352 290.312 65.7352C294.569 65.7352 298.059 66.3858 300.779 67.6868C303.558 68.9878 305.628 70.969 306.988 73.6302C308.349 76.2322 309.029 79.6031 309.029 83.7428V105.032C309.029 106.866 308.585 108.285 307.698 109.29C306.811 110.237 305.54 110.71 303.884 110.71C302.228 110.71 300.927 110.237 299.981 109.29C299.094 108.285 298.65 106.866 298.65 105.032V100.774H299.36C298.946 102.844 298.118 104.648 296.876 106.186C295.693 107.664 294.185 108.817 292.352 109.645C290.519 110.473 288.419 110.887 286.054 110.887ZM338.557 110.887C334.003 110.887 330.041 109.97 326.67 108.137C323.299 106.245 320.697 103.584 318.864 100.154C317.031 96.7235 316.114 92.7021 316.114 88.0894C316.114 84.6002 316.617 81.4955 317.622 78.7752C318.687 75.9957 320.195 73.6597 322.146 71.7673C324.098 69.8158 326.463 68.3373 329.243 67.332C332.022 66.2675 335.127 65.7352 338.557 65.7352C340.509 65.7352 342.608 66.0014 344.855 66.5336C347.162 67.0658 349.32 67.9529 351.331 69.1948C352.277 69.7862 352.898 70.4958 353.194 71.3238C353.489 72.1517 353.548 73.0092 353.371 73.8963C353.194 74.7242 352.809 75.4634 352.218 76.114C351.686 76.7053 351.006 77.0897 350.178 77.2671C349.35 77.3854 348.433 77.1784 347.428 76.6462C346.127 75.8774 344.796 75.3156 343.436 74.9608C342.076 74.5468 340.775 74.3398 339.533 74.3398C337.581 74.3398 335.866 74.6651 334.388 75.3156C332.909 75.907 331.638 76.794 330.573 77.9768C329.568 79.1004 328.799 80.5197 328.267 82.2347C327.735 83.9497 327.469 85.9309 327.469 88.1781C327.469 92.5543 328.504 96.0139 330.573 98.5568C332.702 101.041 335.689 102.282 339.533 102.282C340.775 102.282 342.046 102.105 343.347 101.75C344.707 101.395 346.068 100.834 347.428 100.065C348.433 99.5326 349.32 99.3552 350.089 99.5326C350.917 99.71 351.597 100.124 352.129 100.774C352.661 101.366 352.987 102.105 353.105 102.992C353.223 103.82 353.105 104.648 352.75 105.476C352.454 106.304 351.863 106.984 350.976 107.516C349.024 108.699 346.955 109.556 344.766 110.089C342.578 110.621 340.509 110.887 338.557 110.887ZM364.076 110.71C362.302 110.71 360.942 110.237 359.996 109.29C359.049 108.285 358.576 106.866 358.576 105.032V52.3405C358.576 50.5072 359.049 49.1175 359.996 48.1713C360.942 47.2251 362.302 46.752 364.076 46.752C365.85 46.752 367.21 47.2251 368.157 48.1713C369.162 49.1175 369.665 50.5072 369.665 52.3405V75.3156H368.423C369.724 72.1813 371.735 69.8158 374.455 68.219C377.234 66.5632 380.369 65.7352 383.858 65.7352C387.347 65.7352 390.215 66.3858 392.462 67.6868C394.71 68.9878 396.395 70.969 397.519 73.6302C398.642 76.2322 399.204 79.544 399.204 83.5653V105.032C399.204 106.866 398.731 108.285 397.785 109.29C396.839 110.237 395.478 110.71 393.704 110.71C391.93 110.71 390.54 110.237 389.535 109.29C388.589 108.285 388.116 106.866 388.116 105.032V84.0976C388.116 80.7267 387.465 78.2725 386.164 76.7349C384.922 75.1973 382.971 74.4285 380.31 74.4285C377.057 74.4285 374.455 75.4634 372.503 77.5333C370.611 79.544 369.665 82.2347 369.665 85.6056V105.032C369.665 108.817 367.802 110.71 364.076 110.71ZM437.388 110.71C435.732 110.71 434.46 110.237 433.573 109.29C432.686 108.344 432.243 107.043 432.243 105.387V52.0744C432.243 50.3594 432.716 49.0583 433.662 48.1713C434.608 47.2251 435.909 46.752 437.565 46.752C439.043 46.752 440.197 47.0476 441.025 47.639C441.912 48.1713 442.71 49.1175 443.42 50.4777L465.33 91.0167H462.492L484.402 50.4777C485.112 49.1175 485.881 48.1713 486.709 47.639C487.537 47.0476 488.69 46.752 490.168 46.752C491.824 46.752 493.096 47.2251 493.983 48.1713C494.87 49.0583 495.313 50.3594 495.313 52.0744V105.387C495.313 107.043 494.87 108.344 493.983 109.29C493.155 110.237 491.883 110.71 490.168 110.71C488.512 110.71 487.241 110.237 486.354 109.29C485.467 108.344 485.023 107.043 485.023 105.387V64.3159H486.975L468.346 98.2907C467.755 99.296 467.134 100.035 466.483 100.508C465.833 100.981 464.946 101.218 463.822 101.218C462.699 101.218 461.782 100.981 461.072 100.508C460.363 99.9761 459.742 99.2369 459.21 98.2907L440.404 64.2272H442.533V105.387C442.533 107.043 442.089 108.344 441.202 109.29C440.374 110.237 439.103 110.71 437.388 110.71Z" fill="#5225EE"/>
<path d="M511.664 104.905V70.6895" stroke="#5225EE" stroke-width="11.4052" stroke-linecap="round"/>
<circle cx="511.664" cy="52.949" r="6.33621" fill="#00CE94"/>
<path d="M261.099 154.899C260.444 154.899 259.937 154.719 259.578 154.36C259.24 153.98 259.071 153.463 259.071 152.808V135.7H252.894C252.344 135.7 251.912 135.552 251.595 135.257C251.299 134.94 251.151 134.517 251.151 133.989C251.151 133.44 251.299 133.028 251.595 132.754C251.912 132.458 252.344 132.31 252.894 132.31H269.304C269.854 132.31 270.276 132.458 270.572 132.754C270.888 133.028 271.047 133.44 271.047 133.989C271.047 134.517 270.888 134.94 270.572 135.257C270.276 135.552 269.854 135.7 269.304 135.7H263.127V152.808C263.127 153.463 262.958 153.98 262.62 154.36C262.282 154.719 261.775 154.899 261.099 154.899ZM279.41 154.962C277.657 154.962 276.147 154.635 274.879 153.98C273.612 153.325 272.63 152.396 271.933 151.192C271.257 149.988 270.919 148.563 270.919 146.915C270.919 145.31 271.247 143.906 271.901 142.702C272.577 141.498 273.496 140.558 274.658 139.882C275.84 139.185 277.181 138.837 278.681 138.837C279.779 138.837 280.761 139.016 281.627 139.375C282.514 139.734 283.264 140.252 283.877 140.928C284.51 141.603 284.986 142.427 285.302 143.399C285.64 144.349 285.809 145.426 285.809 146.63C285.809 147.01 285.672 147.306 285.397 147.517C285.144 147.707 284.774 147.802 284.289 147.802H274.119V145.521H283.021L282.514 145.997C282.514 145.025 282.367 144.212 282.071 143.557C281.796 142.902 281.384 142.406 280.835 142.068C280.307 141.709 279.642 141.53 278.839 141.53C277.952 141.53 277.192 141.741 276.558 142.163C275.946 142.564 275.471 143.145 275.133 143.906C274.816 144.645 274.658 145.532 274.658 146.567V146.789C274.658 148.521 275.059 149.819 275.861 150.685C276.685 151.53 277.889 151.953 279.473 151.953C280.022 151.953 280.635 151.889 281.311 151.763C282.008 151.615 282.662 151.372 283.275 151.034C283.718 150.78 284.109 150.675 284.447 150.717C284.785 150.738 285.049 150.854 285.239 151.066C285.45 151.277 285.577 151.541 285.619 151.858C285.661 152.153 285.598 152.46 285.429 152.776C285.281 153.093 285.017 153.368 284.637 153.6C283.898 154.065 283.042 154.413 282.071 154.646C281.12 154.857 280.233 154.962 279.41 154.962ZM297.373 154.962C295.746 154.962 294.331 154.635 293.127 153.98C291.923 153.304 290.994 152.354 290.339 151.129C289.685 149.904 289.357 148.468 289.357 146.82C289.357 145.574 289.537 144.465 289.896 143.494C290.276 142.501 290.815 141.667 291.512 140.991C292.209 140.294 293.053 139.766 294.046 139.407C295.039 139.027 296.148 138.837 297.373 138.837C298.07 138.837 298.819 138.932 299.622 139.122C300.446 139.312 301.217 139.629 301.935 140.072C302.273 140.283 302.494 140.537 302.6 140.833C302.706 141.128 302.727 141.435 302.663 141.751C302.6 142.047 302.463 142.311 302.251 142.543C302.061 142.755 301.818 142.892 301.523 142.955C301.227 142.997 300.9 142.924 300.541 142.733C300.076 142.459 299.601 142.258 299.115 142.131C298.629 141.984 298.165 141.91 297.721 141.91C297.024 141.91 296.412 142.026 295.884 142.258C295.356 142.469 294.901 142.786 294.521 143.209C294.162 143.61 293.888 144.117 293.698 144.729C293.507 145.342 293.412 146.049 293.412 146.852C293.412 148.415 293.782 149.65 294.521 150.559C295.282 151.446 296.348 151.889 297.721 151.889C298.165 151.889 298.619 151.826 299.083 151.699C299.569 151.572 300.055 151.372 300.541 151.097C300.9 150.907 301.217 150.844 301.491 150.907C301.787 150.971 302.03 151.118 302.22 151.351C302.41 151.562 302.526 151.826 302.568 152.143C302.611 152.438 302.568 152.734 302.442 153.03C302.336 153.325 302.125 153.568 301.808 153.758C301.111 154.181 300.372 154.487 299.59 154.677C298.809 154.867 298.07 154.962 297.373 154.962ZM308.387 154.899C307.754 154.899 307.268 154.73 306.93 154.392C306.592 154.033 306.423 153.526 306.423 152.871V134.053C306.423 133.398 306.592 132.902 306.93 132.564C307.268 132.226 307.754 132.057 308.387 132.057C309.021 132.057 309.507 132.226 309.845 132.564C310.204 132.902 310.383 133.398 310.383 134.053V142.258H309.94C310.404 141.139 311.123 140.294 312.094 139.724C313.087 139.132 314.206 138.837 315.452 138.837C316.698 138.837 317.723 139.069 318.525 139.534C319.328 139.998 319.93 140.706 320.331 141.656C320.732 142.586 320.933 143.768 320.933 145.205V152.871C320.933 153.526 320.764 154.033 320.426 154.392C320.088 154.73 319.603 154.899 318.969 154.899C318.335 154.899 317.839 154.73 317.48 154.392C317.142 154.033 316.973 153.526 316.973 152.871V145.395C316.973 144.191 316.741 143.314 316.276 142.765C315.832 142.216 315.136 141.941 314.185 141.941C313.023 141.941 312.094 142.311 311.397 143.05C310.721 143.768 310.383 144.729 310.383 145.933V152.871C310.383 154.223 309.718 154.899 308.387 154.899ZM346.862 154.962C344.539 154.962 342.543 154.498 340.875 153.568C339.227 152.618 337.96 151.287 337.073 149.577C336.186 147.845 335.742 145.806 335.742 143.462C335.742 141.709 335.996 140.136 336.503 138.742C337.01 137.327 337.738 136.123 338.689 135.13C339.639 134.116 340.801 133.345 342.174 132.817C343.568 132.268 345.13 131.994 346.862 131.994C348.024 131.994 349.164 132.141 350.284 132.437C351.403 132.733 352.385 133.155 353.23 133.704C353.674 133.979 353.969 134.317 354.117 134.718C354.265 135.098 354.297 135.478 354.212 135.859C354.128 136.218 353.948 136.524 353.674 136.777C353.42 137.031 353.093 137.179 352.692 137.221C352.311 137.242 351.889 137.105 351.424 136.809C350.77 136.387 350.062 136.08 349.302 135.89C348.541 135.7 347.771 135.605 346.989 135.605C345.489 135.605 344.222 135.911 343.187 136.524C342.152 137.136 341.371 138.024 340.843 139.185C340.315 140.347 340.051 141.772 340.051 143.462C340.051 145.131 340.315 146.556 340.843 147.739C341.371 148.922 342.152 149.819 343.187 150.432C344.222 151.044 345.489 151.351 346.989 151.351C347.792 151.351 348.584 151.256 349.365 151.066C350.147 150.854 350.886 150.538 351.583 150.115C352.047 149.841 352.459 149.724 352.818 149.767C353.199 149.788 353.515 149.914 353.769 150.147C354.022 150.379 354.191 150.675 354.276 151.034C354.36 151.372 354.339 151.731 354.212 152.111C354.086 152.47 353.832 152.787 353.452 153.061C352.607 153.674 351.593 154.149 350.411 154.487C349.249 154.804 348.066 154.962 346.862 154.962ZM363.435 154.962C362.316 154.962 361.312 154.751 360.425 154.329C359.559 153.885 358.873 153.294 358.366 152.555C357.88 151.815 357.637 150.981 357.637 150.052C357.637 148.911 357.933 148.014 358.524 147.359C359.116 146.683 360.077 146.197 361.407 145.902C362.738 145.606 364.523 145.458 366.762 145.458H368.346V147.739H366.793C365.484 147.739 364.438 147.802 363.657 147.929C362.875 148.056 362.316 148.278 361.978 148.594C361.661 148.89 361.502 149.313 361.502 149.862C361.502 150.559 361.745 151.129 362.231 151.572C362.717 152.016 363.393 152.238 364.259 152.238C364.956 152.238 365.568 152.079 366.096 151.763C366.645 151.425 367.078 150.971 367.395 150.4C367.712 149.83 367.87 149.175 367.87 148.436V144.793C367.87 143.737 367.638 142.976 367.173 142.512C366.709 142.047 365.927 141.815 364.829 141.815C364.216 141.815 363.551 141.889 362.833 142.036C362.136 142.184 361.397 142.438 360.615 142.797C360.214 142.987 359.855 143.04 359.538 142.955C359.243 142.871 359.01 142.702 358.841 142.448C358.672 142.174 358.588 141.878 358.588 141.561C358.588 141.244 358.672 140.938 358.841 140.642C359.01 140.326 359.295 140.093 359.697 139.946C360.668 139.544 361.597 139.259 362.485 139.09C363.393 138.921 364.216 138.837 364.956 138.837C366.476 138.837 367.722 139.069 368.694 139.534C369.687 139.998 370.426 140.706 370.912 141.656C371.397 142.586 371.64 143.789 371.64 145.268V152.871C371.64 153.526 371.482 154.033 371.165 154.392C370.848 154.73 370.394 154.899 369.803 154.899C369.212 154.899 368.747 154.73 368.409 154.392C368.092 154.033 367.934 153.526 367.934 152.871V151.351H368.187C368.039 152.09 367.744 152.734 367.3 153.283C366.878 153.811 366.339 154.223 365.684 154.519C365.03 154.814 364.28 154.962 363.435 154.962ZM378.955 154.899C378.321 154.899 377.835 154.73 377.497 154.392C377.159 154.033 376.991 153.526 376.991 152.871V140.896C376.991 140.241 377.159 139.745 377.497 139.407C377.835 139.069 378.311 138.9 378.923 138.9C379.536 138.9 380.011 139.069 380.349 139.407C380.687 139.745 380.856 140.241 380.856 140.896V143.209L380.507 142.258C380.93 141.202 381.584 140.368 382.471 139.755C383.358 139.143 384.414 138.837 385.639 138.837C386.886 138.837 387.91 139.132 388.713 139.724C389.515 140.315 390.075 141.223 390.392 142.448H389.948C390.37 141.329 391.067 140.452 392.039 139.819C393.011 139.164 394.13 138.837 395.397 138.837C396.58 138.837 397.552 139.069 398.312 139.534C399.093 139.998 399.674 140.706 400.054 141.656C400.434 142.586 400.625 143.768 400.625 145.205V152.871C400.625 153.526 400.445 154.033 400.086 154.392C399.748 154.73 399.262 154.899 398.629 154.899C397.995 154.899 397.509 154.73 397.171 154.392C396.833 154.033 396.664 153.526 396.664 152.871V145.363C396.664 144.18 396.464 143.314 396.063 142.765C395.682 142.216 395.028 141.941 394.098 141.941C393.063 141.941 392.25 142.311 391.659 143.05C391.067 143.768 390.772 144.772 390.772 146.06V152.871C390.772 153.526 390.603 154.033 390.265 154.392C389.927 154.73 389.441 154.899 388.808 154.899C388.174 154.899 387.678 154.73 387.319 154.392C386.981 154.033 386.812 153.526 386.812 152.871V145.363C386.812 144.18 386.611 143.314 386.21 142.765C385.83 142.216 385.185 141.941 384.277 141.941C383.242 141.941 382.429 142.311 381.838 143.05C381.246 143.768 380.951 144.772 380.951 146.06V152.871C380.951 154.223 380.285 154.899 378.955 154.899ZM407.941 160.602C407.308 160.602 406.822 160.433 406.484 160.095C406.146 159.757 405.977 159.26 405.977 158.606V140.896C405.977 140.241 406.146 139.745 406.484 139.407C406.822 139.069 407.297 138.9 407.91 138.9C408.543 138.9 409.029 139.069 409.367 139.407C409.705 139.745 409.874 140.241 409.874 140.896V143.367L409.525 142.417C409.842 141.339 410.486 140.474 411.458 139.819C412.451 139.164 413.602 138.837 414.911 138.837C416.263 138.837 417.446 139.164 418.46 139.819C419.494 140.474 420.297 141.403 420.867 142.607C421.438 143.789 421.723 145.215 421.723 146.884C421.723 148.531 421.438 149.967 420.867 151.192C420.297 152.396 419.505 153.325 418.491 153.98C417.477 154.635 416.284 154.962 414.911 154.962C413.623 154.962 412.493 154.646 411.521 154.012C410.55 153.357 409.895 152.512 409.557 151.477H409.937V158.606C409.937 159.26 409.758 159.757 409.399 160.095C409.061 160.433 408.575 160.602 407.941 160.602ZM413.802 151.953C414.584 151.953 415.27 151.763 415.862 151.382C416.453 151.002 416.907 150.442 417.224 149.703C417.562 148.943 417.731 148.003 417.731 146.884C417.731 145.194 417.372 143.937 416.654 143.114C415.936 142.269 414.985 141.846 413.802 141.846C413.021 141.846 412.335 142.036 411.743 142.417C411.152 142.776 410.687 143.335 410.349 144.096C410.032 144.835 409.874 145.764 409.874 146.884C409.874 148.552 410.233 149.819 410.951 150.685C411.669 151.53 412.62 151.953 413.802 151.953Z" fill="#00CE94"/>
<path fill-rule="evenodd" clip-rule="evenodd" d="M86.0758 66.2544C90.0384 66.2544 93.2507 69.5404 93.2507 73.5938V121.12C93.2507 132.011 101.509 139.649 113.75 139.649C125.992 139.649 134.25 132.011 134.25 121.12V73.5938C134.25 69.5404 137.462 66.2544 141.424 66.2544C145.387 66.2544 148.599 69.5404 148.599 73.5938V121.12C148.599 141.88 132.077 154.328 113.75 154.328C95.4235 154.328 78.901 141.88 78.901 121.12V73.5938C78.901 69.5404 82.1133 66.2544 86.0758 66.2544Z" fill="#5225EE"/>
<circle cx="86.5043" cy="50.414" r="9.50431" fill="#00CE94"/>
<circle cx="141.629" cy="50.414" r="9.50431" fill="#00CE94"/>
</svg>
