<svg width="366" height="425" viewBox="0 0 366 425" fill="none" xmlns="http://www.w3.org/2000/svg">
<path d="M-96.7008 159.841C-91.2874 242.428 -49.6021 258.258 -24.3001 329.098C-9.87763 369.46 -14.9704 417.937 22.3069 451.512C50.3469 476.759 88.4916 482.448 116.171 473.136C129.099 468.785 139.397 452.897 152.283 449.798C178.877 443.414 203.06 459.789 231.93 467.658C265.211 476.714 297.146 477.404 317.526 446.051C337.411 415.475 327.72 369.693 338.88 333.746C350.564 296.117 376.663 283.785 360.364 232.584C347.394 191.863 312.961 173.237 291.697 141.532C237.33 60.4998 226.366 -9.35608 132.514 2.10094C93.2528 6.89602 60.2587 29.8865 21.2372 30.7242C-48.1417 32.2464 -103.882 50.2755 -96.7008 159.841Z" fill="#FDBA17"/>
</svg>
