<svg width="623" height="185" viewBox="0 0 623 185" fill="none" xmlns="http://www.w3.org/2000/svg">
<rect width="623" height="185" rx="92.5" fill="white"/>
<path d="M200.898 110.71C199.065 110.71 197.646 110.207 196.64 109.202C195.694 108.137 195.221 106.688 195.221 104.855V56.9533H177.923C176.386 56.9533 175.173 56.5393 174.286 55.7114C173.458 54.8243 173.044 53.6415 173.044 52.1631C173.044 50.6255 173.458 49.4723 174.286 48.7035C175.173 47.8756 176.386 47.4616 177.923 47.4616H223.873C225.411 47.4616 226.594 47.8756 227.422 48.7035C228.309 49.4723 228.752 50.6255 228.752 52.1631C228.752 53.6415 228.309 54.8243 227.422 55.7114C226.594 56.5393 225.411 56.9533 223.873 56.9533H206.576V104.855C206.576 106.688 206.103 108.137 205.156 109.202C204.21 110.207 202.791 110.71 200.898 110.71ZM246.846 110.887C241.937 110.887 237.709 109.97 234.161 108.137C230.612 106.304 227.863 103.702 225.911 100.331C224.019 96.9601 223.072 92.9683 223.072 88.3555C223.072 83.861 223.989 79.9284 225.822 76.5575C227.715 73.1866 230.287 70.555 233.54 68.6626C236.852 66.711 240.607 65.7352 244.806 65.7352C247.881 65.7352 250.631 66.2379 253.055 67.2433C255.539 68.2486 257.638 69.6975 259.353 71.5899C261.128 73.4823 262.458 75.7887 263.345 78.509C264.292 81.1702 264.765 84.1863 264.765 87.5571C264.765 88.6216 264.38 89.4496 263.611 90.0409C262.902 90.5732 261.867 90.8393 260.507 90.8393H232.032V84.4524H256.958L255.539 85.783C255.539 83.0627 255.125 80.7859 254.297 78.9526C253.528 77.1193 252.375 75.7296 250.838 74.7833C249.359 73.778 247.496 73.2753 245.249 73.2753C242.765 73.2753 240.636 73.8667 238.862 75.0495C237.147 76.1731 235.817 77.7994 234.87 79.9284C233.983 81.9982 233.54 84.482 233.54 87.3797V88.0007C233.54 92.85 234.663 96.487 236.911 98.9116C239.217 101.277 242.588 102.46 247.023 102.46C248.561 102.46 250.276 102.282 252.168 101.928C254.12 101.514 255.953 100.834 257.668 99.8874C258.91 99.1778 260.004 98.8821 260.95 99.0003C261.896 99.0595 262.636 99.3847 263.168 99.9761C263.759 100.567 264.114 101.307 264.232 102.194C264.351 103.022 264.173 103.879 263.7 104.766C263.286 105.653 262.547 106.422 261.482 107.073C259.413 108.374 257.018 109.349 254.297 110C251.636 110.591 249.152 110.887 246.846 110.887ZM286.054 110.887C282.919 110.887 280.11 110.296 277.626 109.113C275.202 107.871 273.28 106.215 271.86 104.145C270.5 102.076 269.82 99.7396 269.82 97.1375C269.82 93.944 270.648 91.4307 272.304 89.5974C273.96 87.705 276.651 86.3448 280.376 85.5169C284.102 84.689 289.099 84.275 295.368 84.275H299.803V90.6619H295.457C291.79 90.6619 288.863 90.8393 286.675 91.1941C284.486 91.549 282.919 92.1699 281.973 93.057C281.086 93.8849 280.642 95.0677 280.642 96.6053C280.642 98.5568 281.323 100.154 282.683 101.395C284.043 102.637 285.935 103.258 288.36 103.258C290.312 103.258 292.027 102.815 293.505 101.928C295.043 100.981 296.255 99.71 297.142 98.1133C298.029 96.5165 298.473 94.6833 298.473 92.6134V82.4121C298.473 79.4552 297.822 77.3263 296.521 76.0252C295.22 74.7242 293.032 74.0737 289.957 74.0737C288.242 74.0737 286.379 74.2807 284.368 74.6946C282.417 75.1086 280.347 75.8183 278.159 76.8236C277.035 77.3559 276.03 77.5037 275.143 77.2671C274.315 77.0306 273.664 76.5575 273.191 75.8478C272.718 75.079 272.481 74.2511 272.481 73.364C272.481 72.477 272.718 71.6195 273.191 70.7915C273.664 69.9045 274.463 69.254 275.586 68.84C278.307 67.7164 280.909 66.918 283.392 66.4449C285.935 65.9718 288.242 65.7352 290.312 65.7352C294.569 65.7352 298.059 66.3858 300.779 67.6868C303.558 68.9878 305.628 70.969 306.988 73.6302C308.349 76.2322 309.029 79.6031 309.029 83.7428V105.032C309.029 106.866 308.585 108.285 307.698 109.29C306.811 110.237 305.54 110.71 303.884 110.71C302.228 110.71 300.927 110.237 299.981 109.29C299.094 108.285 298.65 106.866 298.65 105.032V100.774H299.36C298.946 102.844 298.118 104.648 296.876 106.186C295.693 107.664 294.185 108.817 292.352 109.645C290.519 110.473 288.419 110.887 286.054 110.887ZM338.557 110.887C334.003 110.887 330.041 109.97 326.67 108.137C323.299 106.245 320.697 103.584 318.864 100.154C317.031 96.7235 316.114 92.7021 316.114 88.0894C316.114 84.6002 316.617 81.4955 317.622 78.7752C318.687 75.9957 320.195 73.6597 322.146 71.7673C324.098 69.8158 326.463 68.3373 329.243 67.332C332.022 66.2675 335.127 65.7352 338.557 65.7352C340.509 65.7352 342.608 66.0014 344.855 66.5336C347.162 67.0658 349.32 67.9529 351.331 69.1948C352.277 69.7862 352.898 70.4958 353.194 71.3238C353.489 72.1517 353.548 73.0092 353.371 73.8963C353.194 74.7242 352.809 75.4634 352.218 76.114C351.686 76.7053 351.006 77.0897 350.178 77.2671C349.35 77.3854 348.433 77.1784 347.428 76.6462C346.127 75.8774 344.796 75.3156 343.436 74.9608C342.076 74.5468 340.775 74.3398 339.533 74.3398C337.581 74.3398 335.866 74.6651 334.388 75.3156C332.909 75.907 331.638 76.794 330.573 77.9768C329.568 79.1004 328.799 80.5197 328.267 82.2347C327.735 83.9497 327.469 85.9309 327.469 88.1781C327.469 92.5543 328.504 96.0139 330.573 98.5568C332.702 101.041 335.689 102.282 339.533 102.282C340.775 102.282 342.046 102.105 343.347 101.75C344.707 101.395 346.068 100.834 347.428 100.065C348.433 99.5326 349.32 99.3552 350.089 99.5326C350.917 99.71 351.597 100.124 352.129 100.774C352.661 101.366 352.987 102.105 353.105 102.992C353.223 103.82 353.105 104.648 352.75 105.476C352.454 106.304 351.863 106.984 350.976 107.516C349.024 108.699 346.955 109.556 344.766 110.089C342.578 110.621 340.509 110.887 338.557 110.887ZM364.076 110.71C362.302 110.71 360.942 110.237 359.996 109.29C359.049 108.285 358.576 106.866 358.576 105.032V52.3405C358.576 50.5072 359.049 49.1175 359.996 48.1713C360.942 47.2251 362.302 46.752 364.076 46.752C365.85 46.752 367.21 47.2251 368.157 48.1713C369.162 49.1175 369.665 50.5072 369.665 52.3405V75.3156H368.423C369.724 72.1813 371.735 69.8158 374.455 68.219C377.234 66.5632 380.369 65.7352 383.858 65.7352C387.347 65.7352 390.215 66.3858 392.462 67.6868C394.71 68.9878 396.395 70.969 397.519 73.6302C398.642 76.2322 399.204 79.544 399.204 83.5653V105.032C399.204 106.866 398.731 108.285 397.785 109.29C396.839 110.237 395.478 110.71 393.704 110.71C391.93 110.71 390.54 110.237 389.535 109.29C388.589 108.285 388.116 106.866 388.116 105.032V84.0976C388.116 80.7267 387.465 78.2725 386.164 76.7349C384.922 75.1973 382.971 74.4285 380.31 74.4285C377.057 74.4285 374.455 75.4634 372.503 77.5333C370.611 79.544 369.665 82.2347 369.665 85.6056V105.032C369.665 108.817 367.802 110.71 364.076 110.71ZM437.388 110.71C435.732 110.71 434.46 110.237 433.573 109.29C432.686 108.344 432.243 107.043 432.243 105.387V52.0744C432.243 50.3594 432.716 49.0583 433.662 48.1713C434.608 47.2251 435.909 46.752 437.565 46.752C439.043 46.752 440.197 47.0476 441.025 47.639C441.912 48.1713 442.71 49.1175 443.42 50.4777L465.33 91.0167H462.492L484.402 50.4777C485.112 49.1175 485.881 48.1713 486.709 47.639C487.537 47.0476 488.69 46.752 490.168 46.752C491.824 46.752 493.096 47.2251 493.983 48.1713C494.87 49.0583 495.313 50.3594 495.313 52.0744V105.387C495.313 107.043 494.87 108.344 493.983 109.29C493.155 110.237 491.883 110.71 490.168 110.71C488.512 110.71 487.241 110.237 486.354 109.29C485.467 108.344 485.023 107.043 485.023 105.387V64.3159H486.975L468.346 98.2907C467.755 99.296 467.134 100.035 466.483 100.508C465.833 100.981 464.946 101.218 463.822 101.218C462.699 101.218 461.782 100.981 461.072 100.508C460.363 99.9761 459.742 99.2369 459.21 98.2907L440.404 64.2272H442.533V105.387C442.533 107.043 442.089 108.344 441.202 109.29C440.374 110.237 439.103 110.71 437.388 110.71Z" fill="#5225EE"/>
<path d="M511.664 104.905V70.6895" stroke="#5225EE" stroke-width="11.4052" stroke-linecap="round"/>
<circle cx="511.664" cy="52.9495" r="6.33621" fill="#00CE94"/>
<path d="M253.451 151.317C251.296 151.317 249.406 150.842 247.78 149.891C246.175 148.941 244.928 147.61 244.041 145.899C243.154 144.167 242.711 142.14 242.711 139.817C242.711 138.064 242.964 136.49 243.471 135.096C243.978 133.681 244.696 132.477 245.625 131.484C246.576 130.471 247.706 129.7 249.015 129.172C250.346 128.623 251.824 128.348 253.451 128.348C255.626 128.348 257.516 128.823 259.122 129.774C260.727 130.703 261.973 132.023 262.86 133.734C263.747 135.445 264.191 137.462 264.191 139.785C264.191 141.538 263.937 143.122 263.43 144.537C262.923 145.952 262.195 147.167 261.244 148.18C260.315 149.194 259.185 149.976 257.854 150.525C256.545 151.053 255.077 151.317 253.451 151.317ZM253.451 147.832C254.823 147.832 255.985 147.515 256.936 146.881C257.907 146.248 258.646 145.329 259.153 144.125C259.681 142.921 259.945 141.485 259.945 139.817C259.945 137.282 259.375 135.318 258.234 133.924C257.115 132.53 255.52 131.833 253.451 131.833C252.099 131.833 250.937 132.15 249.966 132.783C248.994 133.396 248.244 134.304 247.716 135.508C247.209 136.691 246.956 138.127 246.956 139.817C246.956 142.33 247.526 144.294 248.667 145.709C249.807 147.124 251.402 147.832 253.451 147.832ZM274.809 151.317C273.52 151.317 272.454 151.084 271.609 150.62C270.764 150.134 270.13 149.416 269.708 148.466C269.307 147.515 269.106 146.332 269.106 144.917V137.25C269.106 136.575 269.275 136.078 269.613 135.761C269.951 135.423 270.437 135.255 271.07 135.255C271.704 135.255 272.19 135.423 272.528 135.761C272.887 136.078 273.066 136.575 273.066 137.25V144.981C273.066 146.079 273.288 146.892 273.731 147.42C274.175 147.948 274.883 148.212 275.854 148.212C276.91 148.212 277.776 147.853 278.452 147.135C279.128 146.396 279.466 145.424 279.466 144.22V137.25C279.466 136.575 279.635 136.078 279.973 135.761C280.311 135.423 280.796 135.255 281.43 135.255C282.064 135.255 282.549 135.423 282.887 135.761C283.246 136.078 283.426 136.575 283.426 137.25V149.226C283.426 150.578 282.782 151.253 281.493 151.253C280.881 151.253 280.406 151.084 280.068 150.747C279.73 150.387 279.561 149.881 279.561 149.226V146.818L280.004 147.769C279.561 148.909 278.885 149.786 277.977 150.398C277.09 151.011 276.034 151.317 274.809 151.317ZM290.842 151.253C290.188 151.253 289.681 151.084 289.322 150.747C288.984 150.387 288.815 149.881 288.815 149.226V137.25C288.815 136.596 288.984 136.099 289.322 135.761C289.66 135.423 290.135 135.255 290.747 135.255C291.36 135.255 291.835 135.423 292.173 135.761C292.511 136.099 292.68 136.596 292.68 137.25V139.246H292.363C292.659 137.979 293.24 137.018 294.106 136.363C294.972 135.709 296.123 135.318 297.559 135.191C298.002 135.149 298.351 135.265 298.604 135.54C298.879 135.793 299.037 136.194 299.08 136.744C299.122 137.272 298.995 137.705 298.699 138.042C298.425 138.359 298.002 138.549 297.432 138.613L296.735 138.676C295.447 138.803 294.475 139.204 293.82 139.88C293.166 140.535 292.838 141.464 292.838 142.668V149.226C292.838 149.881 292.669 150.387 292.331 150.747C291.994 151.084 291.497 151.253 290.842 151.253ZM314.764 151.253C314.11 151.253 313.603 151.074 313.244 150.715C312.906 150.335 312.737 149.817 312.737 149.162V130.724C312.737 130.048 312.916 129.541 313.275 129.203C313.634 128.844 314.141 128.665 314.796 128.665H322.431C324.881 128.665 326.771 129.277 328.102 130.502C329.433 131.727 330.098 133.438 330.098 135.635C330.098 137.831 329.433 139.553 328.102 140.799C326.771 142.024 324.881 142.636 322.431 142.636H316.792V149.162C316.792 149.817 316.623 150.335 316.285 150.715C315.947 151.074 315.44 151.253 314.764 151.253ZM316.792 139.436H321.798C323.234 139.436 324.321 139.12 325.061 138.486C325.8 137.831 326.17 136.881 326.17 135.635C326.17 134.389 325.8 133.449 325.061 132.815C324.321 132.181 323.234 131.865 321.798 131.865H316.792V139.436ZM340.582 151.317C338.977 151.317 337.583 150.989 336.4 150.335C335.218 149.68 334.299 148.751 333.644 147.547C332.989 146.322 332.662 144.886 332.662 143.238C332.662 141.992 332.841 140.883 333.201 139.912C333.581 138.919 334.119 138.074 334.816 137.377C335.513 136.659 336.347 136.12 337.319 135.761C338.291 135.381 339.378 135.191 340.582 135.191C342.187 135.191 343.581 135.519 344.764 136.173C345.947 136.828 346.866 137.757 347.52 138.961C348.175 140.165 348.502 141.591 348.502 143.238C348.502 144.484 348.312 145.604 347.932 146.596C347.573 147.589 347.045 148.444 346.348 149.162C345.651 149.859 344.817 150.398 343.845 150.778C342.874 151.137 341.786 151.317 340.582 151.317ZM340.582 148.307C341.364 148.307 342.05 148.117 342.641 147.737C343.233 147.357 343.687 146.797 344.004 146.058C344.342 145.297 344.511 144.358 344.511 143.238C344.511 141.548 344.152 140.292 343.433 139.468C342.715 138.623 341.765 138.201 340.582 138.201C339.801 138.201 339.114 138.391 338.523 138.771C337.932 139.13 337.467 139.69 337.129 140.45C336.812 141.189 336.654 142.119 336.654 143.238C336.654 144.907 337.013 146.174 337.731 147.04C338.449 147.885 339.399 148.307 340.582 148.307ZM358.329 151.317C356.576 151.317 355.256 150.82 354.369 149.828C353.482 148.814 353.038 147.336 353.038 145.392V130.407C353.038 129.753 353.207 129.256 353.545 128.918C353.883 128.58 354.369 128.411 355.003 128.411C355.636 128.411 356.122 128.58 356.46 128.918C356.819 129.256 356.998 129.753 356.998 130.407V145.202C356.998 146.174 357.199 146.892 357.6 147.357C358.023 147.821 358.614 148.054 359.375 148.054C359.543 148.054 359.702 148.054 359.85 148.054C359.998 148.033 360.145 148.011 360.293 147.99C360.589 147.948 360.79 148.033 360.895 148.244C361.001 148.434 361.054 148.835 361.054 149.448C361.054 149.976 360.948 150.387 360.737 150.683C360.526 150.979 360.177 151.158 359.691 151.222C359.48 151.243 359.258 151.264 359.026 151.285C358.794 151.306 358.561 151.317 358.329 151.317ZM366.387 151.222C365.753 151.222 365.267 151.032 364.929 150.652C364.591 150.271 364.422 149.743 364.422 149.067V137.441C364.422 136.744 364.591 136.216 364.929 135.856C365.267 135.476 365.753 135.286 366.387 135.286C367.02 135.286 367.506 135.476 367.844 135.856C368.203 136.216 368.383 136.744 368.383 137.441V149.067C368.383 149.743 368.214 150.271 367.876 150.652C367.538 151.032 367.041 151.222 366.387 151.222ZM366.387 132.34C365.647 132.34 365.067 132.16 364.644 131.801C364.243 131.421 364.042 130.904 364.042 130.249C364.042 129.573 364.243 129.056 364.644 128.697C365.067 128.337 365.647 128.158 366.387 128.158C367.147 128.158 367.728 128.337 368.129 128.697C368.53 129.056 368.731 129.573 368.731 130.249C368.731 130.904 368.53 131.421 368.129 131.801C367.728 132.16 367.147 132.34 366.387 132.34ZM380.925 151.317C379.298 151.317 377.883 150.989 376.679 150.335C375.475 149.659 374.546 148.708 373.891 147.483C373.237 146.258 372.909 144.822 372.909 143.175C372.909 141.929 373.089 140.82 373.448 139.848C373.828 138.856 374.367 138.021 375.064 137.345C375.761 136.648 376.605 136.12 377.598 135.761C378.591 135.381 379.7 135.191 380.925 135.191C381.622 135.191 382.371 135.286 383.174 135.476C383.998 135.666 384.769 135.983 385.487 136.427C385.825 136.638 386.046 136.891 386.152 137.187C386.258 137.483 386.279 137.789 386.215 138.106C386.152 138.402 386.015 138.666 385.803 138.898C385.613 139.109 385.37 139.246 385.075 139.31C384.779 139.352 384.452 139.278 384.093 139.088C383.628 138.813 383.153 138.613 382.667 138.486C382.181 138.338 381.717 138.264 381.273 138.264C380.576 138.264 379.964 138.38 379.436 138.613C378.908 138.824 378.453 139.141 378.073 139.563C377.714 139.964 377.44 140.471 377.25 141.084C377.059 141.696 376.964 142.404 376.964 143.206C376.964 144.769 377.334 146.005 378.073 146.913C378.834 147.8 379.9 148.244 381.273 148.244C381.717 148.244 382.171 148.18 382.635 148.054C383.121 147.927 383.607 147.726 384.093 147.452C384.452 147.262 384.769 147.198 385.043 147.262C385.339 147.325 385.582 147.473 385.772 147.705C385.962 147.916 386.078 148.18 386.12 148.497C386.162 148.793 386.12 149.089 385.994 149.384C385.888 149.68 385.677 149.923 385.36 150.113C384.663 150.535 383.924 150.842 383.142 151.032C382.361 151.222 381.622 151.317 380.925 151.317ZM391.939 151.222C391.306 151.222 390.82 151.032 390.482 150.652C390.144 150.271 389.975 149.743 389.975 149.067V137.441C389.975 136.744 390.144 136.216 390.482 135.856C390.82 135.476 391.306 135.286 391.939 135.286C392.573 135.286 393.059 135.476 393.397 135.856C393.756 136.216 393.935 136.744 393.935 137.441V149.067C393.935 149.743 393.766 150.271 393.428 150.652C393.09 151.032 392.594 151.222 391.939 151.222ZM391.939 132.34C391.2 132.34 390.619 132.16 390.197 131.801C389.796 131.421 389.595 130.904 389.595 130.249C389.595 129.573 389.796 129.056 390.197 128.697C390.619 128.337 391.2 128.158 391.939 128.158C392.7 128.158 393.281 128.337 393.682 128.697C394.083 129.056 394.284 129.573 394.284 130.249C394.284 130.904 394.083 131.421 393.682 131.801C393.281 132.16 392.7 132.34 391.939 132.34ZM406.953 151.317C405.199 151.317 403.689 150.989 402.422 150.335C401.155 149.68 400.173 148.751 399.476 147.547C398.8 146.343 398.462 144.917 398.462 143.27C398.462 141.665 398.789 140.26 399.444 139.056C400.12 137.852 401.039 136.912 402.2 136.237C403.383 135.54 404.724 135.191 406.224 135.191C407.322 135.191 408.304 135.371 409.17 135.73C410.057 136.089 410.807 136.606 411.42 137.282C412.053 137.958 412.528 138.782 412.845 139.753C413.183 140.704 413.352 141.781 413.352 142.985C413.352 143.365 413.215 143.661 412.94 143.872C412.687 144.062 412.317 144.157 411.831 144.157H401.662V141.876H410.564L410.057 142.351C410.057 141.38 409.909 140.566 409.614 139.912C409.339 139.257 408.927 138.761 408.378 138.423C407.85 138.064 407.185 137.884 406.382 137.884C405.495 137.884 404.735 138.095 404.101 138.518C403.489 138.919 403.013 139.5 402.676 140.26C402.359 140.999 402.2 141.886 402.2 142.921V143.143C402.2 144.875 402.602 146.174 403.404 147.04C404.228 147.885 405.432 148.307 407.016 148.307C407.565 148.307 408.178 148.244 408.853 148.117C409.55 147.969 410.205 147.726 410.818 147.388C411.261 147.135 411.652 147.029 411.99 147.072C412.328 147.093 412.592 147.209 412.782 147.42C412.993 147.631 413.12 147.895 413.162 148.212C413.204 148.508 413.141 148.814 412.972 149.131C412.824 149.448 412.56 149.722 412.18 149.955C411.441 150.419 410.585 150.768 409.614 151C408.663 151.211 407.776 151.317 406.953 151.317ZM423.426 151.317C422.518 151.317 421.557 151.222 420.543 151.032C419.53 150.842 418.621 150.514 417.819 150.05C417.481 149.838 417.238 149.595 417.09 149.321C416.963 149.025 416.911 148.74 416.932 148.466C416.974 148.17 417.08 147.916 417.249 147.705C417.439 147.494 417.671 147.357 417.946 147.293C418.241 147.23 418.558 147.283 418.896 147.452C419.741 147.853 420.533 148.138 421.272 148.307C422.011 148.455 422.74 148.529 423.458 148.529C424.472 148.529 425.222 148.36 425.707 148.022C426.214 147.663 426.468 147.198 426.468 146.628C426.468 146.142 426.299 145.773 425.961 145.519C425.644 145.245 425.158 145.044 424.504 144.917L421.335 144.315C420.026 144.062 419.023 143.587 418.326 142.89C417.65 142.172 417.312 141.253 417.312 140.133C417.312 139.12 417.587 138.243 418.136 137.504C418.706 136.765 419.487 136.194 420.48 135.793C421.473 135.392 422.613 135.191 423.902 135.191C424.831 135.191 425.697 135.297 426.499 135.508C427.323 135.698 428.115 136.004 428.876 136.427C429.192 136.596 429.404 136.817 429.509 137.092C429.636 137.367 429.668 137.652 429.604 137.947C429.541 138.222 429.414 138.475 429.224 138.708C429.034 138.919 428.791 139.056 428.495 139.12C428.221 139.162 427.904 139.098 427.545 138.93C426.89 138.592 426.257 138.349 425.644 138.201C425.053 138.053 424.482 137.979 423.933 137.979C422.898 137.979 422.127 138.159 421.621 138.518C421.135 138.877 420.892 139.352 420.892 139.943C420.892 140.387 421.04 140.756 421.335 141.052C421.631 141.348 422.085 141.548 422.698 141.654L425.866 142.256C427.239 142.509 428.274 142.974 428.971 143.65C429.689 144.326 430.048 145.234 430.048 146.375C430.048 147.916 429.446 149.131 428.242 150.018C427.038 150.884 425.433 151.317 423.426 151.317Z" fill="#00CE94"/>
<path fill-rule="evenodd" clip-rule="evenodd" d="M86.0762 66.2539C90.0387 66.2539 93.251 69.5399 93.251 73.5933V121.119C93.251 132.011 101.509 139.648 113.751 139.648C125.992 139.648 134.25 132.011 134.25 121.119V73.5933C134.25 69.5399 137.462 66.2539 141.425 66.2539C145.387 66.2539 148.6 69.5399 148.6 73.5933V121.119C148.6 141.88 132.077 154.327 113.751 154.327C95.4239 154.327 78.9014 141.88 78.9014 121.119V73.5933C78.9014 69.5399 82.1136 66.2539 86.0762 66.2539Z" fill="#5225EE"/>
<circle cx="86.5043" cy="50.4145" r="9.50431" fill="#00CE94"/>
<circle cx="141.629" cy="50.4145" r="9.50431" fill="#00CE94"/>
</svg>
