<svg width="34" height="34" viewBox="0 0 34 34" fill="none" xmlns="http://www.w3.org/2000/svg">
    <path d="M17.0002 23.6668C20.682 23.6668 23.6668 20.682 23.6668 17.0002C23.6668 13.3183 20.682 10.3335 17.0002 10.3335C13.3183 10.3335 10.3335 13.3183 10.3335 17.0002C10.3335 20.682 13.3183 23.6668 17.0002 23.6668Z" stroke="black" stroke-width="3.5" stroke-linecap="round" stroke-linejoin="round" />
    <path d="M2 23.6667V10.3333C2 5.73097 5.73097 2 10.3333 2H23.6667C28.269 2 32 5.73097 32 10.3333V23.6667C32 28.269 28.269 32 23.6667 32H10.3333C5.73097 32 2 28.269 2 23.6667Z" stroke="black" stroke-width="3.5" />
    <path d="M26.167 7.85199L26.1854 7.83154" stroke="black" stroke-width="3.5" stroke-linecap="round" stroke-linejoin="round"/>
</svg>