<svg width="430" height="425" viewBox="0 0 430 425" fill="none" xmlns="http://www.w3.org/2000/svg">
    <path d="M-114.092 159.841C-107.723 242.428 -58.6799 258.258 -28.9117 329.098C-11.9435 369.46 -17.9352 417.937 25.9222 451.512C58.9116 476.759 103.79 482.448 136.354 473.136C151.565 468.785 163.681 452.897 178.841 449.798C210.129 443.414 238.581 459.789 272.547 467.658C311.703 476.714 349.275 477.404 373.252 446.051C396.648 415.475 385.246 369.693 398.376 333.746C412.123 296.117 442.828 283.785 423.652 232.584C408.393 191.863 367.882 173.237 342.864 141.531C278.9 60.4997 266.001 -9.3561 155.583 2.10093C109.391 6.89602 70.5731 29.8865 24.6637 30.7242C-56.9617 32.2464 -122.541 50.2755 -114.092 159.841Z" fill="#00CE94"/>
</svg>
