<svg width="816" height="365" viewBox="0 0 816 365" fill="none" xmlns="http://www.w3.org/2000/svg">
    <path d="M107.966 339.779C208.698 345.534 294.693 355.359 360.06 349.618C425.428 343.877 552.767 328.064 603.464 298.938C643.681 275.832 624.567 259.948 610.172 251.967C623.186 245.499 635.126 236.816 645.411 226.176L714.492 154.717L609.733 247.187C592.062 244.608 599.921 246.283 610.172 251.967C593.885 260.064 575.915 264.69 557.405 265.339L24.9681 284.011C-22.704 243.846 7.23294 334.023 107.966 339.779Z" fill="#F47A62"/>
    <path d="M365.402 123.354C301.024 92.9775 215.579 52.6609 113.38 129.975C10.92 207.485 -28.6391 293.556 27.3643 294.331L539.098 313.186C580.841 314.724 620.733 295.905 646.091 262.711L830.589 21.202L665.644 16.9461C622.52 35.5801 586.593 21.5508 519.197 92.9361C462.976 152.485 430.328 153.989 365.893 123.586L365.402 123.354Z" fill="#F47A62"/>
</svg>
