<svg width="143" height="102" viewBox="0 0 143 102" fill="none" xmlns="http://www.w3.org/2000/svg">
    <path d="M93.9438 68.7797L95.2424 70.916L93.9438 68.7797ZM58.3052 68.7797L55.8569 68.274L58.3052 68.7797ZM142.475 78.0962C143.303 76.9916 143.079 75.4246 141.975 74.5962C140.87 73.7678 139.303 73.9916 138.475 75.0962L142.475 78.0962ZM103.636 97.6293L104.226 100.059L104.334 100.032L104.439 99.9966L103.636 97.6293ZM-24.3731 3.08548C-17.2881 17.7849 -2.20373 43.4095 18.377 61.0762C28.684 69.9238 40.4996 76.888 53.497 79.3732C66.5633 81.8716 80.6237 79.8022 95.2424 70.916L92.6452 66.6435C79.0374 74.9152 66.2311 76.7175 54.436 74.4622C42.5721 72.1937 31.5317 65.7788 21.6337 57.2822C1.80439 40.2606 -12.9172 15.3375 -19.869 0.91452L-24.3731 3.08548ZM95.2424 70.916C98.3426 69.0315 100.369 66.5334 101.34 63.6649C102.301 60.8237 102.156 57.8303 101.296 55.0312C99.5955 49.4957 95.008 44.354 89.3837 41.5319C83.6863 38.6731 76.6235 38.0636 70.2034 42.1678C63.8764 46.2124 58.7009 54.5061 55.8569 68.274L60.7535 69.2855C63.4641 56.1635 68.178 49.3969 72.8965 46.3806C77.5218 43.4237 82.6603 43.7525 87.1413 46.0009C91.6954 48.2859 95.2633 52.4203 96.5163 56.4994C97.1332 58.5075 97.164 60.406 96.6036 62.0626C96.0524 63.6918 94.8598 65.2973 92.6452 66.6435L95.2424 70.916ZM55.8569 68.274C53.4748 79.8058 57.9388 89.8097 66.9993 95.8359C75.9536 101.791 89.1359 103.723 104.226 100.059L103.046 95.1999C88.9168 98.6306 77.261 96.656 69.7683 91.6726C62.3818 86.7598 58.7899 78.7915 60.7535 69.2855L55.8569 68.274ZM104.439 99.9966C126.795 92.4066 138.826 82.9607 142.475 78.0962L138.475 75.0962C135.684 78.8175 124.731 87.827 102.832 95.262L104.439 99.9966Z" fill="#F5F5F5"/>
</svg>


