<svg width="257" height="75" viewBox="0 0 257 75" fill="none" xmlns="http://www.w3.org/2000/svg">
<ellipse cx="4.5" cy="9.58247" rx="4.5" ry="4.53913" fill="#00CE94"/>
<ellipse cx="28.5" cy="9.58247" rx="4.5" ry="4.53913" fill="#00CE94"/>
<path d="M63.794 55.432C62.678 55.432 61.814 55.126 61.202 54.514C60.626 53.866 60.338 52.984 60.338 51.868V22.708H49.808C48.872 22.708 48.134 22.456 47.594 21.952C47.09 21.412 46.838 20.692 46.838 19.792C46.838 18.856 47.09 18.154 47.594 17.686C48.134 17.182 48.872 16.93 49.808 16.93H77.78C78.716 16.93 79.436 17.182 79.94 17.686C80.48 18.154 80.75 18.856 80.75 19.792C80.75 20.692 80.48 21.412 79.94 21.952C79.436 22.456 78.716 22.708 77.78 22.708H67.25V51.868C67.25 52.984 66.962 53.866 66.386 54.514C65.81 55.126 64.946 55.432 63.794 55.432ZM91.7643 55.54C88.7763 55.54 86.2023 54.982 84.0423 53.866C81.8823 52.75 80.2083 51.166 79.0203 49.114C77.8683 47.062 77.2923 44.632 77.2923 41.824C77.2923 39.088 77.8503 36.694 78.9663 34.642C80.1183 32.59 81.6843 30.988 83.6643 29.836C85.6803 28.648 87.9663 28.054 90.5223 28.054C92.3943 28.054 94.0683 28.36 95.5443 28.972C97.0563 29.584 98.3343 30.466 99.3783 31.618C100.458 32.77 101.268 34.174 101.808 35.83C102.384 37.45 102.672 39.286 102.672 41.338C102.672 41.986 102.438 42.49 101.97 42.85C101.538 43.174 100.908 43.336 100.08 43.336H82.7463V39.448H97.9203L97.0563 40.258C97.0563 38.602 96.8043 37.216 96.3003 36.1C95.8323 34.984 95.1303 34.138 94.1943 33.562C93.2943 32.95 92.1603 32.644 90.7923 32.644C89.2803 32.644 87.9843 33.004 86.9043 33.724C85.8603 34.408 85.0503 35.398 84.4743 36.694C83.9343 37.954 83.6643 39.466 83.6643 41.23V41.608C83.6643 44.56 84.3483 46.774 85.7163 48.25C87.1203 49.69 89.1723 50.41 91.8723 50.41C92.8083 50.41 93.8523 50.302 95.0043 50.086C96.1923 49.834 97.3083 49.42 98.3523 48.844C99.1083 48.412 99.7743 48.232 100.35 48.304C100.926 48.34 101.376 48.538 101.7 48.898C102.06 49.258 102.276 49.708 102.348 50.248C102.42 50.752 102.312 51.274 102.024 51.814C101.772 52.354 101.322 52.822 100.674 53.218C99.4143 54.01 97.9563 54.604 96.3003 55C94.6803 55.36 93.1683 55.54 91.7643 55.54ZM115.632 55.54C113.724 55.54 112.014 55.18 110.502 54.46C109.026 53.704 107.856 52.696 106.992 51.436C106.164 50.176 105.75 48.754 105.75 47.17C105.75 45.226 106.254 43.696 107.262 42.58C108.27 41.428 109.908 40.6 112.176 40.096C114.444 39.592 117.486 39.34 121.302 39.34H124.002V43.228H121.356C119.124 43.228 117.342 43.336 116.01 43.552C114.678 43.768 113.724 44.146 113.148 44.686C112.608 45.19 112.338 45.91 112.338 46.846C112.338 48.034 112.752 49.006 113.58 49.762C114.408 50.518 115.56 50.896 117.036 50.896C118.224 50.896 119.268 50.626 120.168 50.086C121.104 49.51 121.842 48.736 122.382 47.764C122.922 46.792 123.192 45.676 123.192 44.416V38.206C123.192 36.406 122.796 35.11 122.004 34.318C121.212 33.526 119.88 33.13 118.008 33.13C116.964 33.13 115.83 33.256 114.606 33.508C113.418 33.76 112.158 34.192 110.826 34.804C110.142 35.128 109.53 35.218 108.99 35.074C108.486 34.93 108.09 34.642 107.802 34.21C107.514 33.742 107.37 33.238 107.37 32.698C107.37 32.158 107.514 31.636 107.802 31.132C108.09 30.592 108.576 30.196 109.26 29.944C110.916 29.26 112.5 28.774 114.012 28.486C115.56 28.198 116.964 28.054 118.224 28.054C120.816 28.054 122.94 28.45 124.596 29.242C126.288 30.034 127.548 31.24 128.376 32.86C129.204 34.444 129.618 36.496 129.618 39.016V51.976C129.618 53.092 129.348 53.956 128.808 54.568C128.268 55.144 127.494 55.432 126.486 55.432C125.478 55.432 124.686 55.144 124.11 54.568C123.57 53.956 123.3 53.092 123.3 51.976V49.384H123.732C123.48 50.644 122.976 51.742 122.22 52.678C121.5 53.578 120.582 54.28 119.466 54.784C118.35 55.288 117.072 55.54 115.632 55.54ZM147.593 55.54C144.821 55.54 142.409 54.982 140.357 53.866C138.305 52.714 136.721 51.094 135.605 49.006C134.489 46.918 133.931 44.47 133.931 41.662C133.931 39.538 134.237 37.648 134.849 35.992C135.497 34.3 136.415 32.878 137.603 31.726C138.791 30.538 140.231 29.638 141.923 29.026C143.615 28.378 145.505 28.054 147.593 28.054C148.781 28.054 150.059 28.216 151.427 28.54C152.831 28.864 154.145 29.404 155.369 30.16C155.945 30.52 156.323 30.952 156.503 31.456C156.683 31.96 156.719 32.482 156.611 33.022C156.503 33.526 156.269 33.976 155.909 34.372C155.585 34.732 155.171 34.966 154.667 35.074C154.163 35.146 153.605 35.02 152.993 34.696C152.201 34.228 151.391 33.886 150.563 33.67C149.735 33.418 148.943 33.292 148.187 33.292C146.999 33.292 145.955 33.49 145.055 33.886C144.155 34.246 143.381 34.786 142.733 35.506C142.121 36.19 141.653 37.054 141.329 38.098C141.005 39.142 140.843 40.348 140.843 41.716C140.843 44.38 141.473 46.486 142.733 48.034C144.029 49.546 145.847 50.302 148.187 50.302C148.943 50.302 149.717 50.194 150.509 49.978C151.337 49.762 152.165 49.42 152.993 48.952C153.605 48.628 154.145 48.52 154.613 48.628C155.117 48.736 155.531 48.988 155.855 49.384C156.179 49.744 156.377 50.194 156.449 50.734C156.521 51.238 156.449 51.742 156.233 52.246C156.053 52.75 155.693 53.164 155.153 53.488C153.965 54.208 152.705 54.73 151.373 55.054C150.041 55.378 148.781 55.54 147.593 55.54ZM163.128 55.432C162.048 55.432 161.22 55.144 160.644 54.568C160.068 53.956 159.78 53.092 159.78 51.976V19.9C159.78 18.784 160.068 17.938 160.644 17.362C161.22 16.786 162.048 16.498 163.128 16.498C164.208 16.498 165.036 16.786 165.612 17.362C166.224 17.938 166.53 18.784 166.53 19.9V33.886H165.774C166.566 31.978 167.79 30.538 169.446 29.566C171.138 28.558 173.046 28.054 175.17 28.054C177.294 28.054 179.04 28.45 180.408 29.242C181.776 30.034 182.802 31.24 183.486 32.86C184.17 34.444 184.512 36.46 184.512 38.908V51.976C184.512 53.092 184.224 53.956 183.648 54.568C183.072 55.144 182.244 55.432 181.164 55.432C180.084 55.432 179.238 55.144 178.626 54.568C178.05 53.956 177.762 53.092 177.762 51.976V39.232C177.762 37.18 177.366 35.686 176.574 34.75C175.818 33.814 174.63 33.346 173.01 33.346C171.03 33.346 169.446 33.976 168.258 35.236C167.106 36.46 166.53 38.098 166.53 40.15V51.976C166.53 54.28 165.396 55.432 163.128 55.432ZM207.756 55.432C206.748 55.432 205.974 55.144 205.434 54.568C204.894 53.992 204.624 53.2 204.624 52.192V19.738C204.624 18.694 204.912 17.902 205.488 17.362C206.064 16.786 206.856 16.498 207.864 16.498C208.764 16.498 209.466 16.678 209.97 17.038C210.51 17.362 210.996 17.938 211.428 18.766L224.766 43.444H223.038L236.376 18.766C236.808 17.938 237.276 17.362 237.78 17.038C238.284 16.678 238.986 16.498 239.886 16.498C240.894 16.498 241.668 16.786 242.208 17.362C242.748 17.902 243.018 18.694 243.018 19.738V52.192C243.018 53.2 242.748 53.992 242.208 54.568C241.704 55.144 240.93 55.432 239.886 55.432C238.878 55.432 238.104 55.144 237.564 54.568C237.024 53.992 236.754 53.2 236.754 52.192V27.19H237.942L226.602 47.872C226.242 48.484 225.864 48.934 225.468 49.222C225.072 49.51 224.532 49.654 223.848 49.654C223.164 49.654 222.606 49.51 222.174 49.222C221.742 48.898 221.364 48.448 221.04 47.872L209.592 27.136H210.888V52.192C210.888 53.2 210.618 53.992 210.078 54.568C209.574 55.144 208.8 55.432 207.756 55.432Z" fill="#5225EE"/>
<path d="M253 52.4521V31.2695" stroke="#5225EE" stroke-width="6.5" stroke-linecap="round"/>
<ellipse cx="253" cy="20.1738" rx="4" ry="4.03478" fill="#00CE94"/>
<path fill-rule="evenodd" clip-rule="evenodd" d="M4.08824 17.1477C5.79382 17.1477 7.17647 18.5744 7.17647 20.3343V40.9686C7.17647 45.6974 10.7309 49.0133 16 49.0133C21.2691 49.0133 24.8235 45.6974 24.8235 40.9686V20.3343C24.8235 18.5744 26.2062 17.1477 27.9118 17.1477C29.6173 17.1477 31 18.5744 31 20.3343V40.9686C31 49.9822 23.8883 55.3864 16 55.3864C8.11172 55.3864 1 49.9822 1 40.9686V20.3343C1 18.5744 2.38265 17.1477 4.08824 17.1477Z" fill="#5225EE"/>
</svg>
